<svg width="32" height="32" viewBox="0 0 32 32" fill="none" xmlns="http://www.w3.org/2000/svg">
<path d="M13.3333 20.0001H5.33333C4.97971 20.0001 4.64057 19.8596 4.39052 19.6096C4.14048 19.3595 4 19.0204 4 18.6667V8.00008C4 7.64646 4.14048 7.30732 4.39052 7.05727C4.64057 6.80722 4.97971 6.66675 5.33333 6.66675H13.3333" stroke="#2C3E50" stroke-width="1.83333" stroke-linecap="round" stroke-linejoin="round"/>
<path d="M26.6668 5.33325H18.6668C17.9304 5.33325 17.3335 5.93021 17.3335 6.66659V25.3333C17.3335 26.0696 17.9304 26.6666 18.6668 26.6666H26.6668C27.4032 26.6666 28.0002 26.0696 28.0002 25.3333V6.66659C28.0002 5.93021 27.4032 5.33325 26.6668 5.33325Z" stroke="#2C3E50" stroke-width="1.83333" stroke-linecap="round" stroke-linejoin="round"/>
<path d="M9.3335 25.3333H13.3335" stroke="#2C3E50" stroke-width="1.83333" stroke-linecap="round" stroke-linejoin="round"/>
<path d="M22.6665 10.6667V10.6801" stroke="#2C3E50" stroke-width="1.83333" stroke-linecap="round" stroke-linejoin="round"/>
<path d="M22.6668 22.6667C23.4032 22.6667 24.0002 22.0697 24.0002 21.3333C24.0002 20.597 23.4032 20 22.6668 20C21.9304 20 21.3335 20.597 21.3335 21.3333C21.3335 22.0697 21.9304 22.6667 22.6668 22.6667Z" stroke="#2C3E50" stroke-width="1.83333" stroke-linecap="round" stroke-linejoin="round"/>
<path d="M12 20V25.3333" stroke="#2C3E50" stroke-width="1.83333" stroke-linecap="round" stroke-linejoin="round"/>
</svg>
