<svg width="20" height="20" viewBox="0 0 20 20" fill="none" xmlns="http://www.w3.org/2000/svg">
<path fill-rule="evenodd" clip-rule="evenodd" d="M10 0C7.28364 0 6.94364 0.0109091 5.87727 0.06C4.81364 0.109091 4.08545 0.278182 3.44909 0.524545C2.78225 0.775858 2.17822 1.16955 1.67909 1.67818C1.17011 2.17756 0.77611 2.78189 0.52455 3.44909C0.278182 4.08545 0.108182 4.81273 0.06 5.87818C0.011818 6.94364 0 7.28364 0 10C0 12.7155 0.010909 13.0555 0.06 14.1236C0.109091 15.1873 0.278182 15.9145 0.52455 16.5509C0.77574 17.2181 1.16944 17.8224 1.67818 18.3218C2.17802 18.8302 2.78266 19.2236 3.45 19.4745C4.08636 19.7218 4.81364 19.8918 5.87727 19.94C6.94364 19.9882 7.28364 20 10 20C10.1984 20 10.3841 19.9999 10.5583 19.9998H9.49388V12.0687H7.15552V9.20319H9.49388V6.94553C9.49388 4.49241 10.9455 3.15771 13.0645 3.15771C14.0801 3.15771 14.9521 3.2363 15.2056 3.27123V5.83451H13.7359C12.5835 5.83451 12.3608 6.40144 12.3602 7.22967V9.20385H14.9608L14.6046 12.0694H12.3608L12.3242 19.993C13.1069 19.9851 13.4851 19.9694 14.1236 19.94C15.1873 19.8909 15.9145 19.7218 16.5509 19.4745C17.2173 19.2236 17.8218 18.8309 18.3218 18.3218C18.8303 17.822 19.2236 17.2174 19.4745 16.55C19.7218 15.9136 19.8918 15.1864 19.94 14.1227C19.9882 13.0564 20 12.7164 20 10C20 7.28455 19.9891 6.94455 19.94 5.87636C19.8909 4.81273 19.7218 4.08545 19.4745 3.44909C19.2236 2.78182 18.8309 2.17818 18.3218 1.67909C17.8218 1.17 17.2173 0.776364 16.5509 0.524545C15.9145 0.278182 15.1873 0.108182 14.1218 0.06C13.0564 0.0118182 12.7164 0 10 0Z" fill="#FAFAFA"/>
</svg>
