<svg width="21" height="20" viewBox="0 0 21 20" fill="none" xmlns="http://www.w3.org/2000/svg">
<path fill-rule="evenodd" clip-rule="evenodd" d="M1.86719 0.0884114C1.24652 0.301624 0.74375 0.823091 0.562227 1.44187C0.506133 1.63305 0.5 2.47883 0.5 10.0025C0.5 18.2085 0.501328 18.3553 0.577227 18.5994C0.769883 19.2188 1.3157 19.7538 1.94266 19.9378C2.13383 19.9939 2.97957 20 10.503 20C18.7086 20 18.8554 19.9987 19.0994 19.9228C19.7188 19.7301 20.2538 19.1843 20.4378 18.5573C20.4939 18.3661 20.5 17.5206 20.5 9.99958C20.5 2.47859 20.4939 1.63305 20.4378 1.44187C20.2538 0.814888 19.7188 0.269044 19.0994 0.0763797C18.8554 0.000438951 18.71 -0.000850166 10.4861 0.000165502L2.12109 0.00118117L1.86719 0.0884114ZM5.4648 2.78903C6.34812 3.05713 6.88434 3.88346 6.74715 4.76498C6.55211 6.01796 5.12379 6.67041 4.05414 5.99515C3.27801 5.5052 3.01152 4.49239 3.43832 3.6545C3.54242 3.45016 3.87641 3.10143 4.08531 2.979C4.47691 2.7495 5.06691 2.66825 5.4648 2.78903ZM14.8287 7.93054C15.235 8.03207 15.8498 8.34833 16.1905 8.6312C16.8986 9.21884 17.3502 10.0507 17.4507 10.9527C17.4762 11.181 17.4922 12.4189 17.4922 14.1584V16.9921H16.0078H14.5234V14.3215C14.5234 12.6809 14.5082 11.5698 14.4838 11.4405C14.3936 10.961 14.0723 10.5474 13.625 10.335C13.3966 10.2266 13.3337 10.2144 13 10.2144C12.6663 10.2144 12.6034 10.2266 12.375 10.335C11.9277 10.5474 11.6064 10.961 11.5162 11.4405C11.4918 11.5698 11.4766 12.6809 11.4766 14.3215V16.9921H9.99219H8.50781V12.4997V8.0073H9.99121H11.4746L11.4854 8.61561L11.4961 9.22392L11.7255 8.95742C12.2179 8.38544 12.9588 7.96195 13.6609 7.85128C13.9554 7.80487 14.4638 7.83937 14.8287 7.93054ZM6.47656 12.4997V16.9921H4.99219H3.50781V12.4997V8.0073H4.99219H6.47656V12.4997Z" fill="#FAFAFA"/>
</svg>
