<svg width="21" height="20" viewBox="0 0 21 20" fill="none" xmlns="http://www.w3.org/2000/svg">
<path fill-rule="evenodd" clip-rule="evenodd" d="M9.13723 0.0469373C5.76924 0.452404 2.85999 2.50048 1.35617 5.52468C-0.0110189 8.27413 -0.00999475 11.5705 1.35889 14.3108C1.5029 14.599 1.62069 14.8608 1.62069 14.8926C1.62069 14.9243 1.30816 16.081 0.92621 17.4632C0.544211 18.8453 0.242326 19.9867 0.255285 19.9996C0.268288 20.0125 1.46345 19.7135 2.91124 19.3352L5.54355 18.6472L6.04254 18.8852C6.90856 19.2983 7.76251 19.564 8.74588 19.7264C9.34114 19.8248 10.5697 19.8598 11.2174 19.797C13.1694 19.6075 15.0895 18.8332 16.5836 17.6333C17.022 17.2811 17.9183 16.3592 18.248 15.9212C19.2656 14.5693 19.9135 13.0229 20.1736 11.3252C20.2705 10.693 20.2835 9.2343 20.1978 8.62308C19.9043 6.52993 19.0339 4.67998 17.6447 3.1964C16.0418 1.4846 14.0881 0.446819 11.7963 0.0898421C11.1639 -0.00868791 9.78402 -0.0309382 9.13723 0.0469373ZM7.47056 5.42952C7.62669 5.48856 7.7451 5.71483 8.20975 6.8417C8.58837 7.75989 8.61393 7.84109 8.56806 7.97951C8.51155 8.14985 8.34429 8.39052 8.00352 8.79182C7.84365 8.9801 7.76643 9.11032 7.76692 9.19073C7.76951 9.59411 9.03832 11.0751 9.86306 11.6373C10.3809 11.9903 11.2989 12.4344 11.5113 12.4346C11.6486 12.4348 11.7061 12.3985 11.9141 12.18C12.0476 12.0398 12.2847 11.76 12.4411 11.5583C12.6033 11.3491 12.7694 11.1805 12.8277 11.1659C12.9314 11.14 13.4417 11.3609 14.6685 11.9625C15.1208 12.1843 15.2328 12.2583 15.2673 12.3578C15.3227 12.5178 15.2452 13.0396 15.1157 13.3778C14.9554 13.7965 14.4958 14.1808 13.8127 14.4673C13.5538 14.5759 13.4871 14.5843 12.9097 14.5817C12.3513 14.5792 12.2467 14.566 11.9077 14.4549C10.7628 14.0799 10.0436 13.7484 9.30253 13.2542C8.16197 12.4935 7.31238 11.6345 6.33779 10.2567C5.27636 8.75618 5.05129 7.5939 5.60519 6.47342C5.8217 6.03542 6.16237 5.63944 6.44208 5.5007C6.62774 5.40865 6.73466 5.3875 7.01495 5.3875C7.20448 5.3875 7.4095 5.40638 7.47056 5.42952Z" fill="#FAFAFA"/>
</svg>
