<svg width="566" height="581" viewBox="0 0 566 581" fill="none" xmlns="http://www.w3.org/2000/svg">
<path d="M390.639 180.115C390.896 181.129 391.115 181.877 391.335 182.437C391.449 182.72 391.555 182.955 391.722 183.196L392.081 183.572C392.247 183.699 392.52 183.836 392.854 183.836C393.208 183.84 393.521 183.672 393.69 183.517C394.023 183.205 394.097 182.959 394.199 182.709C394.364 182.244 394.468 181.7 394.579 180.982C394.957 178.499 395.297 174.03 395.959 168.272C396.62 162.524 397.598 155.518 399.229 148.089C400.619 141.745 402.284 137.935 403.849 135.81C405.435 133.681 406.766 133.229 407.866 133.214C408.769 133.209 409.619 133.581 410.247 133.986C410.56 134.188 410.812 134.389 410.98 134.537L411.167 134.71L411.208 134.752L411.215 134.759L411.518 134.471L411.211 134.754L411.215 134.759L411.518 134.471L411.211 134.754C411.627 135.204 412.326 135.23 412.773 134.814C413.221 134.398 413.248 133.698 412.832 133.249C412.788 133.205 412.292 132.671 411.44 132.122C410.589 131.58 409.363 131.005 407.866 131C406.008 130.985 403.894 131.974 402.066 134.5C400.219 137.03 398.505 141.094 397.07 147.613C394.988 157.091 393.962 165.855 393.305 172.237C392.976 175.426 392.739 178.023 392.513 179.787C392.402 180.666 392.289 181.341 392.188 181.726L392.123 181.948L392.097 182.014L392.544 182.231L392.201 181.883L392.097 182.014L392.544 182.231L392.201 181.883L392.854 182.545V181.622C392.536 181.62 392.286 181.79 392.201 181.883L392.854 182.545V181.622V182.539L393.405 181.799C393.316 181.731 393.117 181.622 392.854 181.622V182.539L393.405 181.799L393.058 182.266L393.526 181.914L393.405 181.799L393.058 182.266L393.526 181.914L393.509 181.928L393.527 181.917L393.526 181.914L393.509 181.928L393.527 181.917C393.499 181.881 393.375 181.62 393.247 181.221C393.114 180.819 392.958 180.267 392.783 179.572C392.633 178.979 392.032 178.621 391.44 178.771C390.848 178.919 390.49 179.521 390.639 180.115" fill="#FAFAFA"/>
<path d="M390.525 157.067L406.558 150.486C407.123 150.254 407.393 149.607 407.161 149.041C406.93 148.476 406.285 148.206 405.72 148.439L389.686 155.02C389.121 155.252 388.851 155.898 389.083 156.465C389.314 157.03 389.96 157.3 390.525 157.067" fill="#FAFAFA"/>
<path d="M418.402 141.092C418.373 141.169 415.187 147.706 415.175 155.132C415.175 157.93 415.636 160.872 416.945 163.617C418.249 166.36 420.418 168.888 423.704 170.802C424.232 171.11 424.908 170.933 425.216 170.404C425.524 169.875 425.345 169.197 424.818 168.89C421.895 167.179 420.073 165.029 418.94 162.663C417.81 160.297 417.386 157.691 417.386 155.132C417.384 151.739 418.136 148.445 418.894 146.017C419.273 144.802 419.652 143.801 419.933 143.111C420.075 142.765 420.191 142.497 420.272 142.316L420.393 142.055C420.659 141.504 420.428 140.842 419.879 140.576C419.329 140.31 418.668 140.541 418.402 141.092" fill="#FAFAFA"/>
<path d="M432.454 136.959L432.528 137.003C432.959 137.258 435.128 138.626 437.15 141.107C439.175 143.598 441.055 147.157 441.058 151.938C441.057 155.137 440.214 158.911 437.92 163.325C437.638 163.867 437.848 164.536 438.389 164.817C438.931 165.1 439.599 164.89 439.881 164.348C442.313 159.675 443.27 155.531 443.269 151.938C443.272 146.192 440.825 141.933 438.41 139.171C435.992 136.399 433.599 135.067 433.527 135.025C432.994 134.728 432.321 134.921 432.024 135.454C431.728 135.99 431.92 136.663 432.454 136.959" fill="#FAFAFA"/>
<path d="M421.498 149.187L432.832 157.472C433.325 157.833 434.016 157.725 434.376 157.231C434.737 156.737 434.629 156.047 434.135 155.686L422.802 147.401C422.309 147.04 421.617 147.146 421.257 147.642C420.897 148.135 421.005 148.826 421.498 149.187Z" fill="#FAFAFA"/>
<path d="M430.102 144.056L421.234 158.189C420.908 158.707 421.065 159.389 421.581 159.715C422.099 160.04 422.781 159.885 423.106 159.367L431.975 145.233C432.3 144.715 432.144 144.031 431.627 143.708C431.11 143.383 430.428 143.538 430.102 144.056" fill="#FAFAFA"/>
<path d="M511.022 227.882L510.48 227.127C507.062 229.584 503.124 230.762 499.216 230.764C493.196 230.762 487.27 227.962 483.49 222.695C481.036 219.272 479.858 215.329 479.858 211.417C479.859 205.39 482.656 199.456 487.919 195.673C491.337 193.216 495.275 192.036 499.183 192.036C505.203 192.038 511.129 194.838 514.909 200.106C517.363 203.528 518.54 207.47 518.541 211.383C518.539 217.41 515.743 223.344 510.48 227.127L511.022 227.882L511.564 228.638C517.328 224.493 520.4 217.983 520.399 211.383C520.399 207.098 519.104 202.765 516.418 199.021C512.278 193.251 505.774 190.174 499.183 190.176C494.902 190.176 490.575 191.473 486.835 194.163C481.07 198.307 477.999 204.817 478 211.417C478 215.702 479.294 220.035 481.981 223.779C486.121 229.549 492.625 232.624 499.216 232.624C503.497 232.624 507.824 231.327 511.564 228.638L511.022 227.882" fill="#FAFAFA"/>
<path d="M539.846 237.618L539.305 236.863C535.495 239.601 531.103 240.916 526.746 240.916C520.034 240.916 513.427 237.793 509.214 231.921C506.479 228.106 505.165 223.708 505.165 219.348C505.166 212.628 508.285 206.013 514.151 201.794C517.961 199.056 522.352 197.741 526.709 197.741C533.421 197.743 540.028 200.864 544.242 206.737C546.977 210.552 548.291 214.949 548.291 219.309C548.29 226.03 545.171 232.644 539.305 236.863L539.846 237.618L540.388 238.373C546.757 233.794 550.15 226.601 550.149 219.309C550.149 214.575 548.719 209.789 545.75 205.652C541.177 199.276 533.992 195.879 526.709 195.881C521.98 195.879 517.2 197.314 513.068 200.284C506.698 204.864 503.305 212.057 503.307 219.348C503.306 224.082 504.737 228.868 507.705 233.005C512.279 239.382 519.463 242.778 526.746 242.776C531.475 242.778 536.256 241.346 540.388 238.373L539.846 237.618" fill="#FAFAFA"/>
<path d="M517.357 202.163L508.014 205.502C507.531 205.675 507.279 206.207 507.451 206.69C507.624 207.174 508.155 207.427 508.639 207.254L517.982 203.915C518.465 203.742 518.717 203.21 518.545 202.726C518.372 202.243 517.841 201.99 517.357 202.163Z" fill="#FAFAFA"/>
<path d="M518.651 206.021L505.237 210.875C504.754 211.05 504.504 211.584 504.678 212.068C504.853 212.55 505.385 212.801 505.868 212.626L519.283 207.769C519.766 207.596 520.015 207.062 519.841 206.579C519.666 206.097 519.134 205.846 518.651 206.021" fill="#FAFAFA"/>
<path d="M519.131 210.671L504.159 216.434C503.681 216.618 503.442 217.157 503.625 217.635C503.81 218.115 504.348 218.355 504.826 218.171L519.798 212.406C520.277 212.222 520.516 211.685 520.331 211.205C520.148 210.725 519.61 210.487 519.131 210.671Z" fill="#FAFAFA"/>
<path d="M518.015 217.04L504.366 223.282C503.9 223.496 503.694 224.047 503.907 224.516C504.12 224.983 504.671 225.187 505.138 224.975L518.788 218.731C519.254 218.517 519.46 217.966 519.246 217.499C519.033 217.031 518.482 216.826 518.015 217.04" fill="#FAFAFA"/>
<path d="M515.639 221.908L505.256 226.219C504.782 226.417 504.557 226.962 504.754 227.436C504.95 227.91 505.494 228.135 505.968 227.938L516.351 223.626C516.825 223.429 517.05 222.884 516.854 222.41C516.657 221.936 516.113 221.711 515.639 221.908" fill="#FAFAFA"/>
<path d="M509.872 180.201C509.725 179.769 509.453 179.447 509.147 179.187C508.222 178.426 506.856 178.015 505.396 178C504.335 178.002 503.211 178.246 502.274 178.938C501.332 179.626 500.673 180.796 500.586 182.289L500.574 182.652C500.57 183.517 500.807 184.3 501.355 184.842C501.902 185.381 502.634 185.565 503.316 185.563C504.738 185.546 506.261 184.888 507.699 184.049C509.129 183.195 510.421 182.156 511.212 181.157L510.481 180.582L509.736 180.026C509.724 180.042 509.075 180.915 508.412 182.033C508.081 182.595 507.745 183.216 507.482 183.841C507.223 184.469 507.019 185.087 507.012 185.747C507.013 186.026 507.054 186.324 507.185 186.62C507.312 186.914 507.546 187.196 507.841 187.377C508.275 187.648 508.849 187.516 509.121 187.081C509.392 186.646 509.26 186.071 508.825 185.799L508.748 185.924L508.882 185.863L508.825 185.799L508.748 185.924L508.882 185.863L508.878 185.844L508.87 185.747C508.864 185.53 508.978 185.065 509.195 184.563C509.514 183.798 510.028 182.924 510.458 182.258C510.673 181.925 510.868 181.642 511.007 181.443C511.146 181.244 511.226 181.138 511.226 181.136C511.529 180.729 511.448 180.15 511.046 179.843C510.642 179.535 510.064 179.607 509.75 180.007C509.201 180.718 508.016 181.704 506.752 182.448C505.496 183.206 504.106 183.718 503.316 183.703C502.928 183.699 502.753 183.608 502.661 183.517C502.57 183.426 502.436 183.22 502.432 182.652L502.44 182.41C502.521 181.356 502.884 180.816 503.383 180.431C503.887 180.052 504.62 179.858 505.396 179.86C506.099 179.858 506.821 180.018 507.344 180.249C507.605 180.362 507.816 180.494 507.945 180.606L508.081 180.744L508.109 180.79C508.272 181.278 508.798 181.54 509.285 181.378C509.771 181.214 510.034 180.688 509.872 180.201" fill="#FAFAFA"/>
<path d="M544.538 186.158L538.702 198.301C538.48 198.763 538.674 199.319 539.136 199.542C539.599 199.765 540.154 199.57 540.376 199.107L540.483 198.895C540.741 198.396 541.45 197.113 542.366 196.002C542.822 195.448 543.329 194.94 543.824 194.596C544.322 194.248 544.783 194.081 545.171 194.083L545.417 194.105C545.896 194.194 546.136 194.363 546.288 194.544C546.438 194.726 546.52 194.961 546.522 195.266C546.527 195.718 546.306 196.29 545.897 196.716C545.485 197.142 544.93 197.431 544.205 197.433C543.762 197.433 543.241 197.323 542.635 197.021C542.176 196.793 541.618 196.979 541.389 197.438C541.161 197.899 541.347 198.457 541.807 198.686C542.633 199.099 543.446 199.295 544.205 199.293C545.457 199.296 546.525 198.759 547.243 197.998C547.962 197.237 548.376 196.263 548.38 195.266C548.382 194.603 548.18 193.915 547.72 193.359C547.263 192.801 546.567 192.416 545.742 192.273H545.742C545.551 192.239 545.359 192.222 545.171 192.222C544.13 192.228 543.23 192.695 542.47 193.286C541.327 194.185 540.418 195.422 539.758 196.445C539.102 197.468 538.713 198.277 538.702 198.301C538.596 198.521 538.581 198.779 538.662 199.012C538.743 199.242 538.916 199.436 539.136 199.542C539.356 199.648 539.615 199.663 539.846 199.581C540.077 199.501 540.27 199.328 540.376 199.107L546.212 186.966C546.435 186.503 546.24 185.946 545.778 185.725C545.316 185.502 544.761 185.695 544.538 186.158" fill="#FAFAFA"/>
<path d="M3.67685 394.836L10.2284 401.042C10.4954 401.294 10.9164 401.282 11.1674 401.015C11.4197 400.749 11.4078 400.328 11.1421 400.076L4.58924 393.871C4.32229 393.618 3.90263 393.63 3.65029 393.896C3.39795 394.163 3.4099 394.584 3.67685 394.836" fill="#17282F"/>
<path d="M10.1341 392.362L4.64773 400.567C4.4432 400.871 4.52553 401.285 4.82967 401.49C5.13513 401.693 5.54684 401.612 5.75137 401.306L11.2378 393.101C11.441 392.796 11.36 392.383 11.0545 392.179C10.7504 391.975 10.3373 392.056 10.1341 392.362" fill="#17282F"/>
<path d="M17.3603 395.71L23.9131 393.27C24.2571 393.142 24.4324 392.759 24.305 392.415C24.1775 392.072 23.7949 391.896 23.451 392.024L16.8968 394.464C16.5542 394.591 16.3789 394.974 16.5063 395.319C16.6338 395.663 17.0164 395.837 17.3603 395.71Z" fill="#17282F"/>
<path d="M26.3848 386.305L30.3705 389.835C30.6455 390.079 31.0651 390.052 31.3082 389.778C31.5512 389.503 31.526 389.083 31.2511 388.839L27.2654 385.309C26.9904 385.066 26.5707 385.091 26.3277 385.367C26.0846 385.642 26.1098 386.062 26.3848 386.305Z" fill="#17282F"/>
<path d="M33.2272 381.375L28.1804 398.717C28.0781 399.07 28.28 399.439 28.6333 399.542C28.9852 399.644 29.3531 399.442 29.4554 399.09L34.5022 381.747C34.6045 381.394 34.4026 381.025 34.0507 380.923C33.6987 380.819 33.3295 381.023 33.2272 381.375Z" fill="#17282F"/>
<path d="M437.193 263.268L436.598 264.135L409.008 245.129L373.363 247.629L371.129 293.002L397.47 311.854L429.701 309.504L436.153 263.123L437.193 263.268L436.598 264.135L437.193 263.268L438.234 263.413L431.667 310.636C431.597 311.126 431.196 311.505 430.702 311.541L397.243 313.982C396.997 314.001 396.757 313.932 396.555 313.788L369.438 294.379C369.148 294.17 368.984 293.829 369.001 293.472L371.309 246.594C371.335 246.061 371.753 245.634 372.285 245.596L409.227 243.003C409.464 242.987 409.7 243.052 409.898 243.187L437.79 262.401C438.118 262.626 438.291 263.017 438.234 263.413L437.193 263.268" fill="#FAFAFA"/>
<path d="M430.012 311.345L403.32 292.102L370.128 294.572C369.55 294.616 369.045 294.181 369.003 293.602C368.959 293.021 369.394 292.518 369.972 292.474L403.545 289.976C403.791 289.957 404.037 290.027 404.237 290.17L431.24 309.636C431.711 309.977 431.818 310.634 431.478 311.105C431.139 311.577 430.483 311.684 430.012 311.345" fill="#FAFAFA"/>
<path d="M402.58 290.898L408.258 243.927C408.327 243.351 408.851 242.938 409.427 243.008C410.003 243.079 410.415 243.603 410.345 244.18L404.665 291.15C404.596 291.727 404.073 292.139 403.497 292.07C402.921 291.998 402.509 291.474 402.58 290.898" fill="#FAFAFA"/>
<path d="M437.315 264.311L400.455 268.586C400.188 268.615 399.921 268.544 399.707 268.384L371.73 247.488C371.265 247.141 371.169 246.482 371.515 246.017C371.862 245.55 372.522 245.455 372.987 245.802L400.627 266.445L437.073 262.222C437.649 262.154 438.171 262.569 438.238 263.146C438.305 263.724 437.891 264.246 437.315 264.311" fill="#FAFAFA"/>
<path d="M401.382 267.613L398.214 313.005C398.174 313.586 397.672 314.022 397.094 313.982C396.513 313.942 396.078 313.439 396.118 312.858L399.286 267.466C399.326 266.887 399.828 266.45 400.407 266.49C400.987 266.53 401.424 267.033 401.382 267.613" fill="#FAFAFA"/>
<path d="M95.3803 197.44L94.7481 197.237L86.9414 221.528C86.871 221.746 86.9175 221.984 87.0649 222.159C87.211 222.335 87.4355 222.421 87.6626 222.391L111.964 219.108C112.199 219.077 112.401 218.919 112.49 218.7C112.579 218.479 112.545 218.225 112.397 218.039L95.9022 197.029C95.7508 196.837 95.5051 196.742 95.2634 196.786C95.0217 196.83 94.8238 197.003 94.7481 197.237L95.3803 197.44L94.8583 197.851L110.635 217.946L88.5285 220.932L96.0124 197.644L95.3803 197.44L94.8583 197.851L95.3803 197.44" fill="#17282F"/>
<path d="M94.7282 197.567L99.0724 220.076C99.1415 220.436 99.4894 220.673 99.8494 220.602C100.211 220.533 100.446 220.185 100.377 219.823L96.0324 197.314C95.9633 196.954 95.614 196.718 95.2541 196.787C94.8942 196.858 94.6591 197.206 94.7282 197.567" fill="#17282F"/>
<path d="M99.1322 216.999L101.326 216.65L101.877 219.826C101.94 220.188 102.284 220.43 102.645 220.367C103.006 220.305 103.249 219.96 103.187 219.599L102.523 215.777C102.462 215.418 102.123 215.176 101.764 215.233L98.9236 215.686C98.5611 215.743 98.314 216.084 98.3711 216.446C98.4296 216.809 98.7696 217.056 99.1322 216.999" fill="#17282F"/>
<path d="M393.73 387.719L417.563 399.441C418.209 399.757 418.989 399.491 419.307 398.843C419.625 398.196 419.356 397.416 418.712 397.098L394.879 385.379C394.233 385.06 393.451 385.327 393.133 385.974C392.817 386.621 393.083 387.404 393.73 387.719Z" fill="#FAFAFA"/>
<path d="M409.184 377.263L402.365 402.184C402.175 402.878 402.584 403.595 403.277 403.786C403.973 403.976 404.69 403.567 404.88 402.872L411.699 377.952C411.889 377.258 411.48 376.541 410.787 376.35C410.091 376.16 409.374 376.567 409.184 377.263Z" fill="#FAFAFA"/>
<path d="M414.621 366.429L414.42 366.207L414.615 366.432L414.621 366.429L414.42 366.207L414.615 366.432C414.652 366.369 415.741 365.568 416.565 365.61C416.844 365.612 417.094 365.664 417.386 365.834C417.675 366.004 418.019 366.309 418.39 366.891C418.697 367.376 418.864 368.055 418.864 368.895C418.872 370.541 418.194 372.673 417.48 374.328C417.125 375.16 416.768 375.878 416.502 376.384C416.369 376.637 416.26 376.835 416.184 376.971L416.072 377.167C415.788 377.644 415.838 378.247 416.195 378.672C416.549 379.098 417.136 379.252 417.654 379.053L427.215 375.413C427.887 375.155 428.224 374.403 427.968 373.73C427.713 373.054 426.96 372.718 426.287 372.973L416.729 376.616L417.191 377.835L418.311 378.503C418.33 378.469 419.098 377.177 419.878 375.353C420.649 373.524 421.46 371.186 421.47 368.895C421.468 367.731 421.249 366.541 420.592 365.495C420.047 364.634 419.409 363.994 418.702 363.582C417.999 363.167 417.245 362.997 416.565 363C415.465 363.005 414.571 363.394 413.94 363.746C413.307 364.104 412.924 364.448 412.874 364.49C412.34 364.973 412.298 365.8 412.78 366.335C413.263 366.87 414.086 366.912 414.621 366.429" fill="#FAFAFA"/>
<path d="M358.882 2.06642C356.11 3.62849 354.314 5.47509 353.181 7.55343C352.048 9.62957 351.568 11.9705 351.568 14.5496C351.554 20.4581 354.159 27.5205 356.835 34.4329C359.495 41.3607 362.23 48.1121 362.249 53.8419C362.265 57.9654 360.724 61.1072 358.272 63.3135C354.598 66.6273 349.135 68.0306 343.603 69.1249C338.074 70.1994 332.419 70.9385 328.501 72.5182L328.091 72.5955C325.924 72.5866 322.841 72.6285 320.457 73.8288C319.26 74.4289 318.238 75.2805 317.473 76.5955C316.713 77.9104 316.204 79.724 316.204 82.2745L316.208 82.6937C316.221 83.3026 315.736 83.8057 315.128 83.8189C314.52 83.83 314.017 83.3468 314.004 82.7379L314 82.2745C313.998 79.435 314.571 77.2066 315.567 75.4879C317.061 72.8999 319.463 71.6004 321.79 70.9959C324.124 70.3825 326.456 70.3936 328.091 70.3892V71.4923L327.681 70.4686C330.583 69.3103 334.078 68.6197 337.708 67.96C343.147 66.9804 348.89 66.0648 353.124 64.0548C355.241 63.0509 356.965 61.7978 358.153 60.1762C359.34 58.5501 360.041 56.5446 360.046 53.8419C360.065 48.8203 357.461 42.1462 354.779 35.2272C352.112 28.2884 349.377 21.0825 349.364 14.5496C349.362 11.7013 349.899 8.9633 351.246 6.49444C352.588 4.02779 354.732 1.8656 357.802 0.142474C358.331 -0.157584 359.003 0.0321928 359.303 0.563913C359.6 1.09563 359.411 1.76636 358.882 2.06642Z" fill="#FAFAFA"/>
<path d="M380.867 15.2868C380.003 20.059 377.907 23.3839 375.051 25.5704C370.76 28.849 365.037 29.6233 359.268 30.0712C353.492 30.5037 347.607 30.5919 343.05 32.0856C338.495 33.5726 335.584 35.6951 333.777 38.1971C331.976 40.7012 331.236 43.6445 331.233 46.9164C331.229 51.2695 332.58 56.152 334.427 60.9132C336.269 65.6789 338.592 70.3187 340.478 74.2614C342.858 79.2499 345.28 85.4562 345.289 91.528C345.296 95.5942 344.159 99.645 341.124 103.005C340.716 103.457 340.02 103.493 339.568 103.085C339.116 102.676 339.079 101.979 339.487 101.527C342.102 98.6191 343.079 95.2081 343.085 91.528C343.094 86.0519 340.822 80.0706 338.493 75.2145C336.619 71.2961 334.266 66.6033 332.37 61.7119C330.48 56.8161 329.034 51.7195 329.03 46.9164C329.027 43.3179 329.863 39.8584 331.991 36.9064C334.116 33.9543 337.492 31.5737 342.369 29.9874C349.086 27.823 357.54 28.4298 364.616 27.256C368.151 26.6824 371.296 25.6807 373.709 23.8207C376.118 21.9564 377.892 19.2449 378.698 14.8896C378.809 14.2895 379.384 13.8923 379.981 14.0027C380.58 14.113 380.977 14.6889 380.867 15.2868" fill="#FAFAFA"/>
<path d="M376.263 23.0176L353.324 3.93741C352.855 3.54689 352.791 2.8519 353.181 2.38416C353.569 1.91422 354.263 1.8502 354.732 2.23851L377.671 21.3187C378.141 21.7092 378.205 22.4042 377.815 22.8719C377.427 23.3419 376.733 23.4059 376.263 23.0176Z" fill="#FAFAFA"/>
<path d="M367.265 28.7144L349.99 14.3668C349.52 13.9763 349.456 13.2813 349.844 12.8135C350.232 12.3436 350.928 12.2774 351.396 12.6679L368.671 27.0155C369.141 27.4038 369.205 28.101 368.817 28.5687C368.427 29.0387 367.732 29.1027 367.265 28.7144Z" fill="#FAFAFA"/>
<path d="M357.134 43.2406L342.541 31.7633C342.063 31.3883 341.981 30.6933 342.356 30.2145C342.733 29.7357 343.425 29.6519 343.903 30.0292L358.496 41.5064C358.975 41.8815 359.058 42.5743 358.684 43.0553C358.307 43.534 357.615 43.6178 357.134 43.2406Z" fill="#FAFAFA"/>
<path d="M360.187 60.4477L331.668 39.9137C331.174 39.5562 331.061 38.8678 331.416 38.3736C331.771 37.8793 332.461 37.7669 332.955 38.1221L361.472 58.6562C361.967 59.0114 362.08 59.702 361.723 60.1962C361.368 60.6904 360.68 60.803 360.187 60.4477Z" fill="#FAFAFA"/>
<path d="M349.256 68.4476L329.38 53.8375C328.888 53.4756 328.783 52.7872 329.142 52.2952C329.503 51.8032 330.193 51.6973 330.682 52.0592L350.56 66.6693C351.05 67.029 351.155 67.7195 350.796 68.2115C350.437 68.7013 349.747 68.8073 349.256 68.4476" fill="#FAFAFA"/>
<path d="M340.754 99.4552L315.908 79.2035C315.434 78.8174 315.364 78.1246 315.747 77.6503C316.133 77.1781 316.827 77.1075 317.299 77.4914L342.144 97.7453C342.616 98.1292 342.688 98.8242 342.303 99.2963C341.919 99.7685 341.225 99.8391 340.754 99.4552" fill="#FAFAFA"/>
<path d="M340.2 83.5676L323.989 72.1632C323.491 71.8124 323.372 71.1262 323.723 70.6276C324.073 70.129 324.758 70.0076 325.256 70.3584L341.468 81.7628C341.966 82.1136 342.085 82.7998 341.734 83.3006C341.386 83.797 340.698 83.9184 340.2 83.5676" fill="#FAFAFA"/>
<path d="M488.553 383.934L489.142 383.546C494.69 391.97 503.884 396.536 513.264 396.538C518.717 396.538 524.227 394.995 529.121 391.764C537.538 386.21 542.099 377.005 542.1 367.614C542.099 362.156 540.558 356.641 537.332 351.739C531.784 343.315 522.59 338.747 513.21 338.746C507.757 338.747 502.247 340.291 497.352 343.521C488.937 349.075 484.376 358.28 484.374 367.671C484.375 373.129 485.916 378.645 489.142 383.546L488.553 383.934L487.964 384.323C484.582 379.187 482.962 373.395 482.963 367.671C482.962 357.825 487.75 348.165 496.576 342.341C501.705 338.955 507.491 337.333 513.21 337.334C523.044 337.333 532.692 342.126 538.511 350.962C541.892 356.098 543.512 361.891 543.512 367.614C543.512 377.459 538.724 387.12 529.898 392.944C524.768 396.33 518.982 397.951 513.264 397.951C503.43 397.952 493.782 393.159 487.964 384.323L488.553 383.934" fill="#FAFAFA"/>
<path d="M541.977 373.028C548.915 371.03 554.629 368.868 558.564 366.761C560.53 365.709 562.05 364.669 563.042 363.704C564.045 362.736 564.469 361.877 564.46 361.222L564.443 360.982C564.395 360.663 564.257 360.354 563.991 360.027C563.528 359.457 562.65 358.868 561.389 358.356C557.599 356.802 550.522 355.94 541.511 355.947C532.53 355.947 521.602 356.779 509.911 358.51C495.397 360.66 482.405 363.796 473.08 367.137C468.419 368.804 464.673 370.527 462.137 372.173C460.87 372.995 459.909 373.797 459.29 374.534C458.667 375.273 458.409 375.916 458.411 376.441L458.429 376.682C458.477 377.001 458.615 377.309 458.881 377.636C459.344 378.207 460.222 378.794 461.483 379.306C465.273 380.861 472.35 381.723 481.363 381.716C483.334 381.716 485.399 381.676 487.546 381.596C487.936 381.581 488.264 381.885 488.278 382.275C488.293 382.665 487.989 382.993 487.599 383.007C485.436 383.089 483.353 383.129 481.363 383.129C474.423 383.129 468.614 382.641 464.413 381.673C462.312 381.187 460.61 380.585 459.346 379.825C458.715 379.443 458.19 379.019 457.791 378.533C457.391 378.048 457.121 377.49 457.032 376.888C457.011 376.74 457 376.591 457 376.441C457.003 375.452 457.462 374.511 458.211 373.622C459.53 372.066 461.792 370.554 464.859 369.029C474.05 364.48 490.549 359.953 509.705 357.112C521.457 355.371 532.444 354.533 541.511 354.533C548.45 354.535 554.259 355.022 558.459 355.99C560.56 356.477 562.262 357.079 563.526 357.839C564.157 358.22 564.682 358.643 565.081 359.131C565.481 359.615 565.751 360.174 565.84 360.774C565.862 360.923 565.872 361.072 565.872 361.222C565.864 362.469 565.156 363.618 564.025 364.72C562.314 366.373 559.534 368.01 555.859 369.641C552.185 371.268 547.618 372.874 542.368 374.387C541.993 374.494 541.602 374.278 541.495 373.903C541.386 373.527 541.603 373.136 541.977 373.028" fill="#FAFAFA"/>
<path d="M479.197 335.076C480.674 337.319 483.689 337.939 485.93 336.459C488.171 334.981 488.791 331.962 487.313 329.719C485.836 327.475 482.821 326.855 480.58 328.335C478.339 329.814 477.72 332.833 479.197 335.076" fill="#FAFAFA"/>
<path d="M495.279 409.537C496.756 411.781 499.77 412.4 502.012 410.922C504.253 409.444 504.872 406.425 503.395 404.181C501.917 401.936 498.903 401.317 496.662 402.797C494.421 404.275 493.801 407.294 495.279 409.537Z" fill="#FAFAFA"/>
<path d="M521.214 359.042C522.692 361.284 525.707 361.905 527.947 360.425C530.189 358.945 530.808 355.928 529.33 353.685C527.853 351.441 524.838 350.821 522.597 352.3C520.356 353.78 519.737 356.797 521.214 359.042Z" fill="#FAFAFA"/>
<path d="M537.787 351.933C542.051 344.228 545.472 337.193 547.821 331.37C550.172 325.558 551.436 320.921 551.428 318.178C551.428 317.447 551.338 316.86 551.187 316.439C551.032 316.015 550.836 315.771 550.603 315.618H550.602C550.401 315.488 550.155 315.415 549.806 315.413C549.217 315.408 548.353 315.662 547.312 316.215C543.638 318.142 537.921 323.556 531.356 331.324C524.779 339.095 517.301 349.232 509.901 360.672C502.282 372.45 495.957 383.738 491.544 393.085C489.338 397.759 487.61 401.948 486.438 405.461C485.265 408.97 484.656 411.818 484.66 413.727C484.659 414.458 484.749 415.046 484.901 415.465C485.055 415.889 485.251 416.134 485.485 416.288C485.686 416.416 485.932 416.491 486.281 416.493C487.033 416.501 488.223 416.077 489.669 415.176C494.034 412.483 500.674 405.754 508.144 396.435C508.389 396.131 508.833 396.081 509.137 396.326C509.441 396.57 509.489 397.015 509.245 397.319C504.226 403.573 499.592 408.675 495.691 412.236C493.739 414.017 491.971 415.412 490.411 416.378C488.847 417.338 487.5 417.896 486.281 417.906C485.72 417.907 485.177 417.773 484.717 417.474C484.175 417.123 483.798 416.578 483.572 415.943C483.345 415.306 483.249 414.568 483.248 413.727C483.252 411.537 483.905 408.605 485.1 405.013C488.689 394.26 497.243 377.645 508.716 359.905C517.207 346.777 525.799 335.358 533.063 327.201C536.697 323.121 539.996 319.858 542.806 317.593C544.212 316.461 545.495 315.577 546.653 314.965C547.813 314.356 548.847 314.004 549.806 314C550.367 313.999 550.911 314.133 551.37 314.431H551.37C551.912 314.782 552.29 315.327 552.515 315.962C552.742 316.599 552.838 317.337 552.839 318.178C552.83 321.308 551.505 325.996 549.13 331.9C546.751 337.796 543.308 344.872 539.022 352.618C538.833 352.959 538.403 353.083 538.062 352.894C537.721 352.705 537.598 352.275 537.787 351.933" fill="#FAFAFA"/>
<path d="M505.263 339.458C500.78 334.191 496.593 329.927 493.048 327C491.276 325.538 489.664 324.41 488.273 323.661C486.884 322.908 485.714 322.547 484.882 322.553C484.4 322.554 484.04 322.66 483.744 322.854C483.413 323.073 483.148 323.416 482.949 323.961C482.753 324.5 482.642 325.231 482.642 326.124C482.63 330.019 484.743 336.824 488.554 345.108C492.362 353.403 497.849 363.229 504.536 373.385C512.082 384.845 519.847 394.734 526.514 401.736C529.846 405.236 532.906 408.016 535.506 409.9C538.097 411.794 540.261 412.751 541.592 412.732C542.074 412.729 542.435 412.623 542.73 412.43C543.06 412.211 543.326 411.867 543.525 411.323C543.722 410.783 543.832 410.053 543.831 409.159C543.835 406.908 543.134 403.656 541.792 399.725C540.452 395.789 538.479 391.16 535.966 386.084C535.793 385.734 535.936 385.31 536.285 385.137C536.634 384.963 537.058 385.106 537.231 385.457C539.765 390.575 541.761 395.253 543.128 399.268C544.494 403.286 545.24 406.631 545.243 409.159C545.242 410.166 545.124 411.049 544.852 411.805C544.582 412.558 544.137 413.196 543.507 413.61C542.95 413.979 542.288 414.147 541.592 414.145C539.668 414.126 537.391 412.998 534.678 411.045C526.585 405.167 514.746 391.447 503.358 374.163C496.635 363.954 491.117 354.075 487.271 345.698C483.43 337.309 481.243 330.47 481.231 326.124C481.231 325.118 481.349 324.235 481.622 323.479C481.892 322.725 482.337 322.088 482.967 321.674C483.524 321.305 484.186 321.137 484.882 321.14C486.093 321.144 487.434 321.606 488.943 322.416C493.449 324.857 499.547 330.573 506.338 338.542C506.59 338.839 506.555 339.284 506.258 339.537C505.962 339.792 505.516 339.755 505.263 339.458" fill="#FAFAFA"/>
<path d="M279.302 210.302V211.238H257.26C256.927 211.238 256.618 211.058 256.45 210.77L245.431 191.658C245.262 191.368 245.262 191.01 245.431 190.722L256.45 171.61C256.618 171.32 256.927 171.142 257.26 171.142H279.302C279.637 171.142 279.945 171.32 280.112 171.61L291.135 190.722C291.301 191.01 291.301 191.368 291.135 191.658L280.112 210.77C279.945 211.058 279.637 211.238 279.302 211.238V210.302L278.492 209.833L289.245 191.19L278.763 173.015H257.8L247.32 191.19L257.8 209.365H279.302V210.302L278.492 209.833L279.302 210.302" fill="#FAFAFA"/>
<path d="M312.608 191.19V192.126H290.566C290.231 192.126 289.922 191.946 289.756 191.658L278.733 172.546C278.566 172.256 278.566 171.9 278.733 171.61L289.756 152.498C289.922 152.208 290.231 152.03 290.566 152.03H312.608C312.943 152.03 313.251 152.208 313.418 152.498L324.439 171.61C324.605 171.9 324.605 172.256 324.439 172.546L313.418 191.658C313.251 191.946 312.943 192.126 312.608 192.126V191.19L311.798 190.722L322.549 172.078L312.069 153.903H291.107L280.624 172.078L291.107 190.253H312.608V191.19L311.798 190.722L312.608 191.19" fill="#FAFAFA"/>
<path d="M279.302 172.078V173.015H257.26C256.927 173.015 256.618 172.837 256.45 172.546L245.431 153.435C245.262 153.144 245.262 152.788 245.431 152.498L256.45 133.387C256.618 133.098 256.927 132.918 257.26 132.918H279.302C279.637 132.918 279.945 133.098 280.112 133.387L291.135 152.498C291.301 152.788 291.301 153.144 291.135 153.435L280.112 172.546C279.945 172.837 279.637 173.015 279.302 173.015V172.078L278.492 171.61L289.245 152.966L278.763 134.791H257.8L247.32 152.966L257.8 171.142H279.302V172.078L278.492 171.61L279.302 172.078" fill="#FAFAFA"/>
<path d="M282.505 172.078C282.505 170.441 281.178 169.113 279.543 169.113C277.908 169.113 276.583 170.441 276.583 172.078C276.583 173.715 277.908 175.043 279.543 175.043C281.178 175.043 282.505 173.715 282.505 172.078Z" fill="#FAFAFA"/>
<path d="M328.532 131.963C328.532 130.326 327.206 129 325.573 129C323.937 129 322.611 130.326 322.611 131.963C322.611 133.6 323.937 134.928 325.573 134.928C327.206 134.928 328.532 133.6 328.532 131.963Z" fill="#FAFAFA"/>
<path d="M285.464 252.226C285.464 250.589 284.138 249.261 282.504 249.261C280.869 249.261 279.543 250.589 279.543 252.226C279.543 253.863 280.869 255.189 282.504 255.189C284.138 255.189 285.464 253.863 285.464 252.226Z" fill="#FAFAFA"/>
<path d="M318.529 233.114C318.529 231.477 317.203 230.149 315.567 230.149C313.932 230.149 312.608 231.477 312.608 233.114C312.608 234.751 313.932 236.077 315.567 236.077C317.203 236.077 318.529 234.751 318.529 233.114Z" fill="#FAFAFA"/>
<path d="M224.921 153.468C224.921 151.833 223.596 150.505 221.961 150.505C220.326 150.505 219 151.833 219 153.468C219 155.105 220.326 156.433 221.961 156.433C223.596 156.433 224.921 155.105 224.921 153.468Z" fill="#FAFAFA"/>
<path d="M296.712 233.114C296.712 231.477 295.385 230.149 293.75 230.149C292.117 230.149 290.79 231.477 290.79 233.114C290.79 234.751 292.117 236.077 293.75 236.077C295.385 236.077 296.712 234.751 296.712 233.114Z" fill="#FAFAFA"/>
<path d="M249.2 153.468C249.2 151.833 247.876 150.505 246.241 150.505C244.606 150.505 243.279 151.833 243.279 153.468C243.279 155.105 244.606 156.433 246.241 156.433C247.876 156.433 249.2 155.105 249.2 153.468Z" fill="#FAFAFA"/>
<path d="M282.505 210.301C282.505 208.664 281.178 207.337 279.543 207.337C277.908 207.337 276.583 208.664 276.583 210.301C276.583 211.938 277.908 213.264 279.543 213.264C281.178 213.264 282.505 211.938 282.505 210.301Z" fill="#FAFAFA"/>
<path d="M246.241 154.405H221.961C221.445 154.405 221.026 153.987 221.026 153.468C221.026 152.952 221.445 152.532 221.961 152.532H246.241C246.757 152.532 247.176 152.952 247.176 153.468C247.176 153.987 246.757 154.405 246.241 154.405Z" fill="#FAFAFA"/>
<path d="M280.338 209.805L294.543 232.618C294.818 233.058 294.684 233.635 294.246 233.908C293.806 234.182 293.23 234.049 292.957 233.609L278.75 210.796C278.477 210.358 278.611 209.779 279.049 209.505C279.487 209.232 280.065 209.367 280.338 209.805" fill="#FAFAFA"/>
<path d="M311.813 152.474L324.777 131.47C325.049 131.03 325.625 130.895 326.065 131.167C326.504 131.439 326.639 132.015 326.368 132.456L313.405 153.459C313.132 153.899 312.555 154.034 312.116 153.762C311.676 153.491 311.541 152.914 311.813 152.474" fill="#FAFAFA"/>
<path d="M281.694 251.758L292.715 232.646C292.882 232.356 293.191 232.178 293.526 232.178H315.567C316.084 232.178 316.503 232.597 316.503 233.114C316.503 233.631 316.084 234.051 315.567 234.051H294.066L283.315 252.694C283.056 253.142 282.486 253.295 282.037 253.037C281.59 252.778 281.436 252.205 281.694 251.758" fill="#FAFAFA"/>
<path d="M138.316 99.4105C134.862 87.6672 124.013 79.0924 111.165 79.0938C97.8813 79.0924 86.7345 88.2589 83.6891 100.615C83.6015 100.972 83.2416 101.19 82.8856 101.102C82.5297 101.014 82.3119 100.652 82.3995 100.296C85.5883 87.3561 97.2571 77.7655 111.165 77.7641C124.616 77.7655 135.974 86.7378 139.589 99.0342C139.693 99.3866 139.492 99.7563 139.14 99.86C138.788 99.9637 138.419 99.7629 138.316 99.4105" fill="#17282F"/>
<path d="M114.374 135.574C128.49 133.98 139.463 121.984 139.462 107.423C139.462 107.056 139.759 106.759 140.126 106.759C140.492 106.759 140.79 107.056 140.79 107.423C140.788 122.667 129.307 135.224 114.522 136.894C114.159 136.935 113.829 136.673 113.788 136.308C113.748 135.944 114.01 135.615 114.374 135.574" fill="#17282F"/>
<path d="M82.867 107.423C82.867 115.249 86.0332 122.327 91.1558 127.455C96.2783 132.584 103.349 135.753 111.165 135.753C111.532 135.753 111.829 136.051 111.829 136.418C111.829 136.785 111.532 137.083 111.165 137.083C94.8028 137.083 81.5389 123.804 81.5389 107.423C81.5389 107.056 81.8364 106.759 82.203 106.759C82.5696 106.759 82.867 107.056 82.867 107.423" fill="#17282F"/>
<path d="M80.4778 89.7003C77.6329 89.3347 75.0896 89.1485 72.9274 89.1485C70.5926 89.1472 68.6974 89.3693 67.368 89.7881C66.7026 89.9968 66.1833 90.2534 65.8168 90.534C65.4489 90.8159 65.235 91.1071 65.1221 91.4275C65.0637 91.5964 65.0345 91.7745 65.0345 91.9727C65.0318 92.4952 65.2603 93.1773 65.7809 93.9724C66.6854 95.3646 68.4424 97.0519 70.8968 98.8655C78.2678 104.321 91.8822 110.985 107.992 116.58C124.904 122.458 140.393 125.704 149.404 125.699C151.739 125.7 153.633 125.478 154.962 125.059C155.627 124.85 156.148 124.594 156.515 124.313C156.883 124.031 157.095 123.74 157.208 123.42C157.266 123.25 157.296 123.073 157.297 122.875C157.3 122.34 157.058 121.635 156.509 120.814C154.874 118.335 150.618 115.03 144.562 111.566C144.243 111.384 144.133 110.977 144.315 110.658C144.498 110.34 144.903 110.23 145.222 110.412C149.314 112.76 152.613 115.02 154.918 117.095C156.072 118.133 156.979 119.124 157.614 120.077C158.247 121.029 158.621 121.954 158.625 122.875C158.625 123.21 158.572 123.541 158.463 123.856C158.254 124.458 157.848 124.969 157.318 125.372C155.718 126.564 153.031 127.015 149.404 127.028C140.107 127.023 124.576 123.744 107.557 117.835C95.2105 113.546 84.3293 108.645 76.5054 104.086C72.5915 101.804 69.4425 99.6114 67.2418 97.5983C66.1408 96.5905 65.2762 95.6265 64.6693 94.6997C64.0663 93.7717 63.709 92.8688 63.7064 91.9727C63.7064 91.6376 63.7582 91.3065 63.8684 90.9914C64.0756 90.3891 64.482 89.8785 65.0119 89.4756C66.6136 88.2829 69.299 87.8322 72.9274 87.8189C75.1653 87.8189 77.7578 88.0104 80.6464 88.3813C81.0103 88.4279 81.268 88.7603 81.2215 89.1259C81.1737 89.4889 80.8417 89.7469 80.4778 89.7003Z" fill="#17282F"/>
<path d="M236.533 69.1668L237.13 69.4606L234.355 75.0903C234.258 75.2858 234.07 75.4227 233.854 75.4546L228.979 76.1633L232.506 79.6057C232.663 79.7573 232.735 79.9793 232.698 80.1934L231.865 85.0545L236.224 82.7596C236.416 82.6572 236.65 82.6572 236.843 82.7596L241.203 85.0545L240.37 80.1934C240.333 79.9793 240.406 79.7573 240.561 79.6057L244.087 76.1633L239.213 75.4546C238.998 75.4227 238.81 75.2858 238.714 75.0903L235.938 69.4606L236.533 69.1668L237.13 69.4606L236.533 69.1668L237.13 68.8716L239.75 74.1888L245.611 75.0411C245.86 75.0783 246.069 75.2539 246.146 75.4945C246.224 75.7338 246.159 75.9998 245.979 76.1753L241.738 80.3144L242.739 86.1581C242.782 86.4068 242.678 86.6594 242.475 86.8083C242.271 86.9559 241.998 86.9759 241.775 86.8589L236.533 84.0985L231.292 86.8589C231.069 86.9759 230.797 86.9559 230.594 86.8083C230.389 86.6594 230.287 86.4068 230.33 86.1581L231.33 80.3144L227.088 76.1753C226.908 75.9998 226.842 75.7338 226.92 75.4945C226.999 75.2539 227.207 75.077 227.457 75.0411L233.318 74.1888L235.938 68.8716C236.05 68.6456 236.281 68.502 236.533 68.502C236.786 68.502 237.018 68.6456 237.13 68.8716L236.533 69.1668" fill="#FAFAFA"/>
<path d="M452.343 42.4879H453.687C453.688 53.0781 458.146 62.6219 465.272 69.2902L465.278 69.2955C471.864 75.5254 480.72 79.3101 490.444 79.3101C491.641 79.3101 492.81 79.259 493.951 79.1568H493.945C501.592 78.4305 508.533 75.3694 514.083 70.697L514.087 70.6943C518.83 66.724 522.563 61.5594 524.789 55.6765L524.791 55.6685C526.371 51.569 527.227 47.1361 527.227 42.4879C527.226 32.3227 523.113 23.1313 516.456 16.4684C509.797 9.80545 500.61 5.68993 490.444 5.68993C484.736 5.68993 479.326 6.98642 474.48 9.34548L474.476 9.3481C468.93 12.0219 464.16 16.0433 460.611 20.9981L460.609 21.0008C456.254 27.0504 453.688 34.4639 453.687 42.4879H452.343H451C451 33.8855 453.757 25.9153 458.429 19.4273L458.427 19.43C462.239 14.1093 467.358 9.79469 473.31 6.92455L473.305 6.92718C478.509 4.39059 484.329 3.00001 490.444 3.00001C512.25 3.00001 529.912 20.6808 529.914 42.4879C529.914 47.4669 528.995 52.2334 527.298 56.6368L527.301 56.6288C524.906 62.9555 520.9 68.4967 515.81 72.7575L515.813 72.7548C509.862 77.7661 502.403 81.0532 494.199 81.836H494.191C492.969 81.9462 491.719 82 490.444 82C480.017 82.0027 470.495 77.9329 463.432 71.2511L463.438 71.2565C455.786 64.0986 451 53.842 451 42.4879H452.343" fill="#FAFAFA"/>
<path d="M458.462 49.3903H459.805C459.809 51.9054 461.843 53.9416 464.355 53.947C466.867 53.9416 468.902 51.9054 468.906 49.3903C468.902 46.8752 466.867 44.839 464.355 44.8363C461.842 44.839 459.809 46.8752 459.805 49.3903H458.462H457.118C457.119 45.3877 460.357 42.1464 464.355 42.1464C468.353 42.1464 471.592 45.3877 471.592 49.3903C471.592 53.3929 468.353 56.6342 464.355 56.6369C460.357 56.6342 457.119 53.3902 457.118 49.3903H458.462Z" fill="#FAFAFA"/>
<path d="M511.508 64.3838H512.851C512.852 66.9284 514.004 69.1853 515.808 70.6916L514.948 71.7246L514.087 70.6943C518.83 66.724 522.563 61.5594 524.789 55.6766L526.045 56.1527L525.334 57.2932C524.132 56.5427 522.687 56.1258 521.128 56.1258C516.548 56.1338 512.859 59.8271 512.851 64.3838H511.508H510.164C510.165 58.3369 515.068 53.4358 521.128 53.4358C523.167 53.4358 525.111 53.9846 526.754 55.0095C527.299 55.3484 527.528 56.0263 527.301 56.6288C524.906 62.9555 520.9 68.4967 515.81 72.7575C515.312 73.1745 514.587 73.1745 514.088 72.7602C511.7 70.7697 510.164 67.7542 510.164 64.3838H511.508Z" fill="#FAFAFA"/>
<path d="M464.355 70.2747L465.278 69.2955C471.864 75.5254 480.72 79.3101 490.444 79.3101C491.641 79.3101 492.81 79.259 493.951 79.1568L494.072 80.4964L492.757 80.2193C492.953 79.2886 493.051 78.3336 493.051 77.3491C493.051 73.3304 491.429 69.699 488.801 67.0602C486.172 64.4241 482.553 62.7967 478.541 62.7967C472.835 62.7967 467.922 66.0946 465.559 70.8692L464.355 70.2747L465.278 69.2955L464.355 70.2747L463.151 69.6776C465.946 64.0153 471.781 60.1068 478.541 60.1068C488.046 60.1068 495.736 67.8376 495.737 77.3491C495.737 78.5139 495.621 79.6571 495.386 80.7734C495.264 81.3545 494.781 81.7822 494.191 81.836C492.969 81.9462 491.719 82 490.444 82C480.017 82.0027 470.495 77.9329 463.432 71.2511C463.005 70.8449 462.89 70.2048 463.151 69.6776L464.355 70.2747Z" fill="#FAFAFA"/>
<path d="M490.916 18.5853H492.259C492.268 22.6901 495.584 26.0122 499.685 26.0175C503.785 26.0122 507.102 22.6901 507.109 18.5853C507.102 14.4805 503.785 11.1584 499.685 11.153C495.584 11.1584 492.268 14.4805 492.259 18.5853H490.916H489.573C489.573 12.9929 494.099 8.46309 499.685 8.46309C505.27 8.46309 509.795 12.9929 509.796 18.5853C509.795 24.1749 505.27 28.7074 499.685 28.7074C494.099 28.7074 489.573 24.1749 489.573 18.5853H490.916" fill="#FAFAFA"/>
<path d="M491.573 43.4913H492.916C492.918 44.9896 494.13 46.2028 495.629 46.2055C497.126 46.2028 498.339 44.9869 498.341 43.4913C498.339 41.9904 497.126 40.7772 495.629 40.7745C494.13 40.7772 492.918 41.9904 492.916 43.4913H491.573H490.229C490.229 40.5028 492.645 38.0846 495.629 38.0846C498.611 38.0846 501.027 40.5028 501.028 43.4913C501.027 46.4771 498.61 48.8954 495.629 48.8954C492.646 48.8954 490.229 46.4744 490.229 43.4913H491.573Z" fill="#FAFAFA"/>
<path d="M459.52 20.2154L459.954 18.9404C460.807 19.2336 461.793 19.3815 462.824 19.3815C468.26 19.3788 472.629 14.9862 472.631 9.53644C472.631 9.10337 472.606 8.69985 472.558 8.29367L473.892 8.13764L474.476 9.3481C468.93 12.0219 464.16 16.0433 460.611 20.9981L459.52 20.2154L459.954 18.9404L459.52 20.2154L458.427 19.4299C462.239 14.1093 467.358 9.79468 473.31 6.92455C473.702 6.73356 474.158 6.74705 474.54 6.95686C474.922 7.16667 475.176 7.5459 475.227 7.97897C475.287 8.48737 475.318 9.00115 475.318 9.53644C475.319 12.993 473.925 16.1348 471.668 18.3997C469.414 20.6673 466.279 22.0714 462.824 22.0714C461.543 22.0714 460.272 21.8939 459.085 21.4877C458.681 21.3478 458.369 21.0304 458.239 20.6243C458.11 20.2181 458.18 19.7769 458.427 19.4299L459.52 20.2154" fill="#FAFAFA"/>
<path d="M17.022 270.567L16.7523 269.96C18.6701 269.106 19.8084 267.223 19.8084 265.249C19.8084 264.551 19.6662 263.841 19.3634 263.159C18.5108 261.24 16.6288 260.101 14.6579 260.101C13.9606 260.101 13.2528 260.243 12.5702 260.546C10.6537 261.4 9.5155 263.282 9.5155 265.256C9.5155 265.955 9.65755 266.664 9.96036 267.346C10.813 269.266 12.6937 270.405 14.6646 270.405C15.3632 270.405 16.071 270.263 16.7523 269.96L17.022 270.567L17.2916 271.174C16.4389 271.554 15.5438 271.735 14.6646 271.735C12.185 271.736 9.8196 270.3 8.74781 267.887C8.36797 267.032 8.18739 266.136 8.18739 265.256C8.18606 262.774 9.62041 260.405 12.0309 259.332C12.8836 258.952 13.7787 258.771 14.6579 258.771C17.1375 258.77 19.5029 260.206 20.576 262.619C20.9558 263.472 21.1365 264.369 21.1365 265.249C21.1378 267.731 19.7034 270.099 17.2916 271.175L17.022 270.567ZM3.13389 273.124L2.52697 273.396L0.494919 268.822C0.354139 268.506 0.479033 268.137 0.780514 267.969L4.0729 266.152L4.39294 266.733L3.73556 266.828C3.65853 266.297 3.62 265.763 3.62 265.233C3.62 264.902 3.63459 264.571 3.66513 264.242L4.32653 264.304L4.03704 264.902L0.659636 263.257C0.348858 263.106 0.206753 262.743 0.330267 262.421L2.12322 257.748C2.24673 257.427 2.59603 257.252 2.92806 257.348L6.53516 258.391L6.3519 259.029L5.81936 258.631C6.33334 257.943 6.93097 257.315 7.60167 256.758L8.02533 257.268L7.39843 257.487L6.16993 253.93C6.05704 253.604 6.21249 253.245 6.52725 253.105L11.0959 251.071C11.4107 250.93 11.7799 251.055 11.9472 251.357L13.7641 254.65L13.1824 254.972L13.0881 254.314C13.6193 254.237 14.1532 254.198 14.6831 254.198C15.0138 254.198 15.3432 254.213 15.6712 254.245L15.6089 254.906L15.0125 254.616L16.6554 251.235C16.8068 250.925 17.1694 250.781 17.4908 250.905L22.1577 252.701C22.4791 252.825 22.6531 253.175 22.5575 253.506L21.5163 257.117L20.8775 256.933L21.2746 256.4C21.9626 256.915 22.5894 257.513 23.1472 258.185L22.6359 258.609L22.4194 257.981L25.9721 256.753C26.2975 256.64 26.6561 256.795 26.7955 257.11L28.8275 261.683C28.9683 261.998 28.8435 262.369 28.542 262.535L25.2522 264.354L24.9308 263.773L25.5883 263.679C25.664 264.21 25.7038 264.745 25.7038 265.277C25.7038 265.607 25.6892 265.935 25.6587 266.263L24.9973 266.202L25.2881 265.604L28.6641 267.25C28.9736 267.4 29.1171 267.763 28.9922 268.086L27.1993 272.757C27.0758 273.08 26.7265 273.253 26.3944 273.158L22.7886 272.115L22.9719 271.477L23.5045 271.874C22.9905 272.563 22.3915 273.191 21.7221 273.748L21.2985 273.236L21.9254 273.019L23.1525 276.577C23.2654 276.903 23.11 277.261 22.7952 277.402L18.2266 279.435C17.9118 279.576 17.5426 279.451 17.3752 279.149L15.5584 275.855L16.1401 275.534L16.2344 276.192C15.7045 276.269 15.1706 276.307 14.6407 276.307C14.31 276.307 13.9806 276.291 13.6525 276.262L13.7136 275.6L14.3099 275.891L12.6671 279.271C12.5157 279.581 12.1531 279.725 11.8317 279.601L7.16472 277.805C6.84331 277.681 6.66936 277.331 6.76499 277L7.8062 273.388L8.44503 273.572L8.0479 274.106C7.35994 273.591 6.73306 272.993 6.17525 272.322L6.68658 271.897L6.90305 272.525L3.35036 273.753C3.02497 273.866 2.66775 273.711 2.52697 273.396L3.13389 273.124L2.91742 272.497L6.46876 271.268C6.73039 271.178 7.01998 271.259 7.19662 271.472C7.68935 272.065 8.24047 272.591 8.8421 273.039C9.0639 273.205 9.15953 273.49 9.0825 273.757L8.20996 276.783L11.7401 278.141L13.116 275.309C13.2368 275.06 13.4985 274.913 13.7747 274.938C14.0616 274.964 14.3498 274.978 14.6407 274.978C15.1068 274.978 15.5756 274.943 16.0444 274.875C16.318 274.836 16.5877 274.97 16.7218 275.212L18.2438 277.972L21.6983 276.434L20.6703 273.454C20.58 273.192 20.661 272.902 20.8735 272.725C21.4645 272.232 21.9917 271.68 22.4406 271.079C22.6053 270.857 22.8909 270.762 23.1565 270.837L26.1779 271.711L27.534 268.178L24.7064 266.801C24.4581 266.678 24.3106 266.416 24.3359 266.141C24.3624 265.854 24.3757 265.567 24.3757 265.277C24.3757 264.809 24.3412 264.339 24.2734 263.867C24.2336 263.594 24.3677 263.325 24.6095 263.191L27.3666 261.667L25.83 258.208L22.8537 259.238C22.592 259.328 22.3025 259.247 22.1259 259.034C21.6331 258.441 21.082 257.915 20.4803 257.465C20.2585 257.3 20.163 257.014 20.24 256.749L21.1125 253.724L17.5838 252.365L16.2065 255.197C16.0856 255.446 15.8227 255.594 15.5478 255.568C15.2622 255.541 14.9727 255.528 14.6831 255.528C14.2183 255.528 13.7481 255.563 13.278 255.63C13.0044 255.67 12.7348 255.536 12.602 255.294L11.0787 252.534L7.62424 254.072L8.65352 257.052C8.74383 257.314 8.66285 257.602 8.45035 257.78C7.85801 258.274 7.33204 258.824 6.88314 259.426C6.71846 259.648 6.43296 259.744 6.16734 259.667L3.14452 258.795L1.78853 262.328L4.61738 263.707C4.86573 263.828 5.01449 264.089 4.98793 264.366C4.96136 264.653 4.94811 264.942 4.94811 265.233C4.94811 265.698 4.98264 266.168 5.05038 266.637C5.09022 266.912 4.95604 267.181 4.71433 267.315L1.95584 268.839L3.74088 272.854L3.13389 273.124L2.91742 272.497L3.13389 273.124" fill="#17282F"/>
<path d="M46.2656 293.119L45.996 292.512C48.6894 291.314 50.2871 288.67 50.2884 285.898C50.2884 284.917 50.0879 283.92 49.6616 282.964C48.4649 280.267 45.8233 278.668 43.0556 278.666C42.0741 278.666 41.0793 278.867 40.1244 279.292C37.431 280.492 35.8333 283.135 35.832 285.906C35.832 286.889 36.0326 287.886 36.4575 288.843C37.6542 291.538 40.2958 293.138 43.0635 293.139C44.045 293.138 45.0397 292.938 45.996 292.512L46.2656 293.119L46.5365 293.727C45.409 294.23 44.2256 294.469 43.0635 294.469C39.7884 294.469 36.6621 292.573 35.245 289.383C34.7429 288.254 34.5039 287.069 34.5039 285.906C34.5039 282.627 36.3978 279.497 39.5839 278.078C40.7115 277.576 41.8935 277.337 43.0556 277.337C46.3307 277.337 49.4584 279.233 50.8755 282.422C51.3775 283.551 51.6165 284.736 51.6165 285.898C51.6165 289.178 49.7227 292.308 46.5365 293.727L46.2656 293.119ZM27.4038 296.594L26.7969 296.865L24.0371 290.654C23.8976 290.339 24.0211 289.968 24.3226 289.802L28.7931 287.33L29.1131 287.912L28.457 288.008C28.3534 287.297 28.3016 286.585 28.3016 285.875C28.3016 285.433 28.3229 284.991 28.3627 284.551L29.0241 284.614L28.7333 285.211L24.1473 282.978C23.8379 282.827 23.6944 282.464 23.8179 282.142L26.2537 275.796C26.3772 275.474 26.7265 275.3 27.0585 275.395L31.9579 276.811L31.7733 277.45L31.2421 277.052C31.9274 276.133 32.7269 275.294 33.6234 274.548L34.047 275.06L33.4202 275.277L31.7534 270.445C31.6405 270.119 31.7959 269.762 32.1107 269.621L38.3142 266.859C38.629 266.718 38.9982 266.843 39.1655 267.145L41.6332 271.619L41.0528 271.94L40.9572 271.281C41.6677 271.179 42.3796 271.127 43.0888 271.127C43.5297 271.127 43.9706 271.148 44.4089 271.188L44.3478 271.851L43.7502 271.559L45.9814 266.969C46.1328 266.658 46.4954 266.516 46.8168 266.64L53.1558 269.078C53.4772 269.202 53.6512 269.552 53.5556 269.883L52.1411 274.788L51.5037 274.603L51.9008 274.071C52.8198 274.757 53.6565 275.558 54.4016 276.455L53.8916 276.88L53.6738 276.252L58.4988 274.583C58.8242 274.47 59.1828 274.625 59.3222 274.942L62.082 281.151C62.2228 281.468 62.098 281.837 61.7965 282.004L57.3274 284.474L57.006 283.893L57.6634 283.797C57.767 284.509 57.8188 285.22 57.8188 285.93C57.8188 286.373 57.7975 286.814 57.7577 287.253L57.0963 287.192L57.3858 286.593L61.9731 288.829C62.2826 288.979 62.426 289.342 62.3025 289.665L59.8668 296.01C59.7432 296.332 59.3939 296.506 59.0619 296.41L54.1625 294.994L54.3458 294.356L54.8784 294.753C54.1931 295.674 53.3936 296.511 52.4971 297.257L52.0721 296.747L52.7003 296.528L54.367 301.359C54.4799 301.685 54.3246 302.044 54.0098 302.183L47.8062 304.946C47.4914 305.087 47.1209 304.962 46.9549 304.66L44.4859 300.186L45.0676 299.865L45.1633 300.523C44.4528 300.625 43.7422 300.678 43.033 300.678C42.5907 300.678 42.1498 300.657 41.7102 300.617L41.7726 299.955L42.369 300.245L40.1391 304.837C39.9877 305.147 39.6251 305.291 39.3037 305.167L32.9646 302.729C32.6432 302.604 32.4692 302.255 32.5649 301.923L33.9793 297.018L34.6168 297.201L34.2197 297.734C33.3006 297.048 32.4639 296.248 31.7188 295.35L32.2288 294.925L32.4453 295.554L27.6217 297.223C27.2949 297.336 26.9377 297.18 26.7969 296.865L27.4038 296.594L27.1874 295.966L32.0124 294.297C32.274 294.207 32.5622 294.288 32.7389 294.501C33.4202 295.32 34.1812 296.047 35.0139 296.669C35.2357 296.834 35.3313 297.12 35.2543 297.386L34.0098 301.706L39.2107 303.707L41.175 299.664C41.2958 299.415 41.5575 299.267 41.8337 299.293C42.2308 299.33 42.6319 299.349 43.033 299.349C43.6771 299.349 44.3239 299.301 44.9733 299.206C45.2469 299.168 45.5152 299.301 45.6494 299.544L47.8221 303.484L52.9128 301.217L51.4452 296.963C51.3549 296.701 51.4359 296.413 51.6484 296.235C52.4665 295.553 53.193 294.791 53.8146 293.958C53.9792 293.736 54.2648 293.641 54.5304 293.716L58.8454 294.963L60.8442 289.757L56.8055 287.79C56.5571 287.669 56.4097 287.406 56.4349 287.131C56.4721 286.732 56.4907 286.332 56.4907 285.93C56.4907 285.285 56.4429 284.638 56.3486 283.987C56.3101 283.713 56.4429 283.445 56.6859 283.311L60.6211 281.135L58.3567 276.039L54.1081 277.508C53.8464 277.598 53.5569 277.519 53.3803 277.305C52.6989 276.484 51.938 275.758 51.1066 275.136C50.8848 274.97 50.7891 274.685 50.8648 274.419L52.1106 270.101L46.9097 268.1L44.9455 272.142C44.8246 272.39 44.5616 272.538 44.2867 272.513C43.8896 272.475 43.4899 272.457 43.0888 272.457C42.4446 272.457 41.7965 272.505 41.1471 272.598C40.8735 272.638 40.6052 272.503 40.4711 272.261L38.297 268.322L33.2077 270.589L34.6752 274.842C34.7655 275.104 34.6845 275.394 34.472 275.571C33.6539 276.252 32.9274 277.015 32.3059 277.848C32.1399 278.069 31.8556 278.166 31.59 278.089L27.275 276.842L25.2762 282.049L29.315 284.015C29.5633 284.136 29.7108 284.398 29.6855 284.675C29.6483 285.072 29.6297 285.474 29.6297 285.875C29.6297 286.52 29.6776 287.169 29.7705 287.818C29.8104 288.092 29.6762 288.361 29.4345 288.495L25.498 290.67L28.0108 296.324L27.4038 296.594L27.1874 295.966L27.4038 296.594" fill="#17282F"/>
</svg>
