<svg width="566" height="581" viewBox="0 0 566 581" fill="none" xmlns="http://www.w3.org/2000/svg">
<path d="M67.57 525.43C74.69 531.36 129.525 569.04 207.78 562.968C211.99 527.307 228.047 380.795 209.784 357.833C209.784 357.833 165.478 336.678 124.667 345.56C83.8526 354.442 67.9684 362.952 65.0611 370.318C62.8565 375.889 66.0041 479.624 67.57 525.43Z" fill="#0020A2"/>
<path d="M126.02 361.21C149.528 381.593 179.808 377.285 179.144 361.635C179.038 359.189 176.422 356.157 176.422 356.157C176.422 356.157 176.767 355.639 177.339 354.748C178.216 353.418 179.636 351.251 181.284 348.724C184.193 344.217 187.83 338.553 190.367 334.431C192.493 330.921 139.514 298.292 139.514 317.053C139.514 343.486 126.553 348.459 126.553 348.459C121.704 350.426 117.161 353.538 126.02 361.21Z" fill="white"/>
<path d="M126.02 361.21L126.456 360.707C137.462 370.254 149.967 374.311 159.953 374.309C165.394 374.311 170.077 373.102 173.347 370.979C176.617 368.843 178.483 365.874 178.491 362.139C178.491 361.982 178.488 361.824 178.482 361.664C178.447 360.662 177.825 359.346 177.181 358.332C176.861 357.823 176.542 357.383 176.306 357.073C176.187 356.919 176.088 356.797 176.021 356.714L175.92 356.592C175.724 356.366 175.703 356.039 175.869 355.789C175.87 355.788 176.21 355.276 176.78 354.387L176.786 354.381C177.661 353.052 179.081 350.887 180.727 348.362L180.726 348.364C183.633 343.858 187.271 338.195 189.802 334.083L189.8 334.087L189.971 334.192H189.765L189.8 334.087L189.971 334.192H189.765L189.761 334.168C189.747 334.083 189.624 333.829 189.38 333.516C188.462 332.313 186.019 330.275 182.741 328.005C177.816 324.584 170.963 320.551 164.178 317.386C157.4 314.217 150.654 311.93 146.093 311.94C144.179 311.938 142.69 312.338 141.722 313.128C140.758 313.917 140.187 315.113 140.178 317.053C140.18 330.376 136.905 338.381 133.574 343.054C130.243 347.729 126.879 349.046 126.79 349.08L126.552 348.459L126.801 349.076C125.409 349.638 124.068 350.296 123.123 351.079C122.174 351.874 121.648 352.713 121.644 353.777C121.642 354.538 121.925 355.476 122.68 356.633C123.431 357.789 124.651 359.145 126.454 360.707L126.02 361.21L125.586 361.712C123.718 360.094 122.418 358.664 121.567 357.36C120.718 356.06 120.316 354.873 120.316 353.777C120.312 352.219 121.151 350.976 122.279 350.054C123.41 349.121 124.856 348.432 126.303 347.843L126.315 347.838L126.335 347.83C126.624 347.707 129.736 346.34 132.788 341.858C135.839 337.373 138.848 329.753 138.849 317.053C138.841 314.853 139.56 313.16 140.887 312.095C142.207 311.029 144.009 310.612 146.093 310.611C149.685 310.615 154.224 311.855 159.069 313.742C166.331 316.577 174.255 320.89 180.39 324.836C183.457 326.811 186.074 328.691 187.944 330.263C188.881 331.05 189.63 331.756 190.166 332.379C190.434 332.692 190.651 332.983 190.812 333.27C190.97 333.559 191.089 333.845 191.093 334.192C191.095 334.38 191.047 334.593 190.935 334.777L190.933 334.781C188.391 338.911 184.752 344.576 181.842 349.086L181.839 349.089C180.192 351.615 178.771 353.782 177.893 355.113L177.339 354.748L177.897 355.107C177.323 356.002 176.977 356.523 176.975 356.525L176.422 356.157L176.925 355.722C176.938 355.74 177.61 356.517 178.306 357.625C178.997 358.739 179.735 360.162 179.808 361.607C179.816 361.785 179.819 361.962 179.819 362.139C179.828 366.35 177.63 369.798 174.068 372.094C170.506 374.401 165.588 375.636 159.953 375.639C149.615 375.636 136.833 371.461 125.586 361.712L126.02 361.21Z" fill="#17282F"/>
<path d="M111.803 401.393C111.805 401.402 112.581 404.069 113.359 407.562C114.136 411.06 114.92 415.371 114.922 418.74C114.917 420.345 114.755 421.739 114.249 422.802C114.09 423.133 113.693 423.272 113.362 423.112C113.032 422.953 112.893 422.555 113.054 422.224C113.411 421.497 113.598 420.243 113.594 418.74C113.596 415.569 112.833 411.3 112.063 407.852C111.679 406.126 111.294 404.602 111.006 403.511C110.718 402.419 110.528 401.767 110.528 401.765C110.424 401.412 110.627 401.044 110.979 400.94C111.331 400.838 111.699 401.04 111.803 401.393Z" fill="white"/>
<path d="M117.361 354.317C117.357 356.838 118.692 359.445 121.085 361.948C124.664 365.699 130.562 369.136 137.276 371.605C143.989 374.077 151.521 375.592 158.363 375.591C166.064 375.595 172.84 373.667 176.698 369.217C176.94 368.94 177.359 368.911 177.636 369.153C177.912 369.394 177.941 369.814 177.699 370.09C173.429 374.979 166.26 376.917 158.363 376.921C148.982 376.918 138.494 374.175 130.29 370.024C126.189 367.946 122.659 365.518 120.125 362.866C117.596 360.221 116.037 357.323 116.033 354.317C116.033 353.95 116.33 353.652 116.697 353.652C117.063 353.652 117.361 353.95 117.361 354.317Z" fill="white"/>
<path d="M155.185 336.199C155.185 336.199 158.334 348.028 172.915 357.277C172.915 357.277 173.659 355.654 176.064 354.788C176.488 354.635 176.939 354.774 177.339 354.748C178.216 353.418 179.636 351.251 181.284 348.724C173.832 343.313 155.185 336.199 155.185 336.199Z" fill="#17282F"/>
<path d="M148.63 321.656C148.63 321.656 148.781 333.333 151.249 335.702C169.781 353.498 187.894 354.903 190.884 350.21C211.002 318.626 206.246 310.295 208.298 304.918C211.922 295.42 216.37 279.92 214.408 270.53C210.028 249.555 170.55 233.35 149.804 254.382C139.844 264.479 136.695 286.381 138.799 304.621" fill="white"/>
<path d="M149.294 321.648C149.294 321.649 149.303 322.365 149.355 323.487C149.433 325.169 149.61 327.754 149.991 330.111C150.181 331.288 150.424 332.41 150.721 333.319C151.014 334.23 151.384 334.923 151.708 335.223C164.465 347.483 177.019 351.854 184.316 351.845C185.92 351.847 187.264 351.634 188.28 351.272C189.302 350.909 189.976 350.403 190.323 349.852C200.357 334.1 204.159 324.192 205.72 317.583C206.499 314.276 206.721 311.794 206.878 309.77C207.039 307.751 207.116 306.167 207.677 304.682C210.674 296.84 214.23 284.829 214.224 275.761C214.225 273.917 214.078 272.196 213.759 270.666C212.348 263.882 207.07 257.499 199.848 252.832C192.631 248.163 183.499 245.222 174.515 245.225C165.665 245.227 156.98 248.057 150.277 254.85C146.381 258.795 143.506 264.676 141.624 271.49C139.739 278.302 138.843 286.038 138.844 293.668C138.844 297.357 139.053 301.021 139.459 304.545C139.502 304.909 139.24 305.24 138.876 305.282C138.511 305.324 138.181 305.062 138.14 304.698C137.727 301.121 137.516 297.407 137.516 293.668C137.516 285.934 138.421 278.092 140.344 271.135C142.269 264.18 145.206 258.102 149.332 253.915C156.314 246.834 165.389 243.891 174.515 243.895C183.789 243.896 193.137 246.912 200.568 251.715C207.993 256.52 213.533 263.122 215.058 270.395C215.402 272.039 215.552 273.846 215.552 275.761C215.545 285.155 211.943 297.212 208.918 305.155C208.454 306.36 208.357 307.832 208.202 309.874C207.967 312.934 207.562 317.203 205.32 323.636C203.079 330.072 199.008 338.691 191.444 350.566C190.877 351.452 189.93 352.095 188.725 352.525C187.518 352.953 186.036 353.175 184.316 353.175C176.529 353.165 163.761 348.627 150.789 336.182C149.995 335.398 149.539 334.149 149.154 332.672C148.043 328.256 147.968 321.69 147.966 321.665C147.96 321.297 148.254 320.996 148.62 320.991C148.987 320.986 149.288 321.28 149.294 321.648Z" fill="#17282F"/>
<path d="M205.517 294.543C205.559 294.533 207.748 293.521 209.874 293.51C210.512 293.512 211.159 293.603 211.748 293.889C212.337 294.171 212.855 294.678 213.135 295.381C213.272 295.721 213.108 296.11 212.768 296.247C212.428 296.385 212.04 296.22 211.904 295.88C211.734 295.475 211.501 295.253 211.167 295.084C210.832 294.92 210.38 294.838 209.874 294.84C209.027 294.837 208.055 295.063 207.311 295.297C206.938 295.413 206.62 295.53 206.4 295.616L206.144 295.72L206.061 295.757C205.727 295.908 205.333 295.757 205.183 295.422C205.032 295.087 205.182 294.694 205.517 294.543Z" fill="#17282F"/>
<path d="M192.1 295.892C192.1 295.892 192.04 295.866 191.915 295.818C191.04 295.473 187.166 294.069 183.279 294.074C180.575 294.075 177.936 294.737 176.163 296.749C175.92 297.024 175.5 297.05 175.225 296.806C174.95 296.563 174.925 296.143 175.168 295.868C177.303 293.457 180.381 292.743 183.279 292.744C188.069 292.751 192.571 294.652 192.614 294.666C192.951 294.808 193.111 295.196 192.97 295.535C192.828 295.874 192.439 296.034 192.1 295.892Z" fill="#17282F"/>
<path d="M179.62 303.512C179.431 305.243 180.276 306.755 181.505 306.889C182.734 307.023 183.885 305.728 184.073 304C184.261 302.269 183.418 300.757 182.188 300.624C180.957 300.488 179.808 301.782 179.62 303.512Z" fill="#17282F"/>
<path d="M202.17 304.036C201.981 305.767 202.825 307.279 204.055 307.412C205.284 307.547 206.434 306.252 206.623 304.522C206.812 302.792 205.967 301.281 204.738 301.145C203.507 301.012 202.359 302.304 202.17 304.036Z" fill="#17282F"/>
<path d="M201.593 299.494C199.985 302.086 200.866 306.509 202.981 312.58C205.098 318.648 203.234 320.854 195.086 321.466" fill="white"/>
<path d="M202.157 299.845C201.672 300.626 201.429 301.644 201.429 302.936C201.425 305.283 202.25 308.473 203.61 312.36C204.146 313.906 204.449 315.235 204.452 316.417C204.452 317.311 204.27 318.128 203.865 318.833C203.256 319.898 202.189 320.64 200.753 321.144C199.311 321.653 197.464 321.954 195.136 322.129C194.77 322.157 194.451 321.882 194.424 321.516C194.397 321.149 194.67 320.83 195.037 320.804C198.058 320.582 200.161 320.118 201.406 319.402C202.032 319.045 202.442 318.643 202.713 318.172C202.983 317.7 203.122 317.138 203.124 316.417C203.125 315.469 202.867 314.263 202.355 312.799C200.983 308.853 200.106 305.581 200.101 302.936C200.101 301.484 200.373 300.201 201.029 299.143C201.222 298.831 201.632 298.736 201.943 298.929C202.255 299.123 202.351 299.532 202.157 299.845Z" fill="#17282F"/>
<path d="M195.026 332.647C195.014 332.647 192.336 332.402 189.038 331.82C185.737 331.232 181.836 330.332 179.273 328.925C178.952 328.748 178.835 328.344 179.011 328.022C179.188 327.7 179.592 327.583 179.913 327.76C182.189 329.023 186.036 329.944 189.27 330.51C190.889 330.796 192.361 330.999 193.427 331.132C194.493 331.264 195.144 331.322 195.146 331.324C195.512 331.357 195.78 331.68 195.747 332.046C195.714 332.411 195.391 332.681 195.026 332.647Z" fill="#17282F"/>
<path d="M127.795 271.699C127.797 263.797 135.577 247.59 149.242 245.771C157.079 237.553 168.275 234.531 181.846 237.654C213.208 244.872 222.754 275.871 224.133 281.01C224.267 281.488 224.323 281.752 224.323 281.752L215.928 279.618L219.548 286.688L215.148 289.596L216.155 290.714L211.06 295.631L212.655 286.649C211.67 280.84 205.008 272.739 205.008 272.739C208.893 277.404 209.382 283.63 209.382 283.63C206.749 276.725 190.788 270.383 190.788 270.383C195.957 274.579 198.712 282.803 198.712 282.803C193.79 276.74 182.275 272.812 174.909 270.727C172.42 276.732 168.477 282.993 162.845 286.463C157.539 289.731 157.725 296.477 157.725 296.477C148.501 302.515 145.796 312.918 145.796 312.918L139.37 321.72C139.37 321.72 127.783 307.422 127.795 271.699Z" fill="#17282F"/>
<path d="M154.825 298.691C156.975 294.071 149.165 281.578 143.636 283.126C140.525 283.997 136.463 289.673 135.672 295.638C134.882 301.602 139.092 312.87 143.581 315.377C146.43 316.969 148.778 312.632 148.778 312.632" fill="white"/>
<path d="M154.224 298.409C154.42 297.987 154.526 297.439 154.526 296.794C154.54 294.495 153.14 291.1 151.146 288.38C150.154 287.016 149.019 285.814 147.877 284.971C146.733 284.124 145.594 283.655 144.613 283.659C144.338 283.659 144.073 283.695 143.814 283.767C143.18 283.941 142.413 284.401 141.634 285.104C139.282 287.208 136.889 291.432 136.33 295.724C136.27 296.18 136.241 296.679 136.241 297.208C136.237 300.166 137.187 304.081 138.645 307.489C139.371 309.193 140.225 310.774 141.134 312.052C142.039 313.331 143.008 314.299 143.905 314.798C144.256 314.992 144.566 315.062 144.863 315.064C145.267 315.064 145.672 314.924 146.072 314.678C146.669 314.314 147.219 313.715 147.6 313.21C147.793 312.956 147.944 312.727 148.045 312.565L148.161 312.375L148.194 312.315C148.369 311.992 148.772 311.872 149.094 312.047C149.417 312.222 149.537 312.625 149.363 312.948C149.347 312.976 148.91 313.786 148.153 314.626C147.773 315.045 147.313 315.474 146.768 315.811C146.222 316.146 145.579 316.393 144.863 316.393C144.34 316.395 143.789 316.256 143.257 315.958C142.095 315.306 141.033 314.199 140.051 312.823C137.128 308.685 134.926 302.045 134.913 297.208C134.913 296.628 134.945 296.074 135.014 295.55C135.427 292.448 136.677 289.459 138.23 287.104C139.009 285.927 139.865 284.909 140.747 284.115C141.629 283.323 142.536 282.747 143.457 282.486C143.836 282.38 144.226 282.329 144.613 282.329C146.009 282.333 147.38 282.954 148.664 283.901C150.591 285.328 152.36 287.524 153.675 289.87C154.986 292.219 155.848 294.702 155.854 296.794C155.853 297.58 155.73 298.319 155.427 298.971C155.271 299.303 154.877 299.447 154.544 299.293C154.212 299.137 154.068 298.742 154.222 298.409" fill="#17282F"/>
<path d="M493.654 524.366L343.596 489.247L30.5888 525.43L111.165 580.612L493.654 524.366Z" fill="white"/>
<path d="M493.654 524.366L343.596 489.247L30.5888 525.43L493.654 524.366Z" fill="white"/>
<path d="M493.502 525.014L343.558 489.921L30.6647 526.091C30.3008 526.132 29.9715 525.871 29.929 525.506C29.8865 525.141 30.1481 524.812 30.512 524.769L343.521 488.586L343.748 488.599L493.805 523.718C494.162 523.803 494.384 524.16 494.3 524.518C494.217 524.875 493.859 525.097 493.502 525.014Z" fill="#17282F"/>
<path d="M363.79 531.414L303.044 504.538L226.243 508.506L260.395 537.743L363.79 531.414Z" fill="white"/>
<path d="M363.79 531.414L363.522 532.022L302.92 505.209L227.941 509.085L260.623 537.061L363.75 530.751L363.79 531.414L363.522 532.022L363.79 531.414L363.831 532.078L260.437 538.406C260.264 538.416 260.095 538.359 259.964 538.247L225.812 509.012C225.604 508.835 225.527 508.551 225.615 508.292C225.703 508.034 225.936 507.857 226.209 507.843L303.009 503.874L303.312 503.93L364.06 530.807C364.34 530.931 364.498 531.23 364.445 531.532C364.39 531.833 364.138 532.059 363.831 532.078L363.79 531.414Z" fill="#17282F"/>
<path d="M206.818 356.523C226.303 364.499 230.505 382.431 263.607 453.309C263.607 453.309 278.317 456.333 286.199 474.218C294.08 492.101 280.945 506.224 265.708 505.738C265.708 505.738 259.617 511.038 247.163 510.511C234.708 509.986 179.379 425.348 179.379 425.348L206.818 356.523Z" fill="#0020A2"/>
<path d="M258.253 457.954C251.241 464.211 246.7 472.811 246.7 482.493C246.7 484.648 246.924 486.857 247.398 489.11C247.474 489.469 247.244 489.821 246.886 489.897C246.526 489.972 246.174 489.743 246.098 489.383C245.605 487.042 245.372 484.741 245.372 482.493C245.37 472.384 250.121 463.422 257.37 456.961C257.643 456.717 258.063 456.741 258.307 457.015C258.552 457.289 258.527 457.709 258.253 457.954Z" fill="white"/>
<path d="M249.546 461.843L249.527 461.847C249.276 461.905 246.688 462.569 243.996 464.811C241.305 467.059 238.487 470.855 237.702 477.345C237.658 477.71 237.327 477.97 236.964 477.926C236.6 477.882 236.341 477.551 236.383 477.186C237.222 470.15 240.429 465.946 243.429 463.559C246.429 461.168 249.201 460.558 249.263 460.544C249.622 460.465 249.975 460.693 250.053 461.052C250.132 461.411 249.905 461.764 249.546 461.843Z" fill="white"/>
<path d="M217.457 420.767L217.517 420.628C218.132 419.215 223.177 407.085 223.175 391.516C223.175 388.361 222.968 385.065 222.476 381.686C222.424 381.323 222.675 380.985 223.038 380.932C223.401 380.88 223.738 381.132 223.791 381.495C224.293 384.942 224.503 388.302 224.503 391.516C224.5 408.428 218.687 421.264 218.666 421.314C218.515 421.649 218.121 421.797 217.788 421.647C217.453 421.495 217.306 421.1 217.456 420.767" fill="white"/>
<path d="M220.251 402.867C220.312 403.286 220.336 403.786 220.337 404.377C220.333 408.521 219.083 417.424 217.837 428.992C216.59 440.547 215.346 454.719 215.346 469.225V469.54C215.346 469.907 215.05 470.205 214.682 470.206C214.315 470.206 214.018 469.908 214.018 469.541V469.225C214.018 454.643 215.267 440.426 216.517 428.849C217.766 417.282 219.013 408.307 219.009 404.377C219.009 403.826 218.984 403.378 218.936 403.06C218.884 402.696 219.135 402.359 219.498 402.306C219.86 402.253 220.197 402.504 220.251 402.867Z" fill="white"/>
<path d="M73.9593 362.375C49.5845 374.639 46.6866 412.362 69.6868 457.458C85.9256 489.294 108.349 536.295 122.534 539.452C136.72 542.607 150.549 533.76 150.549 533.76C150.549 533.76 162.51 533.199 166.114 524.693C175.994 501.38 150.878 472.049 140.997 479.078C140.997 479.078 109.444 410.377 103.693 406.05" fill="#0020A2"/>
<path d="M167.724 510.415C167.912 509.491 168.001 508.555 168.001 507.611C168.019 500.927 163.435 493.78 157.904 488.365C155.144 485.655 152.158 483.376 149.444 481.786C146.736 480.19 144.269 479.308 142.702 479.318C142.105 479.318 141.658 479.439 141.357 479.636L141.034 479.741C141.033 479.741 140.97 479.743 140.838 479.754C139.843 479.831 135.221 480.291 130.583 482.212C128.263 483.17 125.944 484.492 124.064 486.287C122.182 488.086 120.733 490.345 120.105 493.245C120.026 493.604 119.673 493.831 119.314 493.754C118.956 493.677 118.729 493.323 118.806 492.964C119.537 489.568 121.326 486.937 123.56 484.942C126.916 481.947 131.257 480.336 134.758 479.45C138.26 478.565 140.931 478.415 140.96 478.413L140.997 479.078L140.637 478.518C141.224 478.14 141.933 477.988 142.702 477.988C144.714 477.999 147.283 478.988 150.115 480.638C154.349 483.121 159.118 487.14 162.86 491.894C166.595 496.647 169.323 502.14 169.33 507.611C169.33 508.639 169.233 509.666 169.025 510.681C168.951 511.042 168.6 511.274 168.242 511.2C167.882 511.127 167.651 510.776 167.724 510.415Z" fill="white"/>
<path d="M99.1457 514.304C88.1609 494.905 69.0986 457.765 69.096 457.761C68.9286 457.435 69.0575 457.034 69.3842 456.866C69.7096 456.698 70.1106 456.828 70.278 457.153C70.2793 457.155 70.5755 457.733 71.1187 458.786C74.9144 466.157 90.7122 496.717 100.301 513.649C100.483 513.968 100.37 514.374 100.051 514.556C99.7327 514.737 99.3277 514.624 99.1457 514.304Z" fill="white"/>
<path d="M140.656 479.648L140.596 479.612C139.957 479.237 134.294 476.11 127.987 476.119C124.802 476.122 121.471 476.898 118.455 479.184C118.163 479.405 117.746 479.347 117.526 479.055C117.304 478.762 117.361 478.345 117.653 478.124C120.936 475.632 124.591 474.787 127.987 474.79C135.171 474.8 141.285 478.483 141.337 478.506C141.652 478.694 141.754 479.103 141.567 479.418C141.378 479.733 140.971 479.835 140.656 479.648Z" fill="white"/>
<path d="M135.965 469.816C135.964 469.814 135.512 468.823 134.716 467.101C132.331 461.937 126.867 450.228 121.333 439.218C117.671 431.93 111.641 422.879 105.672 415.552C102.688 411.889 99.7181 408.652 97.0805 406.285C95.763 405.102 94.5278 404.137 93.4282 403.445C92.3312 402.753 91.3656 402.343 90.6352 402.237C90.2726 402.182 90.0216 401.843 90.076 401.48C90.1305 401.117 90.4691 400.867 90.8317 400.922C91.8517 401.077 92.9434 401.573 94.1347 402.319C98.2811 404.936 103.7 410.756 108.959 417.561C114.209 424.364 119.26 432.136 122.519 438.621C129.914 453.332 137.171 469.261 137.173 469.265C137.325 469.599 137.177 469.993 136.844 470.146C136.511 470.298 136.116 470.15 135.965 469.816Z" fill="white"/>
<path d="M274.981 498.202C276.51 498.122 278.035 497.736 279.498 496.965C302.114 485.171 319.632 465.679 330.204 451.691C337.549 441.972 341.534 434.898 341.534 434.898L336.115 411.656C336.115 411.656 331.014 424.899 310.522 438.023C290.043 451.146 265.684 455.401 257.81 468.55C250.837 480.199 263.122 498.8 274.981 498.202Z" fill="white"/>
<path d="M274.399 497.551C274.407 497.551 274.413 497.551 274.421 497.551C274.597 497.551 274.771 497.548 274.946 497.538C274.996 497.536 275.046 497.533 275.095 497.529C275.347 496.176 275.744 494.765 276.337 493.295C278.801 487.114 287.742 477.757 295.757 470.2L286.062 473.579L286.06 473.581L285.555 473.754C285.485 473.778 285.413 473.79 285.34 473.79C285.224 473.79 285.109 473.759 285.006 473.699C279.807 470.663 271.324 468.616 262.055 467.302C261.27 467.19 260.48 467.084 259.685 466.982C259.207 467.599 258.77 468.234 258.379 468.893C257.04 471.129 256.443 473.637 256.443 476.239C256.437 481.278 258.713 486.652 262.127 490.729C265.532 494.807 270.045 497.551 274.399 497.551ZM274.946 497.538C274.947 497.538 274.947 497.538 274.947 497.538H274.946ZM296.421 469.576C303.547 462.901 309.764 457.781 309.764 457.781C316.105 457.583 323.03 455.114 328.88 452.333C329.149 451.982 329.414 451.634 329.675 451.289C331.623 448.712 333.334 446.321 334.795 444.2C334.597 444.22 334.4 444.229 334.206 444.229C334.205 444.229 334.202 444.229 334.2 444.229C332.549 444.229 331.148 443.506 330.037 442.49C329.292 441.808 328.659 440.996 328.121 440.145C310.409 449.524 298.136 467.017 296.421 469.576ZM336.868 428.29L339.092 427.354L338.346 424.153L336.868 428.29Z" fill="#F0CCBC" fill-opacity="0.42"/>
<path d="M274.981 498.202L274.946 497.538C276.387 497.463 277.813 497.101 279.188 496.376L279.191 496.375C301.668 484.658 319.139 465.235 329.675 451.289C333.335 446.446 336.157 442.262 338.064 439.291C339.017 437.805 339.742 436.623 340.227 435.813C340.468 435.409 340.652 435.096 340.774 434.887C340.895 434.677 340.954 434.572 340.954 434.571L341.533 434.898L340.887 435.05L335.468 411.808L336.115 411.656L336.734 411.895C336.696 411.999 331.504 425.378 310.879 438.582C300.567 445.189 289.321 449.544 279.711 453.882C270.093 458.213 262.158 462.552 258.379 468.893C257.041 471.129 256.443 473.637 256.443 476.239C256.438 481.278 258.713 486.652 262.127 490.729C265.539 494.815 270.061 497.561 274.421 497.551C274.597 497.551 274.772 497.548 274.947 497.538H274.946L274.981 498.202L275.014 498.866C274.817 498.876 274.619 498.881 274.421 498.881C269.496 498.871 264.697 495.867 261.109 491.583C257.523 487.289 255.12 481.677 255.115 476.239C255.115 473.435 255.763 470.675 257.24 468.208C261.336 461.399 269.517 457.035 279.165 452.67C288.823 448.313 299.997 443.978 310.164 437.462C320.345 430.942 326.685 424.405 330.478 419.512C332.373 417.064 333.634 415.028 334.416 413.609C334.808 412.901 335.079 412.346 335.253 411.973C335.339 411.785 335.402 411.643 335.44 411.55L335.484 411.446L335.495 411.418C335.599 411.145 335.87 410.974 336.16 410.994C336.451 411.014 336.695 411.223 336.762 411.506L342.18 434.746C342.217 434.91 342.193 435.079 342.111 435.225C342.101 435.244 338.102 442.341 330.733 452.093C320.126 466.123 302.561 485.683 279.804 497.555L279.807 497.553C278.257 498.37 276.631 498.781 275.016 498.866H275.014L274.981 498.202Z" fill="#17282F"/>
<path d="M326.114 433.536C326.114 433.536 328.917 445.939 336.302 443.159C340.305 441.651 347.966 429.735 349.415 423.732L326.114 433.536Z" fill="white"/>
<path d="M326.114 433.536L326.762 433.389L326.786 433.49C326.912 434.008 327.557 436.446 328.808 438.697C329.432 439.823 330.206 440.896 331.111 441.664C332.019 442.433 333.026 442.898 334.206 442.9C334.775 442.9 335.39 442.792 336.068 442.537C336.876 442.243 338.083 441.271 339.346 439.883C341.255 437.8 343.361 434.803 345.11 431.785C346.861 428.771 348.257 425.713 348.769 423.575L349.415 423.732L349.672 424.345L326.372 434.149L326.114 433.536L326.762 433.389L326.114 433.536L325.858 432.923L349.158 423.119C349.388 423.022 349.655 423.063 349.845 423.225C350.036 423.387 350.12 423.644 350.06 423.887C349.294 427.036 346.996 431.529 344.369 435.499C343.056 437.48 341.661 439.322 340.325 440.781C338.981 442.237 337.729 443.321 336.536 443.781C335.724 444.086 334.945 444.229 334.206 444.229C332.553 444.232 331.149 443.507 330.038 442.49C328.364 440.958 327.251 438.767 326.522 436.956C325.798 435.144 325.473 433.705 325.467 433.683C325.396 433.367 325.56 433.048 325.858 432.923L326.114 433.536Z" fill="#17282F"/>
<path d="M358.664 357.239L352.634 354.116C352.634 354.116 335.592 354.268 325.02 362.87C315.418 370.683 310.554 382.935 310.554 382.935C310.554 382.935 273.24 362.308 235.144 374.144L219.593 460.855L291.034 465.573L335.624 423.127L358.664 357.239Z" fill="white"/>
<path d="M358.664 357.239L358.358 357.83L352.328 354.706L352.634 354.116L352.641 354.781C352.639 354.781 352.388 354.784 351.91 354.804C348.561 354.935 334.445 356.031 325.438 363.386C320.726 367.22 317.146 372.176 314.756 376.173C313.561 378.172 312.662 379.93 312.063 381.185C311.764 381.812 311.54 382.314 311.391 382.657C311.316 382.829 311.261 382.961 311.225 383.05L311.172 383.181C311.101 383.356 310.957 383.496 310.779 383.561C310.599 383.625 310.399 383.609 310.233 383.517C310.233 383.517 310.152 383.472 309.983 383.381C307.458 382.037 286.093 371.139 260.102 371.145C252.148 371.145 243.761 372.163 235.341 374.779L235.144 374.144L235.798 374.261L220.378 460.24L290.788 464.892L335.048 422.756L358.037 357.019L358.664 357.239L358.358 357.83L358.664 357.239L359.29 357.459L336.249 423.347L336.08 423.609L291.492 466.057C291.358 466.183 291.174 466.249 290.99 466.237L219.549 461.518C219.361 461.506 219.187 461.415 219.07 461.264C218.953 461.116 218.907 460.926 218.94 460.738L234.491 374.026C234.535 373.783 234.711 373.582 234.948 373.509C243.514 370.847 252.035 369.815 260.102 369.815C288.219 369.822 310.822 382.328 310.876 382.352L310.554 382.935L309.937 382.689C309.963 382.642 314.832 370.318 324.602 362.354C330.024 357.947 337.021 355.744 342.661 354.616C348.304 353.491 352.601 353.453 352.629 353.451L352.939 353.526L358.968 356.649C359.263 356.801 359.399 357.146 359.29 357.459L358.664 357.239Z" fill="#17282F"/>
<path d="M214.686 464.322C214.686 464.322 223.066 464.07 234.275 464.442C251.222 464.974 274.637 466.888 285.34 473.125L285.845 472.952L295.646 469.535C295.646 469.535 295.714 469.441 295.845 469.242C297.653 466.556 312.221 445.641 333.006 437.118L362.437 354.788C362.437 354.788 331.878 356.157 315.197 383.747L306.817 386.779C306.817 386.779 256.945 371.993 229.029 377.312L214.686 464.322Z" fill="#F26F35"/>
<path d="M296.236 467.52C300.13 462.059 313.715 444.443 332.48 436.617L361.466 355.531C358.921 355.777 351.812 356.746 343.486 360.286C334.236 364.217 323.498 371.303 315.764 384.091C315.687 384.22 315.564 384.321 315.423 384.372L315.022 384.517L296.236 467.52Z" fill="#D65F2A"/>
<path d="M285.409 472.399L285.629 472.323L286.025 472.185L305.421 389.77C305.421 389.77 295.217 387.474 288.593 387.474C286.918 387.474 285.473 387.62 284.478 387.989C284.478 387.989 270.133 398.588 255.326 421.043C255.387 421.043 255.419 421.043 255.419 421.043C256.819 423.346 254.869 425.113 251.917 426.419C251.475 427.145 251.032 427.881 250.591 428.629C253.358 427.955 256.094 427.358 258.047 427.093C259.216 426.932 260.094 426.856 260.743 426.856C263.304 426.856 262.299 428.021 261.462 429.633C260.413 431.64 249.11 437.344 249.11 437.344L244.879 439.072C244.045 440.72 243.219 442.416 242.406 444.148C243.139 444.143 243.867 444.14 244.57 444.14C247.331 444.14 249.725 444.183 250.69 444.312C253.586 444.711 252.522 445.242 252.006 447.343C251.473 449.444 246.746 452.077 246.746 452.077C246.746 452.077 246.599 452.502 246.387 453.127C246.001 454.178 245.405 455.773 244.914 456.717C244.405 457.659 238.876 460.542 234.938 462.508C234.791 462.93 234.643 463.357 234.499 463.784C242.945 464.054 252.969 464.667 262.243 465.986C271.445 467.3 279.896 469.286 285.409 472.399Z" fill="#D65F2A"/>
<path d="M214.686 464.322L214.666 463.658C214.671 463.658 217.455 463.574 221.958 463.574C225.277 463.574 229.531 463.619 234.297 463.778C242.785 464.044 252.894 464.656 262.243 465.986C271.593 467.321 280.168 469.35 285.674 472.551L285.34 473.125L285.125 472.496L285.629 472.323L285.627 472.325L295.428 468.907L295.646 469.535L295.109 469.144L295.151 469.085L295.291 468.875L295.295 468.871C297.143 466.143 311.728 445.143 332.755 436.503L333.006 437.118L332.381 436.894L361.812 354.563L362.436 354.788L362.467 355.452C362.467 355.452 362.359 355.456 362.139 355.472C360.479 355.595 352.732 356.355 343.486 360.286C334.235 364.217 323.498 371.303 315.764 384.091C315.687 384.22 315.564 384.321 315.423 384.372L307.041 387.404C306.908 387.451 306.764 387.455 306.628 387.415C306.625 387.415 306.074 387.251 305.042 386.962C297.833 384.934 267.366 376.818 243.073 376.822C238.082 376.822 233.354 377.165 229.153 377.966L229.029 377.312L229.684 377.421L215.34 464.43L214.686 464.322L214.666 463.658L214.686 464.322L214.031 464.214L228.373 377.204C228.42 376.929 228.631 376.711 228.904 376.659C233.217 375.838 238.021 375.493 243.073 375.493C271.144 375.499 306.973 386.135 307.005 386.14L306.817 386.779L306.591 386.152L314.971 383.122L315.197 383.747L314.629 383.403C323.062 369.453 335.012 362.127 344.831 358.302C354.654 354.474 362.359 354.127 362.407 354.123C362.629 354.114 362.839 354.215 362.972 354.393C363.103 354.572 363.138 354.802 363.062 355.011L333.631 437.342C333.569 437.519 333.431 437.662 333.258 437.734C312.715 446.14 298.163 466.969 296.396 469.613L296.399 469.609C296.262 469.816 296.19 469.916 296.184 469.925C296.104 470.035 295.993 470.117 295.865 470.162L286.062 473.579L286.06 473.581L285.555 473.754C285.373 473.816 285.172 473.796 285.006 473.699C279.807 470.663 271.324 468.616 262.055 467.302C252.783 465.983 242.712 465.372 234.254 465.106H234.253C229.506 464.949 225.265 464.904 221.958 464.904C219.714 464.904 217.9 464.925 216.647 464.945C215.394 464.966 214.707 464.987 214.706 464.987C214.506 464.993 214.317 464.91 214.186 464.76C214.055 464.61 213.998 464.412 214.031 464.214L214.686 464.322Z" fill="#17282F"/>
<path d="M307.466 386.938L288.243 466.755C288.158 467.111 287.799 467.332 287.442 467.245C287.086 467.159 286.867 466.8 286.952 466.444L306.174 386.626C306.26 386.269 306.619 386.05 306.976 386.135C307.332 386.221 307.551 386.58 307.466 386.938Z" fill="#17282F"/>
<path d="M294.998 469.39L313.67 389.621C313.753 389.265 314.111 389.043 314.468 389.127C314.824 389.21 315.046 389.568 314.962 389.926L296.291 469.693C296.208 470.051 295.85 470.271 295.493 470.188C295.136 470.104 294.914 469.746 294.998 469.39Z" fill="#17282F"/>
<path d="M343.086 435.023C347.355 433.833 355.945 408.18 352.007 397.142C352.007 397.142 347.332 389.016 345.43 388.461C342.449 387.59 330.443 387.844 331.024 389.866C332.367 394.541 341.576 394.464 341.576 394.464L344.566 399.939L344.437 402.963C344.437 402.963 340.102 399.798 338.502 399.883C337.687 399.927 333.431 402.016 330.059 403.803C327.173 405.334 325.41 406.161 326.056 407.551C328.193 412.151 337.302 408.924 337.302 408.924L340.721 414.085C340.721 414.085 337.415 414.657 335.964 414.824C334.376 415.008 322.498 422.994 322.862 423.995C324.279 427.904 335.678 423.677 335.678 423.677L337.698 425.358C337.698 425.358 329.295 427.533 328.443 427.847C327.105 428.34 321.991 432.284 322.07 432.733C322.686 436.188 329.74 433.647 329.74 433.647L335.912 433.395C335.912 433.395 337.156 434.601 339.213 435.101" fill="white"/>
<path d="M342.908 434.382C343.126 434.331 343.552 434.042 344.016 433.491C344.838 432.538 345.805 430.872 346.75 428.77C349.606 422.459 352.356 412.178 352.35 404.233C352.351 401.603 352.048 399.231 351.381 397.366L352.007 397.142L351.432 397.474C351.431 397.473 351.144 396.974 350.679 396.21C349.983 395.063 348.891 393.327 347.81 391.843C347.271 391.102 346.732 390.424 346.26 389.924C346.025 389.674 345.806 389.47 345.624 389.329C345.443 389.185 345.293 389.111 345.244 389.099C344.802 388.968 344.021 388.849 343.082 388.772C342.14 388.693 341.03 388.652 339.875 388.652C337.825 388.652 335.63 388.784 333.989 389.058C333.17 389.193 332.488 389.37 332.068 389.553C331.86 389.643 331.72 389.736 331.671 389.785L331.648 389.81L331.501 389.726H331.667L331.648 389.81L331.501 389.726H331.667H331.512L331.662 389.682L331.667 389.726H331.512L331.662 389.682C331.931 390.617 332.581 391.344 333.496 391.934C334.862 392.814 336.79 393.304 338.415 393.545C340.039 393.788 341.361 393.799 341.548 393.799H341.572C341.815 393.796 342.042 393.931 342.159 394.145L345.149 399.62L345.228 399.967L345.101 402.992C345.09 403.237 344.947 403.456 344.725 403.562C344.504 403.669 344.244 403.645 344.046 403.5C344.045 403.5 343.791 403.314 343.377 403.031C342.755 402.604 341.782 401.963 340.83 401.439C340.354 401.177 339.884 400.944 339.478 400.785C339.075 400.621 338.725 400.542 338.567 400.547H338.537L338.524 400.55C338.401 400.565 337.956 400.712 337.404 400.944C335.723 401.642 332.807 403.098 330.369 404.391C329.124 405.05 328.098 405.578 327.436 406.037C327.105 406.263 326.871 406.473 326.742 406.638C326.614 406.808 326.59 406.902 326.587 407C326.587 407.063 326.602 407.147 326.659 407.271C327.031 408.062 327.619 408.557 328.406 408.892C329.191 409.223 330.172 409.36 331.186 409.358C332.611 409.36 334.099 409.095 335.22 408.826C335.78 408.693 336.249 408.559 336.577 408.459C336.74 408.409 336.868 408.368 336.954 408.34L337.08 408.296C337.369 408.195 337.687 408.301 337.856 408.557L341.275 413.717C341.398 413.904 341.419 414.141 341.33 414.348C341.241 414.554 341.055 414.702 340.834 414.739C340.827 414.741 337.533 415.312 336.039 415.485L335.975 415.501C335.801 415.55 335.415 415.721 334.938 415.973C333.25 416.859 330.307 418.744 327.821 420.514C326.576 421.399 325.441 422.26 324.633 422.946C324.23 423.287 323.908 423.589 323.708 423.81L323.508 424.057L323.495 424.081L323.494 424.083L323.172 423.944H323.516L323.494 424.083L323.172 423.944H323.516H323L323.486 423.77L323.516 423.944H323L323.486 423.77V423.768C323.641 424.182 323.927 424.452 324.447 424.672C324.964 424.884 325.692 424.989 326.523 424.988C328.325 424.991 330.581 424.511 332.36 424.024C333.251 423.781 334.027 423.536 334.577 423.354C334.853 423.264 335.072 423.188 335.221 423.135C335.371 423.081 335.448 423.053 335.448 423.053C335.67 422.971 335.921 423.014 336.103 423.165L338.123 424.847C338.314 425.007 338.401 425.259 338.346 425.503C338.292 425.747 338.106 425.939 337.864 426.001C337.86 426.003 335.764 426.545 333.56 427.127C332.457 427.419 331.328 427.719 330.423 427.966C329.971 428.09 329.575 428.2 329.268 428.29C328.964 428.376 328.736 428.446 328.671 428.472C328.46 428.544 327.89 428.869 327.255 429.297C326.289 429.944 325.096 430.837 324.157 431.604C323.686 431.987 323.28 432.341 323.005 432.607C322.868 432.739 322.765 432.852 322.712 432.917L322.684 432.954L322.678 432.961L322.285 432.723H322.734C322.722 432.93 322.674 432.953 322.678 432.961L322.285 432.723H322.734H322.139L322.726 432.628L322.734 432.723H322.139L322.726 432.628L322.07 432.733L322.725 432.616C322.826 433.121 323.037 433.358 323.427 433.574C323.819 433.78 324.417 433.885 325.086 433.882C326.072 433.883 327.197 433.671 328.059 433.451C328.49 433.343 328.859 433.234 329.117 433.152C329.246 433.112 329.347 433.079 329.416 433.055L329.515 433.02L329.713 432.982L335.885 432.731C336.067 432.724 336.242 432.79 336.374 432.918L336.378 432.922C336.472 433.012 337.61 434.031 339.37 434.455C339.726 434.543 339.945 434.902 339.859 435.258C339.772 435.616 339.414 435.834 339.057 435.747C336.82 435.2 335.5 433.918 335.449 433.873L335.912 433.395L335.938 434.06L329.768 434.31L329.74 433.647L329.966 434.272C329.929 434.28 327.412 435.204 325.086 435.212C324.293 435.209 323.507 435.107 322.819 434.756C322.13 434.414 321.564 433.742 321.417 432.85L321.415 432.838L321.406 432.723C321.423 432.418 321.515 432.332 321.575 432.221C321.698 432.039 321.848 431.882 322.044 431.689C322.718 431.03 323.935 430.051 325.145 429.16C325.749 428.716 326.348 428.298 326.873 427.958C327.405 427.619 327.838 427.365 328.213 427.223C328.361 427.169 328.582 427.104 328.902 427.01C331.103 426.378 337.528 424.716 337.532 424.714L337.698 425.358L337.273 425.87L335.254 424.188L335.678 423.677L335.909 424.299C335.897 424.305 334.549 424.805 332.71 425.306C330.867 425.807 328.546 426.316 326.523 426.318C325.587 426.316 324.709 426.211 323.947 425.903C323.191 425.602 322.53 425.043 322.237 424.221L322.236 424.22L322.19 423.944C322.204 423.603 322.326 423.446 322.438 423.269C322.66 422.954 322.98 422.636 323.404 422.254C324.876 420.939 327.588 418.995 330.124 417.336C331.389 416.506 332.607 415.752 333.601 415.19C334.097 414.908 334.538 414.675 334.909 414.501C335.29 414.328 335.562 414.209 335.888 414.165C336.588 414.084 337.778 413.899 338.78 413.735C339.784 413.572 340.605 413.43 340.608 413.43L340.721 414.085L340.167 414.452L336.748 409.29L337.302 408.924L337.524 409.55C337.487 409.559 334.351 410.683 331.186 410.688C330.057 410.687 328.915 410.544 327.894 410.118C326.875 409.696 325.971 408.953 325.454 407.831C325.331 407.567 325.259 407.285 325.259 407C325.256 406.554 325.439 406.143 325.697 405.818C326.088 405.326 326.637 404.945 327.319 404.536C328 404.13 328.82 403.707 329.748 403.215C331.441 402.318 333.355 401.346 334.955 400.588C335.756 400.209 336.479 399.885 337.063 399.647C337.357 399.528 337.616 399.431 337.84 399.358C338.068 399.286 338.245 399.235 338.466 399.22L338.567 399.217C339.177 399.227 339.786 399.457 340.458 399.76C342.439 400.674 344.81 402.415 344.829 402.426L344.437 402.963L343.774 402.935L343.894 400.096L340.994 394.783L341.576 394.464L341.581 395.129H341.548C341.239 395.127 338.896 395.111 336.407 394.508C335.163 394.203 333.877 393.754 332.78 393.053C331.688 392.356 330.767 391.376 330.385 390.049L330.339 389.726C330.338 389.347 330.535 389.026 330.757 388.821C331.15 388.458 331.654 388.261 332.275 388.074C334.124 387.543 337.103 387.326 339.875 387.322C341.062 387.322 342.204 387.365 343.192 387.446C344.183 387.53 345.009 387.647 345.616 387.822C346.024 387.947 346.349 388.191 346.7 388.496C347.893 389.565 349.318 391.61 350.504 393.428C351.679 395.242 352.578 396.804 352.582 396.811L352.633 396.918C353.372 398.996 353.676 401.502 353.678 404.233C353.675 410.511 352.055 418.006 349.994 424.099C348.962 427.145 347.819 429.836 346.697 431.857C346.134 432.867 345.578 433.712 345.024 434.358C344.465 435 343.923 435.47 343.264 435.662C342.911 435.761 342.544 435.555 342.446 435.201C342.348 434.847 342.555 434.48 342.908 434.382Z" fill="#17282F"/>
<path d="M344.867 402.456C344.871 402.46 348.804 405.806 349.895 406.785C350.419 407.269 350.63 407.918 350.767 408.557C350.897 409.199 350.927 409.854 350.929 410.378C350.929 410.969 350.888 411.389 350.886 411.403C350.85 411.769 350.525 412.036 350.16 412C349.796 411.964 349.529 411.639 349.565 411.273C349.565 411.273 349.573 411.189 349.582 411.03C349.591 410.87 349.601 410.641 349.601 410.378C349.601 409.91 349.569 409.326 349.465 408.822C349.368 408.315 349.174 407.91 349.01 407.776C348.484 407.304 347.227 406.222 346.11 405.266C344.992 404.307 344.009 403.472 344.007 403.469C343.728 403.233 343.693 402.813 343.931 402.533C344.169 402.253 344.588 402.22 344.867 402.456Z" fill="#17282F"/>
<path d="M347.988 418.134V418.194C347.987 421.869 345.497 424.069 344.503 425.117C344.473 425.152 344.438 425.197 344.434 425.411C344.432 425.66 344.515 426.066 344.615 426.54C344.713 427.016 344.822 427.566 344.823 428.166C344.823 428.696 344.733 429.271 344.461 429.832C344.19 430.393 343.741 430.925 343.09 431.388C342.793 431.6 342.377 431.531 342.165 431.232C341.952 430.934 342.021 430.518 342.32 430.305C342.819 429.948 343.097 429.597 343.266 429.251C343.433 428.905 343.494 428.55 343.495 428.166C343.497 427.734 343.412 427.271 343.315 426.81C343.22 426.347 343.11 425.892 343.106 425.411C343.102 425.023 343.2 424.556 343.543 424.2C344.62 423.077 346.661 421.225 346.66 418.194V418.143C346.658 417.776 346.952 417.477 347.319 417.473C347.685 417.47 347.986 417.767 347.988 418.134Z" fill="#17282F"/>
<path d="M150.605 525.193C159.038 527.493 168.202 512.654 179.385 496.46V496.447C186.768 485.756 195.029 474.468 204.526 467.155C205.283 466.583 206.053 466.024 206.822 465.493L201.271 437.61C189.744 443.66 182.599 453.353 170.631 463.312C151.374 479.361 134.308 489.213 129.581 496.314C124.851 503.414 136.154 521.244 150.605 525.193Z" fill="white"/>
<path d="M180.463 493.73C187.238 484.033 194.757 474.092 203.342 467.237C202.877 467.159 202.434 467.066 202.015 466.955L201.93 466.938C201.48 466.852 201.114 466.739 200.845 466.596C200.845 466.596 187.365 477.583 180.463 493.73Z" fill="#F9EAE3" fill-opacity="0.71"/>
<path d="M150.605 525.193L150.779 524.552C151.307 524.696 151.835 524.765 152.368 524.765C154.156 524.768 156.061 523.978 158.087 522.487C161.125 520.256 164.38 516.481 167.826 511.851C171.277 507.222 174.932 501.739 178.839 496.081L179.385 496.46H178.721V496.447C178.721 496.311 178.761 496.181 178.839 496.069C186.233 485.368 194.513 474.03 204.121 466.627L204.126 466.623C204.89 466.047 205.668 465.483 206.445 464.945L206.822 465.493L206.171 465.622L200.62 437.741L201.271 437.61L201.579 438.199C190.218 444.148 183.088 453.797 171.056 463.824C161.405 471.867 152.309 478.352 145.051 483.703C137.795 489.045 132.37 493.3 130.133 496.683C129.477 497.667 129.153 498.913 129.153 500.37C129.14 504.269 131.546 509.565 135.488 514.224C139.423 518.892 144.863 522.939 150.78 524.552L150.605 525.193L150.429 525.835C144.171 524.12 138.554 519.913 134.474 515.081C130.402 510.239 127.838 504.786 127.825 500.37C127.825 498.719 128.194 497.196 129.028 495.945C131.52 492.226 136.99 488.006 144.263 482.633C151.534 477.272 160.6 470.807 170.206 462.802C182.109 452.908 189.269 443.171 200.963 437.021C201.147 436.924 201.369 436.92 201.558 437.011C201.746 437.101 201.882 437.275 201.923 437.48L207.473 465.362C207.525 465.622 207.417 465.889 207.199 466.039C206.438 466.566 205.676 467.119 204.924 467.685L204.93 467.681C195.544 474.905 187.304 486.144 179.931 496.824L179.385 496.447H180.049V496.46C180.049 496.596 180.008 496.726 179.931 496.838C174.731 504.367 169.962 511.618 165.465 517.023C163.215 519.726 161.033 521.969 158.874 523.559C156.715 525.144 154.556 526.092 152.368 526.095C151.719 526.095 151.071 526.009 150.431 525.835L150.605 525.193Z" fill="#17282F"/>
<path d="M198.151 464.442C198.614 465.413 199.557 466.104 200.846 466.596C201.139 466.716 201.443 466.809 201.762 466.902L202.016 466.955C210.927 469.282 230.98 464.442 230.98 464.442C230.98 464.442 244.115 458.194 244.914 456.717C245.405 455.773 246.001 454.178 246.386 453.127C246.599 452.502 246.746 452.077 246.746 452.077C246.746 452.077 251.473 449.444 252.006 447.343C252.522 445.242 253.586 444.711 250.69 444.312C247.796 443.926 232.043 444.312 232.043 444.312L249.11 437.344C249.11 437.344 260.413 431.64 261.462 429.633C262.511 427.612 263.826 426.295 258.047 427.093C252.271 427.877 239.654 431.561 239.654 431.561L229.772 433.661L239.654 429.446C239.654 429.446 259.097 427.093 255.419 421.043C255.419 421.043 248.061 421.043 244.381 421.043C240.704 421.043 228.935 422.426 225.734 423.41C222.52 424.394 201.271 437.61 201.271 437.61L198.151 464.442Z" fill="white"/>
<path d="M208.224 467.588C210.074 467.588 212.047 467.474 214.024 467.289C214.468 467.247 214.911 467.204 215.354 467.155C220.632 466.583 225.779 465.578 228.651 464.963C230.11 464.652 230.98 464.442 230.98 464.442C230.98 464.442 231.557 464.169 232.474 463.721C233.144 463.396 233.995 462.978 234.938 462.508C238.876 460.542 244.405 457.659 244.913 456.717C245.405 455.773 246.001 454.178 246.386 453.127L230.263 454.935C230.263 454.935 232.202 458.087 230.263 461.557C228.712 464.342 213.185 467.169 205.135 467.169C203.889 467.169 202.823 467.101 202.015 466.955C202.434 467.066 202.877 467.159 203.342 467.237C203.933 467.338 204.559 467.414 205.211 467.47C206.163 467.552 207.174 467.588 208.224 467.588Z" fill="#F9EAE3" fill-opacity="0.71"/>
<path d="M198.75 464.155C199.108 464.91 199.879 465.514 201.082 465.976L201.096 465.981C201.351 466.084 201.634 466.172 201.949 466.264L201.762 466.902L201.899 466.252L202.152 466.305L202.183 466.312C203.823 466.741 205.923 466.924 208.224 466.923C213.015 466.924 218.681 466.144 223.134 465.36C225.36 464.969 227.285 464.576 228.653 464.284C230.02 463.99 230.824 463.796 230.825 463.796L230.98 464.442L230.696 463.841C230.697 463.84 231.513 463.453 232.755 462.845C234.615 461.935 237.427 460.532 239.839 459.226C241.043 458.573 242.148 457.943 242.976 457.416C243.387 457.155 243.731 456.918 243.973 456.726C244.095 456.632 244.191 456.548 244.253 456.484L244.32 456.411L244.332 456.395L244.377 456.427L244.329 456.401L244.332 456.395L244.377 456.427L244.329 456.401L244.913 456.717L244.324 456.41C244.782 455.534 245.382 453.939 245.763 452.898L246.386 453.127L245.758 452.913C245.971 452.286 246.118 451.86 246.118 451.86C246.171 451.704 246.279 451.576 246.424 451.495C246.424 451.495 246.49 451.458 246.615 451.385C247.056 451.129 248.183 450.445 249.235 449.618C249.76 449.206 250.266 448.757 250.651 448.323C251.039 447.892 251.292 447.469 251.361 447.181L251.36 447.185C251.496 446.636 251.663 446.192 251.786 445.853C251.914 445.518 251.974 445.276 251.966 445.241V445.237L252.104 445.22L252 445.311L251.966 445.237L252.104 445.22L252 445.311L251.998 445.31C251.958 445.256 251.49 445.081 250.599 444.97L250.602 444.971C249.73 444.851 247.315 444.804 244.569 444.805C241.814 444.805 238.685 444.847 236.246 444.89C233.808 444.934 232.064 444.976 232.06 444.976C231.739 444.984 231.458 444.762 231.393 444.447C231.327 444.133 231.496 443.817 231.792 443.696L248.859 436.729L249.11 437.344L248.811 436.75C248.813 436.75 249.511 436.396 250.583 435.833C252.19 434.987 254.629 433.671 256.748 432.386C257.808 431.744 258.788 431.11 259.537 430.555C259.91 430.279 260.227 430.022 260.459 429.803C260.691 429.586 260.839 429.397 260.873 429.324L260.872 429.325C261.1 428.887 261.332 428.494 261.491 428.177C261.657 427.864 261.725 427.613 261.715 427.58V427.577L261.857 427.56L261.749 427.65L261.715 427.577L261.857 427.56L261.749 427.65L261.812 427.597L261.76 427.662L261.749 427.65L261.812 427.597L261.76 427.662C261.76 427.659 261.693 427.615 261.521 427.581C261.351 427.546 261.091 427.521 260.743 427.521C260.144 427.521 259.289 427.592 258.139 427.751H258.137C255.314 428.134 250.716 429.247 246.852 430.264C244.92 430.772 243.166 431.256 241.895 431.614C240.625 431.97 239.841 432.199 239.84 432.199L239.792 432.211L229.91 434.311C229.575 434.383 229.242 434.189 229.14 433.862C229.036 433.535 229.197 433.184 229.511 433.05L239.394 428.835L239.574 428.787C239.574 428.787 239.819 428.758 240.257 428.695C241.79 428.476 245.651 427.855 249.081 426.766C250.794 426.223 252.399 425.56 253.524 424.807C254.087 424.434 254.525 424.04 254.807 423.656C255.088 423.268 255.216 422.909 255.218 422.53C255.217 422.201 255.119 421.832 254.852 421.389L255.419 421.043V421.708C255.415 421.708 253.579 421.708 251.28 421.708C248.98 421.708 246.222 421.708 244.381 421.708C242.609 421.707 238.742 422.05 234.961 422.518C233.067 422.75 231.189 423.015 229.59 423.281C227.995 423.545 226.668 423.818 225.929 424.045C225.616 424.138 224.933 424.447 224.063 424.895C220.99 426.469 215.364 429.796 210.526 432.721C208.106 434.184 205.879 435.548 204.257 436.545C202.637 437.544 201.624 438.173 201.621 438.175C201.31 438.368 200.9 438.272 200.707 437.961C200.513 437.649 200.609 437.239 200.92 437.045C200.923 437.044 206.236 433.738 211.956 430.308C214.816 428.593 217.778 426.847 220.231 425.464C221.458 424.773 222.557 424.173 223.458 423.71C224.365 423.248 225.049 422.927 225.54 422.774C226.402 422.511 227.746 422.241 229.372 421.97C234.249 421.16 241.532 420.381 244.381 420.378C246.222 420.378 248.98 420.378 251.28 420.378C253.579 420.378 255.415 420.378 255.419 420.378C255.65 420.378 255.866 420.501 255.986 420.697C256.354 421.301 256.546 421.922 256.546 422.53C256.548 423.337 256.208 424.068 255.692 424.677C254.785 425.745 253.35 426.548 251.7 427.234C246.761 429.266 239.762 430.099 239.734 430.107L239.654 429.446L239.914 430.058L236.327 431.588L239.516 430.91L239.654 431.56L239.468 430.922C239.471 430.921 242.63 429.999 246.515 428.978C250.405 427.956 255.004 426.836 257.958 426.433L257.957 426.435C259.143 426.271 260.045 426.193 260.743 426.191C261.406 426.197 261.888 426.251 262.31 426.449C262.52 426.549 262.719 426.703 262.854 426.915C262.99 427.123 263.045 427.368 263.043 427.58C263.033 428.042 262.86 428.397 262.676 428.778C262.486 429.152 262.259 429.539 262.05 429.94V429.941C261.832 430.341 261.498 430.668 261.059 431.047C259.536 432.337 256.655 434.028 254.116 435.438C251.583 436.84 249.413 437.935 249.409 437.937L249.361 437.96L232.294 444.927L232.043 444.312L232.027 443.647C232.029 443.647 239.031 443.475 244.569 443.475C247.348 443.477 249.72 443.515 250.777 443.652L250.78 443.653C251.559 443.764 252.084 443.87 252.517 444.078C252.731 444.183 252.935 444.329 253.084 444.544C253.235 444.758 253.296 445.023 253.294 445.241C253.285 445.649 253.157 445.955 253.035 446.307C252.907 446.656 252.764 447.04 252.65 447.503L252.648 447.507C252.46 448.226 251.994 448.842 251.438 449.429C249.769 451.166 247.094 452.638 247.069 452.658L246.746 452.077L247.373 452.293C247.373 452.295 247.227 452.718 247.015 453.341L247.009 453.356C246.62 454.415 246.026 456.012 245.502 457.024L245.496 457.034C245.378 457.246 245.239 457.384 245.07 457.54C244.45 458.096 243.332 458.787 241.934 459.584C237.766 461.952 231.272 465.038 231.266 465.042L231.137 465.088C231.11 465.091 218.074 468.249 208.224 468.253C205.852 468.251 203.661 468.071 201.848 467.599L202.016 466.955L201.879 467.607L201.626 467.553L201.576 467.54C201.252 467.446 200.925 467.346 200.596 467.212L200.845 466.596L200.609 467.217C199.237 466.693 198.122 465.915 197.552 464.729C197.394 464.397 197.533 464.001 197.864 463.842C198.195 463.683 198.592 463.824 198.75 464.155Z" fill="#17282F"/>
<path d="M246.845 452.734L227.434 455.589C227.072 455.643 226.734 455.392 226.681 455.029C226.627 454.665 226.878 454.328 227.242 454.275L246.652 451.417C247.015 451.364 247.352 451.616 247.405 451.978C247.458 452.341 247.207 452.679 246.845 452.734Z" fill="#17282F"/>
<path d="M440.165 511.561L391.537 526.233L302.538 505.904C302.538 505.904 356.897 490.415 357.407 490.786C357.918 491.159 440.165 511.561 440.165 511.561Z" fill="#6CCB94"/>
<path d="M391.513 525.546L437.47 511.68L436.387 511.454L391.817 524.57L391.483 524.58L306.793 505.386C306.211 505.55 305.684 505.701 305.214 505.834L391.513 525.546Z" fill="#D65F2A"/>
<path d="M440.165 511.561L440.357 512.197L391.728 526.87L391.388 526.882L302.39 506.553C302.094 506.485 301.881 506.225 301.873 505.922C301.865 505.619 302.065 505.348 302.355 505.265C302.355 505.265 315.626 501.483 329.117 497.702C335.862 495.811 342.662 493.92 347.887 492.502C350.501 491.792 352.719 491.201 354.344 490.786C355.157 490.577 355.82 490.414 356.315 490.301C356.562 490.245 356.767 490.201 356.933 490.169C357.104 490.14 357.208 490.117 357.367 490.115L357.498 490.126C357.558 490.139 357.645 490.143 357.801 490.252L357.797 490.249L357.475 490.694L357.671 490.179C357.683 490.187 357.675 490.168 357.797 490.249L357.475 490.694L357.671 490.179C357.671 490.179 357.812 490.224 358.007 490.278C361.151 491.166 381.755 496.332 401.539 501.267C411.433 503.734 421.129 506.148 428.353 507.943C431.964 508.84 434.957 509.583 437.048 510.102C439.138 510.621 440.322 510.914 440.325 510.916C440.615 510.987 440.822 511.245 440.829 511.545C440.836 511.844 440.643 512.111 440.357 512.197L440.165 511.561L440.005 512.205C440.005 512.205 419.443 507.105 398.817 501.958C388.504 499.384 378.174 496.799 370.392 494.834C366.499 493.851 363.244 493.024 360.944 492.43C359.793 492.132 358.882 491.894 358.249 491.722C357.931 491.638 357.683 491.569 357.505 491.518L357.285 491.451L357.197 491.419L357.14 491.395L357.016 491.325L357.014 491.322L357.387 490.813L357.287 491.438C357.241 491.426 357.164 491.426 357.014 491.322L357.387 490.813L357.287 491.438L357.367 490.943V491.444L357.287 491.438L357.367 490.943V491.444V491.199L357.38 491.444H357.367V491.199L357.38 491.444C357.366 491.441 357.007 491.503 356.525 491.617C352.789 492.48 339.313 496.218 326.805 499.732C320.546 501.49 314.526 503.192 310.069 504.456C307.84 505.088 306.002 505.611 304.722 505.975C303.442 506.338 302.721 506.544 302.719 506.544L302.537 505.904L302.685 505.257L391.513 525.546L439.973 510.923L440.165 511.561L440.005 512.205L440.165 511.561Z" fill="#17282F"/>
<path d="M439.466 494.414C442.875 494.65 443.73 506.969 440.165 511.561L361.607 495.24L355.303 480.317L439.466 494.414Z" fill="#6CCB94"/>
<path d="M439.881 510.823C441.156 508.935 441.809 505.661 441.799 502.584C441.8 500.55 441.526 498.595 441.045 497.192C440.808 496.492 440.516 495.933 440.222 495.582C439.967 495.279 439.743 495.14 439.533 495.093L437.508 495.79C437.512 495.795 437.515 495.8 437.519 495.806C438.83 497.867 439.281 500.108 439.28 502.196C439.273 505.738 438.01 508.876 437.341 510.294L439.881 510.823ZM435.179 495.186L436.774 494.637L356.386 481.172L356.67 481.846L435.179 495.186Z" fill="#D65F2A"/>
<path d="M439.466 494.413L439.513 493.75C440.215 493.798 440.805 494.198 441.243 494.731C441.906 495.538 442.349 496.688 442.661 498.046C442.968 499.404 443.126 500.97 443.127 502.584C443.116 506.037 442.429 509.7 440.69 511.968C440.534 512.169 440.279 512.264 440.03 512.212L361.472 495.891C361.259 495.847 361.081 495.699 360.996 495.5L354.692 480.576C354.598 480.353 354.633 480.095 354.783 479.904C354.933 479.716 355.176 479.621 355.414 479.661L439.576 493.758L439.466 494.413L439.513 493.75L439.466 494.413L439.357 495.069L356.386 481.172L362.083 494.659L440.301 510.91L440.165 511.561L439.641 511.152C441.074 509.334 441.81 505.848 441.799 502.584C441.8 500.55 441.526 498.595 441.046 497.192C440.808 496.492 440.516 495.933 440.222 495.582C439.921 495.224 439.663 495.095 439.42 495.076L439.357 495.069L439.466 494.413Z" fill="#17282F"/>
<path d="M306.362 494.236C306.362 494.236 307.531 500.72 306.774 504.7L391.63 523.931L436.359 510.769C436.359 510.769 441.011 502.535 436.958 496.162L355.224 482.274L306.362 494.236Z" fill="white"/>
<path d="M306.363 494.235L307.016 494.117C307.019 494.138 307.692 497.856 307.693 501.461C307.693 502.629 307.623 503.788 307.427 504.825L306.774 504.7L306.921 504.051L391.609 523.245L436.172 510.132L436.359 510.769L435.782 510.442L435.802 510.407C436.028 510.001 437.96 506.284 437.953 502.196C437.952 500.295 437.547 498.325 436.398 496.52L436.959 496.162L436.848 496.817L355.248 482.952L306.521 494.882L306.363 494.235L307.016 494.117L306.363 494.235L306.205 493.589L355.066 481.628L355.334 481.618L437.07 495.506C437.254 495.539 437.418 495.647 437.519 495.806C438.83 497.866 439.281 500.108 439.281 502.196C439.271 506.991 436.959 511.046 436.937 511.098C436.852 511.246 436.712 511.36 436.547 511.407L391.817 524.57L391.484 524.58L306.627 505.348C306.278 505.269 306.055 504.928 306.122 504.574C306.296 503.664 306.365 502.575 306.365 501.461C306.365 499.739 306.202 497.954 306.037 496.606C305.955 495.932 305.873 495.367 305.81 494.97C305.749 494.575 305.709 494.354 305.709 494.354C305.647 494.008 305.865 493.673 306.205 493.589L306.363 494.235Z" fill="#17282F"/>
<path d="M439.466 494.414L355.303 480.317L303.043 493.574L390.943 511.11L439.466 494.414Z" fill="#F26F35"/>
<path d="M439.466 494.414L439.357 495.069L355.331 480.996L306.053 493.497L390.898 510.422L439.25 493.785L439.466 494.414L439.357 495.069L439.466 494.414L439.682 495.043L391.159 511.739L390.814 511.763L302.913 494.226C302.609 494.165 302.387 493.903 302.379 493.592C302.371 493.281 302.579 493.007 302.88 492.93L355.141 479.672L355.413 479.661L439.576 493.758C439.876 493.807 440.103 494.055 440.128 494.358C440.153 494.662 439.97 494.943 439.682 495.043L439.466 494.414Z" fill="#17282F"/>
<path d="M436.671 502.922L392.164 516.184L391.844 516.198L319.002 501.522C318.642 501.45 318.41 501.099 318.481 500.74C318.555 500.38 318.904 500.146 319.264 500.219L391.943 514.862L436.292 501.647C436.644 501.543 437.013 501.743 437.118 502.095C437.222 502.447 437.022 502.817 436.671 502.922Z" fill="#17282F"/>
<path d="M307.157 501.577L385.487 518.309C385.846 518.385 386.076 518.739 385.999 519.098C385.922 519.457 385.57 519.686 385.211 519.61L306.879 502.878C306.521 502.801 306.292 502.447 306.368 502.088C306.445 501.729 306.798 501.501 307.157 501.577Z" fill="#17282F"/>
<path d="M435.49 508.166L435.448 507.75L435.527 508.161L435.49 508.166L435.448 507.75L435.527 508.161C435.517 508.161 435.306 508.215 435.016 508.299C432.779 508.933 424.532 511.447 416.86 513.8C413.022 514.975 409.326 516.112 406.588 516.953C403.85 517.796 402.077 518.343 402.073 518.344C401.722 518.452 401.35 518.255 401.243 517.904C401.135 517.553 401.332 517.182 401.682 517.073C401.682 517.073 409.902 514.539 418.207 511.996C422.358 510.724 426.531 509.451 429.709 508.491C431.298 508.01 432.638 507.609 433.604 507.324C434.087 507.182 434.475 507.069 434.757 506.991C434.899 506.951 435.013 506.919 435.102 506.896C435.203 506.872 435.231 506.859 435.357 506.843C435.722 506.806 436.048 507.072 436.084 507.437C436.121 507.803 435.855 508.129 435.49 508.166Z" fill="#17282F"/>
<path d="M313.313 499.813L307.078 498.801C306.717 498.743 306.471 498.401 306.53 498.038C306.588 497.676 306.93 497.43 307.291 497.489L313.525 498.501C313.888 498.559 314.133 498.9 314.075 499.263C314.016 499.626 313.675 499.872 313.313 499.813Z" fill="#17282F"/>
<path d="M393.283 519.521L396.577 518.778C396.934 518.698 397.29 518.922 397.371 519.28C397.451 519.639 397.226 519.994 396.869 520.075L393.574 520.819C393.217 520.898 392.861 520.674 392.781 520.316C392.7 519.957 392.925 519.602 393.283 519.521Z" fill="#17282F"/>
<path d="M436.958 496.162C436.958 496.162 430.93 502.543 436.359 510.769C436.359 510.769 441.384 504.064 436.958 496.162Z" fill="#17282F"/>
<path d="M436.359 510.769C436.359 510.769 438.782 507.537 438.781 502.915C438.781 500.881 438.311 498.578 436.958 496.162C436.958 496.162 434.093 499.195 434.093 503.776C434.092 504.792 434.234 505.887 434.579 507.041C434.702 507.452 434.851 507.869 435.028 508.295C435.364 509.097 435.801 509.924 436.359 510.769Z" fill="#43535A"/>
<path d="M436.958 496.162L437.441 496.619L437.419 496.642C437.152 496.931 434.746 499.753 434.757 503.776C434.758 505.714 435.295 507.948 436.913 510.403L436.359 510.769L435.828 510.37L435.847 510.345C436.073 510.034 438.123 507.026 438.117 502.918C438.116 500.984 437.675 498.804 436.379 496.487L436.958 496.162L437.441 496.619L436.958 496.162L437.537 495.838C438.948 498.353 439.446 500.78 439.445 502.918C439.437 507.776 436.929 511.108 436.89 511.169C436.761 511.341 436.555 511.441 436.339 511.434C436.124 511.428 435.924 511.316 435.805 511.136C434.052 508.484 433.426 505.964 433.428 503.776C433.441 498.906 436.429 495.764 436.476 495.706C436.621 495.551 436.831 495.476 437.04 495.502C437.249 495.528 437.435 495.653 437.537 495.838L436.958 496.162Z" fill="#17282F"/>
<path d="M255.177 515.546L170.243 519.038L178.527 548.306L283 544.317L255.177 515.546Z" fill="white"/>
<path d="M178.527 548.306L283 544.317L255.177 515.546L170.243 519.038L171.96 525.105L178.527 548.306Z" fill="#FEC9B2"/>
<path d="M255.177 515.546L255.205 516.211L171.112 519.668L179.024 547.621L281.487 543.71L254.701 516.009L255.177 515.546L255.205 516.211L255.177 515.546L255.654 515.084L283.477 543.854C283.659 544.043 283.713 544.321 283.615 544.565C283.518 544.809 283.287 544.971 283.025 544.982L178.552 548.971C178.247 548.981 177.972 548.782 177.888 548.487L169.605 519.22C169.549 519.024 169.586 518.813 169.706 518.649C169.825 518.484 170.012 518.383 170.217 518.375L255.151 514.883C255.339 514.875 255.523 514.948 255.654 515.084L255.177 515.546Z" fill="#17282F"/>
</svg>
