<svg width="178" height="58" viewBox="0 0 178 58" fill="none" xmlns="http://www.w3.org/2000/svg">
<path d="M3.336 48L2.63604 47.7306L2.24375 48.75H3.336V48ZM18.12 9.584V8.834H17.605L17.42 9.31463L18.12 9.584ZM28.424 9.584L29.124 9.31463L28.939 8.834H28.424V9.584ZM43.208 48V48.75H44.3003L43.908 47.7306L43.208 48ZM34.192 48L33.487 48.2559L33.6663 48.75H34.192V48ZM31.448 40.44L32.153 40.1841L31.9737 39.69H31.448V40.44ZM14.704 40.44V39.69H14.1783L13.999 40.1841L14.704 40.44ZM11.96 48V48.75H12.4857L12.665 48.2559L11.96 48ZM17.112 33.72L16.4065 33.4654L16.0439 34.47H17.112V33.72ZM29.04 33.72V34.47H30.1081L29.7455 33.4654L29.04 33.72ZM25.624 24.256L26.3295 24.0014L26.3288 23.9997L25.624 24.256ZM25.064 22.8L24.3481 23.0237L24.3568 23.0515L24.3676 23.0785L25.064 22.8ZM23.776 18.768L23.0507 18.9589L23.0568 18.9822L23.0645 19.0052L23.776 18.768ZM23.216 16.864L23.9275 16.6268L23.7566 16.114H23.216V16.864ZM22.88 16.864V16.114H22.3018L22.1547 16.6731L22.88 16.864ZM22.152 19.384L22.8664 19.6126L22.8688 19.6046L22.152 19.384ZM21.256 22.128L21.9644 22.3744L21.9675 22.3652L21.256 22.128ZM20.528 24.256L21.2335 24.5106L21.2366 24.5019L21.2395 24.4932L20.528 24.256ZM4.03596 48.2694L18.82 9.85337L17.42 9.31463L2.63604 47.7306L4.03596 48.2694ZM18.12 10.334H28.424V8.834H18.12V10.334ZM27.724 9.85337L42.508 48.2694L43.908 47.7306L29.124 9.31463L27.724 9.85337ZM43.208 47.25H34.192V48.75H43.208V47.25ZM34.897 47.7441L32.153 40.1841L30.743 40.6959L33.487 48.2559L34.897 47.7441ZM31.448 39.69H14.704V41.19H31.448V39.69ZM13.999 40.1841L11.255 47.7441L12.665 48.2559L15.409 40.6959L13.999 40.1841ZM11.96 47.25H3.336V48.75H11.96V47.25ZM17.112 34.47H29.04V32.97H17.112V34.47ZM29.7455 33.4654L26.3295 24.0014L24.9185 24.5106L28.3345 33.9746L29.7455 33.4654ZM26.3288 23.9997C26.176 23.5794 25.9863 23.0863 25.7604 22.5215L24.3676 23.0785C24.5897 23.6337 24.7733 24.1113 24.9192 24.5123L26.3288 23.9997ZM25.7799 22.5763C25.5929 21.9781 25.3874 21.3241 25.1632 20.6142L23.7328 21.0658C23.9566 21.7746 24.1617 22.4272 24.3481 23.0237L25.7799 22.5763ZM25.1632 20.6142C24.9381 19.9012 24.7128 19.2068 24.4875 18.5308L23.0645 19.0052C23.2872 19.6732 23.5099 20.3601 23.7328 21.0658L25.1632 20.6142ZM24.5013 18.5771C24.3115 17.8558 24.1203 17.2052 23.9275 16.6268L22.5045 17.1012C22.685 17.6428 22.8672 18.2616 23.0507 18.9589L24.5013 18.5771ZM23.216 16.114H22.88V17.614H23.216V16.114ZM22.1547 16.6731C21.9714 17.3696 21.7319 18.1992 21.4352 19.1634L22.8688 19.6046C23.1695 18.6275 23.4152 17.7771 23.6053 17.0549L22.1547 16.6731ZM21.4377 19.1554C21.1399 20.086 20.8422 20.9978 20.5445 21.8908L21.9675 22.3652C22.2672 21.4662 22.5668 20.5487 22.8663 19.6126L21.4377 19.1554ZM20.5476 21.8816C20.2484 22.7419 20.0046 23.4546 19.8165 24.0188L21.2395 24.4932C21.4248 23.9374 21.6663 23.2314 21.9644 22.3744L20.5476 21.8816ZM19.8225 24.0014L16.4065 33.4654L17.8175 33.9746L21.2335 24.5106L19.8225 24.0014ZM47.1074 48H46.3574V48.75H47.1074V48ZM47.1074 7.512V6.762H46.3574V7.512H47.1074ZM54.8914 7.512H55.6414V6.762H54.8914V7.512ZM54.8914 48V48.75H55.6414V48H54.8914ZM47.8574 48V7.512H46.3574V48H47.8574ZM47.1074 8.262H54.8914V6.762H47.1074V8.262ZM54.1414 7.512V48H55.6414V7.512H54.1414ZM54.8914 47.25H47.1074V48.75H54.8914V47.25ZM64.4451 46.208L63.9326 46.7555L64.4451 46.208ZM61.8131 18.544V17.794H61.0631V18.544H61.8131ZM69.5971 18.544H70.3471V17.794H69.5971V18.544ZM69.9331 39.432L69.2215 39.6692L69.2259 39.6816L69.9331 39.432ZM70.8851 41L70.3548 41.5303L70.3663 41.5419L70.3783 41.5529L70.8851 41ZM72.5091 41.896L72.7207 41.1765L72.5091 41.896ZM77.7731 41.336L78.159 41.9791L77.7731 41.336ZM79.9571 39.04L80.6176 39.3956L80.6229 39.3852L79.9571 39.04ZM80.7411 18.544V17.794H79.9911V18.544H80.7411ZM88.5251 18.544H89.2751V17.794H88.5251V18.544ZM88.5251 48V48.75H89.2751V48H88.5251ZM82.1411 48L81.3983 48.1032L81.4881 48.75H82.1411V48ZM81.5811 43.968L82.324 43.8648L82.2342 43.218H81.5811V43.968ZM81.1891 43.968V43.218H80.8171L80.592 43.5142L81.1891 43.968ZM78.6691 46.432L78.2265 45.8264L78.2153 45.8349L78.6691 46.432ZM75.4771 48.056L75.2534 47.3401L75.2433 47.3433L75.2333 47.3467L75.4771 48.056ZM71.5571 47.922C68.7124 47.922 66.5417 47.1434 64.9577 45.6605L63.9326 46.7555C65.8579 48.558 68.4285 49.422 71.5571 49.422V47.922ZM64.9577 45.6605C63.4183 44.2194 62.5631 41.8147 62.5631 38.256H61.0631C61.0631 42.0146 61.9626 44.9113 63.9326 46.7555L64.9577 45.6605ZM62.5631 38.256V18.544H61.0631V38.256H62.5631ZM61.8131 19.294H69.5971V17.794H61.8131V19.294ZM68.8471 18.544V36.968H70.3471V18.544H68.8471ZM68.8471 36.968C68.8471 37.9916 68.9646 38.8982 69.2216 39.6692L70.6446 39.1948C70.4536 38.6218 70.3471 37.8857 70.3471 36.968H68.8471ZM69.2259 39.6816C69.4812 40.4052 69.8533 41.0288 70.3548 41.5303L71.4155 40.4697C71.0956 40.1498 70.833 39.7282 70.6404 39.1824L69.2259 39.6816ZM70.3783 41.5529C70.918 42.0476 71.5629 42.3995 72.2975 42.6155L72.7207 41.1765C72.186 41.0192 71.7483 40.7738 71.3919 40.4471L70.3783 41.5529ZM72.2975 42.6155C73.0122 42.8257 73.7943 42.926 74.6371 42.926V41.426C73.9119 41.426 73.2754 41.3396 72.7207 41.1765L72.2975 42.6155ZM74.6371 42.926C75.9214 42.926 77.1017 42.6135 78.159 41.9791L77.3873 40.6929C76.5779 41.1785 75.6675 41.426 74.6371 41.426V42.926ZM78.159 41.9791C79.2096 41.3488 80.0317 40.4834 80.6175 39.3956L79.2968 38.6844C78.8372 39.5379 78.2033 40.2032 77.3873 40.6929L78.159 41.9791ZM80.6229 39.3852C81.2055 38.2617 81.4911 37.0217 81.4911 35.68H79.9911C79.9911 36.8023 79.7541 37.8023 79.2913 38.6948L80.6229 39.3852ZM81.4911 35.68V18.544H79.9911V35.68H81.4911ZM80.7411 19.294H88.5251V17.794H80.7411V19.294ZM87.7751 18.544V48H89.2751V18.544H87.7751ZM88.5251 47.25H82.1411V48.75H88.5251V47.25ZM82.884 47.8968L82.324 43.8648L80.8383 44.0712L81.3983 48.1032L82.884 47.8968ZM81.5811 43.218H81.1891V44.718H81.5811V43.218ZM80.592 43.5142C79.9277 44.3883 79.1402 45.1588 78.2266 45.8265L79.1116 47.0375C80.1394 46.2865 81.0319 45.4144 81.7862 44.4218L80.592 43.5142ZM78.2153 45.8349C77.3558 46.4881 76.3707 46.991 75.2534 47.3401L75.7008 48.7719C76.9729 48.3744 78.1158 47.7945 79.1229 47.0291L78.2153 45.8349ZM75.2333 47.3467C74.1261 47.7273 72.9029 47.922 71.5571 47.922V49.422C73.0487 49.422 74.4388 49.206 75.7209 48.7653L75.2333 47.3467ZM95.6699 48H94.9199V48.75H95.6699V48ZM95.6699 18.544V17.794H94.9199V18.544H95.6699ZM102.11 18.544L102.851 18.4307L102.754 17.794H102.11V18.544ZM102.726 22.576L101.985 22.6893L102.082 23.326H102.726V22.576ZM103.118 22.576V23.326H103.511L103.735 23.0029L103.118 22.576ZM105.526 20.056L105.083 19.4503L105.072 19.4589L105.526 20.056ZM108.774 18.432L108.998 19.1479L108.774 18.432ZM117.79 18.936L118.118 18.2618L117.79 18.936ZM121.15 22.296L120.482 22.6379L120.486 22.6443L120.489 22.6506L121.15 22.296ZM122.382 48V48.75H123.132V48H122.382ZM114.598 48H113.848V48.75H114.598V48ZM114.262 27.168L113.55 27.4052L113.555 27.4176L114.262 27.168ZM113.254 25.544L112.701 26.0508L112.723 26.0748L112.747 26.0969L113.254 25.544ZM111.686 24.592L111.898 23.8725L111.686 24.592ZM106.422 25.152L106.036 24.5089L106.422 25.152ZM103.454 48V48.75H104.204V48H103.454ZM96.4199 48V18.544H94.9199V48H96.4199ZM95.6699 19.294H102.11V17.794H95.6699V19.294ZM101.369 18.6573L101.985 22.6893L103.467 22.4627L102.851 18.4307L101.369 18.6573ZM102.726 23.326H103.118V21.826H102.726V23.326ZM103.735 23.0029C104.362 22.0967 105.11 21.3143 105.98 20.6531L105.072 19.4589C104.075 20.2164 103.218 21.1139 102.501 22.1491L103.735 23.0029ZM105.968 20.6615C106.87 20.0027 107.878 19.4977 108.998 19.1479L108.55 17.7161C107.28 18.113 106.123 18.6906 105.083 19.4505L105.968 20.6615ZM108.998 19.1479C110.111 18.7999 111.341 18.622 112.694 18.622V17.122C111.209 17.122 109.826 17.3174 108.55 17.7161L108.998 19.1479ZM112.694 18.622C114.544 18.622 116.126 18.9597 117.461 19.6102L118.118 18.2618C116.542 17.4936 114.727 17.122 112.694 17.122V18.622ZM117.461 19.6102C118.762 20.2439 119.768 21.2423 120.482 22.6379L121.817 21.9541C120.964 20.2884 119.73 19.0468 118.118 18.2618L117.461 19.6102ZM120.489 22.6506C121.233 24.0362 121.632 25.8991 121.632 28.288H123.132C123.132 25.7489 122.71 23.6172 121.811 21.9414L120.489 22.6506ZM121.632 28.288V48H123.132V28.288H121.632ZM122.382 47.25H114.598V48.75H122.382V47.25ZM115.348 48V29.52H113.848V48H115.348ZM115.348 29.52C115.348 28.5321 115.23 27.6576 114.969 26.9184L113.555 27.4176C113.742 27.9477 113.848 28.6413 113.848 29.52H115.348ZM114.973 26.9308C114.716 26.1581 114.317 25.5012 113.761 24.9911L112.747 26.0969C113.087 26.4081 113.36 26.8339 113.55 27.4052L114.973 26.9308ZM113.807 25.0372C113.296 24.4797 112.651 24.0941 111.898 23.8725L111.474 25.3115C111.99 25.4632 112.391 25.7123 112.701 26.0508L113.807 25.0372ZM111.898 23.8725C111.183 23.6623 110.401 23.562 109.558 23.562V25.062C110.283 25.062 110.92 25.1484 111.474 25.3115L111.898 23.8725ZM109.558 23.562C108.274 23.562 107.093 23.8745 106.036 24.5089L106.808 25.7951C107.617 25.3095 108.528 25.062 109.558 25.062V23.562ZM106.036 24.5089C104.985 25.1392 104.163 26.0046 103.578 27.0924L104.898 27.8036C105.358 26.9501 105.992 26.2848 106.808 25.7951L106.036 24.5089ZM103.578 27.0924C102.988 28.1879 102.704 29.4335 102.704 30.808H104.204C104.204 29.6438 104.443 28.6494 104.898 27.8036L103.578 27.0924ZM102.704 30.808V48H104.204V30.808H102.704ZM103.454 47.25H95.6699V48.75H103.454V47.25ZM134.733 47.048L134.398 47.7189L134.407 47.7233L134.733 47.048ZM129.637 41.952L128.967 42.2874L128.969 42.2918L129.637 41.952ZM129.637 24.592L130.304 24.9363L130.306 24.9318L129.637 24.592ZM134.733 19.552L135.06 20.2273L135.069 20.2228L134.733 19.552ZM151.141 19.552L150.801 20.2205L150.808 20.224L150.815 20.2273L151.141 19.552ZM156.237 24.592L155.569 24.9318L155.571 24.9363L156.237 24.592ZM156.237 41.952L156.906 42.2918L156.908 42.2874L156.237 41.952ZM151.141 47.048L151.472 47.7211L151.477 47.7188L151.141 47.048ZM146.997 41.672L146.608 41.0308L146.598 41.0373L146.997 41.672ZM149.293 27.784L149.997 27.5229L149.293 27.784ZM146.997 24.872L146.581 25.496L146.595 25.5048L146.608 25.5131L146.997 24.872ZM138.821 24.872L139.221 25.5067L139.227 25.5029L138.821 24.872ZM136.581 27.784L135.878 27.5229L136.581 27.784ZM136.581 38.76L135.878 39.0211L136.581 38.76ZM138.821 41.672L138.422 42.3068L138.432 42.3131L138.821 41.672ZM142.909 47.922C139.78 47.922 137.173 47.3941 135.06 46.3727L134.407 47.7233C136.774 48.8673 139.617 49.422 142.909 49.422V47.922ZM135.069 46.3772C132.976 45.3305 131.392 43.7495 130.306 41.6122L128.969 42.2918C130.197 44.7092 132.011 46.5255 134.398 47.7188L135.069 46.3772ZM130.308 41.6166C129.218 39.4354 128.651 36.6655 128.651 33.272H127.151C127.151 36.8225 127.743 39.8393 128.967 42.2874L130.308 41.6166ZM128.651 33.272C128.651 29.7993 129.219 27.0355 130.304 24.9363L128.971 24.2477C127.741 26.6285 127.151 29.6513 127.151 33.272H128.651ZM130.306 24.9318C131.391 22.7965 132.972 21.2365 135.06 20.2273L134.407 18.8767C132.015 20.0328 130.198 21.8329 128.969 24.2522L130.306 24.9318ZM135.069 20.2228C137.18 19.1675 139.783 18.622 142.909 18.622V17.122C139.614 17.122 136.767 17.6965 134.398 18.8812L135.069 20.2228ZM142.909 18.622C146.114 18.622 148.733 19.1688 150.801 20.2205L151.481 18.8835C149.145 17.6952 146.276 17.122 142.909 17.122V18.622ZM150.815 20.2273C152.903 21.2365 154.484 22.7965 155.569 24.9318L156.906 24.2522C155.677 21.8329 153.86 20.0328 151.468 18.8767L150.815 20.2273ZM155.571 24.9363C156.656 27.0355 157.223 29.7993 157.223 33.272H158.723C158.723 29.6513 158.134 26.6285 156.904 24.2477L155.571 24.9363ZM157.223 33.272C157.223 36.6655 156.657 39.4354 155.567 41.6166L156.908 42.2874C158.132 39.8393 158.723 36.8225 158.723 33.272H157.223ZM155.569 41.6122C154.483 43.7495 152.899 45.3305 150.806 46.3772L151.477 47.7188C153.864 46.5255 155.678 44.7092 156.906 42.2918L155.569 41.6122ZM150.811 46.3749C148.74 47.3928 146.117 47.922 142.909 47.922V49.422C146.272 49.422 149.138 48.8685 151.472 47.7211L150.811 46.3749ZM142.909 43.374C144.709 43.374 146.228 43.043 147.397 42.3067L146.598 41.0373C145.751 41.5703 144.545 41.874 142.909 41.874V43.374ZM147.387 42.3131C148.596 41.5787 149.461 40.4629 149.997 39.0211L148.59 38.4989C148.155 39.6704 147.489 40.496 146.608 41.0309L147.387 42.3131ZM149.997 39.0211C150.522 37.6065 150.771 35.9067 150.771 33.944H149.271C149.271 35.7893 149.036 37.3002 148.59 38.4989L149.997 39.0211ZM150.771 33.944V32.6H149.271V33.944H150.771ZM150.771 32.6C150.771 30.6373 150.522 28.9375 149.997 27.5229L148.59 28.0451C149.036 29.2438 149.271 30.7547 149.271 32.6H150.771ZM149.997 27.5229C149.461 26.0811 148.596 24.9653 147.387 24.2309L146.608 25.5131C147.489 26.048 148.155 26.8736 148.59 28.0451L149.997 27.5229ZM147.413 24.248C146.241 23.4662 144.716 23.114 142.909 23.114V24.614C144.538 24.614 145.738 24.9338 146.581 25.496L147.413 24.248ZM142.909 23.114C141.135 23.114 139.618 23.4685 138.416 24.2411L139.227 25.5029C140.116 24.9315 141.324 24.614 142.909 24.614V23.114ZM138.422 24.2373C137.252 24.9741 136.411 26.089 135.878 27.5229L137.285 28.0451C137.723 26.8656 138.375 26.0392 139.221 25.5067L138.422 24.2373ZM135.878 27.5229C135.353 28.9375 135.103 30.6373 135.103 32.6H136.603C136.603 30.7547 136.839 29.2438 137.285 28.0451L135.878 27.5229ZM135.103 32.6V33.944H136.603V32.6H135.103ZM135.103 33.944C135.103 35.9067 135.353 37.6065 135.878 39.0211L137.285 38.4989C136.839 37.3002 136.603 35.7893 136.603 33.944H135.103ZM135.878 39.0211C136.411 40.455 137.252 41.5699 138.422 42.3067L139.221 41.0373C138.375 40.5048 137.723 39.6784 137.285 38.4989L135.878 39.0211ZM138.432 42.3131C139.631 43.0408 141.141 43.374 142.909 43.374V41.874C141.317 41.874 140.103 41.5725 139.211 41.0309L138.432 42.3131ZM164.317 57.464H163.567V58.3349L164.428 58.2057L164.317 57.464ZM164.317 54.216L164.199 53.4754L163.567 53.5765V54.216H164.317ZM166.669 53.096L166.173 52.5336L166.164 52.5416L166.155 52.5499L166.669 53.096ZM168.125 50.912L167.423 50.6487L168.125 50.912ZM168.629 48H169.379V47.25H168.629V48ZM164.653 48H163.903V48.75H164.653V48ZM164.653 39.992V39.242H163.903V39.992H164.653ZM172.773 39.992H173.523V39.242H172.773V39.992ZM171.597 52.76L170.941 52.3972L171.597 52.76ZM168.461 56.008L168.089 55.3568L168.081 55.3615L168.461 56.008ZM165.067 57.464V54.216H163.567V57.464H165.067ZM164.436 54.9566C165.504 54.7856 166.43 54.3512 167.183 53.6422L166.155 52.5499C165.639 53.0355 164.997 53.3477 164.199 53.4754L164.436 54.9566ZM167.165 53.6584C167.904 53.007 168.454 52.1712 168.827 51.1753L167.423 50.6487C167.124 51.4448 166.704 52.065 166.173 52.5336L167.165 53.6584ZM168.827 51.1753C169.198 50.1877 169.379 49.1269 169.379 48H167.879C167.879 48.9637 167.725 49.8443 167.423 50.6487L168.827 51.1753ZM168.629 47.25H164.653V48.75H168.629V47.25ZM165.403 48V39.992H163.903V48H165.403ZM164.653 40.742H172.773V39.242H164.653V40.742ZM172.023 39.992V47.216H173.523V39.992H172.023ZM172.023 47.216C172.023 49.415 171.644 51.1255 170.941 52.3972L172.254 53.1228C173.119 51.5571 173.523 49.5716 173.523 47.216H172.023ZM170.941 52.3972C170.218 53.7051 169.267 54.6837 168.089 55.3568L168.833 56.6592C170.269 55.839 171.408 54.6522 172.254 53.1228L170.941 52.3972ZM168.081 55.3615C166.896 56.0583 165.607 56.5122 164.206 56.7223L164.428 58.2057C166.014 57.9678 167.487 57.451 168.841 56.6544L168.081 55.3615Z" fill="#FAFAFA" fill-opacity="0.75"/>
<path d="M0.336 45L15.12 6.584H25.424L40.208 45H31.192L28.448 37.44H11.704L8.96 45H0.336ZM14.112 30.72H26.04L22.624 21.256C22.4747 20.8453 22.288 20.36 22.064 19.8C21.8773 19.2027 21.672 18.5493 21.448 17.84C21.224 17.1307 21 16.44 20.776 15.768C20.5893 15.0587 20.4027 14.424 20.216 13.864H19.88C19.6933 14.5733 19.4507 15.4133 19.152 16.384C18.8533 17.3173 18.5547 18.232 18.256 19.128C17.9573 19.9867 17.7147 20.696 17.528 21.256L14.112 30.72ZM44.1074 45V4.512H51.8914V45H44.1074ZM68.5571 45.672C65.5705 45.672 63.1998 44.8507 61.4451 43.208C59.6905 41.5653 58.8131 38.9147 58.8131 35.256V15.544H66.5971V33.968C66.5971 34.9387 66.7091 35.76 66.9331 36.432C67.1571 37.0667 67.4745 37.5893 67.8851 38C68.3331 38.4107 68.8745 38.7093 69.5091 38.896C70.1438 39.0827 70.8531 39.176 71.6371 39.176C72.7945 39.176 73.8398 38.896 74.7731 38.336C75.7065 37.776 76.4345 37.0107 76.9571 36.04C77.4798 35.032 77.7411 33.912 77.7411 32.68V15.544H85.5251V45H79.1411L78.5811 40.968H78.1891C77.4798 41.9013 76.6398 42.7227 75.6691 43.432C74.7358 44.1413 73.6718 44.6827 72.4771 45.056C71.2825 45.4667 69.9758 45.672 68.5571 45.672ZM92.6699 45V15.544H99.1099L99.7259 19.576H100.118C100.79 18.6053 101.593 17.7653 102.526 17.056C103.497 16.3467 104.579 15.8053 105.774 15.432C106.969 15.0587 108.275 14.872 109.694 14.872C111.635 14.872 113.334 15.2267 114.79 15.936C116.246 16.6453 117.366 17.7653 118.15 19.296C118.971 20.8267 119.382 22.824 119.382 25.288V45H111.598V26.52C111.598 25.5867 111.486 24.8027 111.262 24.168C111.038 23.496 110.702 22.9547 110.254 22.544C109.843 22.096 109.321 21.7787 108.686 21.592C108.051 21.4053 107.342 21.312 106.558 21.312C105.401 21.312 104.355 21.592 103.422 22.152C102.489 22.712 101.761 23.4773 101.238 24.448C100.715 25.4187 100.454 26.5387 100.454 27.808V45H92.6699ZM139.909 45.672C136.699 45.672 133.973 45.1307 131.733 44.048C129.493 42.928 127.795 41.2293 126.637 38.952C125.48 36.6373 124.901 33.744 124.901 30.272C124.901 26.7253 125.48 23.832 126.637 21.592C127.795 19.3147 129.493 17.6347 131.733 16.552C133.973 15.432 136.699 14.872 139.909 14.872C143.195 14.872 145.939 15.432 148.141 16.552C150.381 17.6347 152.08 19.3147 153.237 21.592C154.395 23.832 154.973 26.7253 154.973 30.272C154.973 33.744 154.395 36.6373 153.237 38.952C152.08 41.2293 150.381 42.928 148.141 44.048C145.939 45.1307 143.195 45.672 139.909 45.672ZM139.909 39.624C141.627 39.624 142.989 39.3067 143.997 38.672C145.043 38.0373 145.808 37.0667 146.293 35.76C146.779 34.4533 147.021 32.848 147.021 30.944V29.6C147.021 27.696 146.779 26.0907 146.293 24.784C145.808 23.4773 145.043 22.5067 143.997 21.872C142.989 21.2 141.627 20.864 139.909 20.864C138.229 20.864 136.867 21.2 135.821 21.872C134.813 22.5067 134.067 23.4773 133.581 24.784C133.096 26.0907 132.853 27.696 132.853 29.6V30.944C132.853 32.848 133.096 34.4533 133.581 35.76C134.067 37.0667 134.813 38.0373 135.821 38.672C136.867 39.3067 138.229 39.624 139.909 39.624ZM161.317 54.464V51.216C162.251 51.0667 163.035 50.6933 163.669 50.096C164.304 49.536 164.789 48.808 165.125 47.912C165.461 47.016 165.629 46.0453 165.629 45H161.653V36.992H169.773V44.216C169.773 46.4933 169.381 48.3413 168.597 49.76C167.813 51.1787 166.768 52.2613 165.461 53.008C164.192 53.7547 162.811 54.24 161.317 54.464Z" fill="#EE7844"/>
</svg>
