<svg width="587" height="572" viewBox="0 0 587 572" fill="none" xmlns="http://www.w3.org/2000/svg">
<mask id="path-1-inside-1_11_709" fill="white">
<path d="M351.399 570.904C303.388 566.144 248.393 550.682 208.641 530.768C193.864 523.366 175.296 512.508 169.85 508.085L165.382 504.457L192.246 501.704C304.634 490.188 437.1 460.768 579.968 415.594C626.132 400.998 635.644 397.444 634.757 395.128C634.345 394.051 624.406 358.822 612.672 316.84C600.937 274.859 590.885 240.055 590.333 239.498C589.781 238.941 577.393 244 562.805 250.739C519.899 270.559 469.408 285.796 416.147 294.995C396.015 298.473 365.412 302.325 364.305 301.521C363.468 300.913 398.682 230.933 409.161 212.382C449.527 140.92 491.285 88.344 547.204 38.581C560.075 27.1263 578.68 11.9789 588.549 4.92017C609.482 -10.0532 666.218 -46.245 668.735 -46.23C676.73 -46.1822 711.383 -5.69035 730.919 26.4323C765.316 82.9924 781.964 141.958 782 207.365C782.022 247.716 776.601 280.972 763.934 318.191C719.217 449.582 599.266 545.721 452.138 568.092C428.394 571.702 374.595 573.204 351.399 570.904Z"/>
<path d="M43.0277 375.157C42.0695 373.297 38.8196 367.204 35.8058 361.617C21.2428 334.624 7.7707 291.139 2.57083 254.344C-0.511061 232.536 -0.895426 188.082 1.8162 167.065C6.86252 127.951 18.1834 90.5397 35.5973 55.4319C47.4189 31.5985 63.8402 5.52187 75.7302 -8.29839C81.4834 -14.9855 82.9377 -15.971 83.8011 -13.7677C84.3803 -12.2896 91.5119 8.25797 99.6489 31.8934C107.786 55.5288 114.926 75.3026 115.517 75.8353C116.107 76.3679 129.227 70.9657 144.673 63.8305C224.277 27.0575 293.884 5.52997 327.829 7.1855L337.803 7.67191L321.588 25.6672C239.368 116.915 157.603 220.673 67.6463 347.917C56.2641 364.017 46.4606 377.493 45.8606 377.865C45.2606 378.236 43.9858 377.018 43.0277 375.157Z"/>
<path d="M172.757 -94.0782C180.459 -100.054 206.935 -114.69 222.636 -121.653C283.632 -148.7 356.745 -161.222 421.623 -155.733C444.129 -153.829 469.751 -148.901 465.293 -147.335C464.006 -146.882 452.773 -146.094 440.33 -145.583C362.087 -142.369 287.675 -128.295 196.237 -99.4173C182.55 -95.0945 170.965 -91.5801 170.494 -91.6074C170.022 -91.634 171.041 -92.7466 172.757 -94.0782Z"/>
<path d="M82.5349 467.437C79.0222 464.132 63.2472 444.762 54.9622 433.581C52.8169 430.686 50.3596 427.55 49.5015 426.611C45.3003 422.018 39.3602 413.187 39.3602 411.535C39.3602 410.512 42.3667 405.367 46.0413 400.101C49.7159 394.835 54.7696 386.659 57.2716 381.932C59.7737 377.205 63.9636 370.401 66.5825 366.813C69.2014 363.224 73.0994 357.745 75.2447 354.638C77.3899 351.53 80.9004 346.584 83.0457 343.647C85.1909 340.709 88.7014 335.787 90.8466 332.708C92.9919 329.629 96.5023 324.707 98.6476 321.769C100.793 318.832 104.303 313.935 106.449 310.887C112.094 302.865 113.557 300.862 120.899 291.102C124.536 286.267 128.564 280.74 129.852 278.82C133.793 272.94 170.88 223.372 171.961 222.539C172.519 222.11 176.036 217.539 179.778 212.382C183.519 207.225 186.985 202.654 187.479 202.225C187.972 201.795 190.453 198.63 192.992 195.193C195.53 191.755 198.334 188.174 199.224 187.236C200.113 186.298 202.596 183.189 204.741 180.327C209.989 173.325 231.828 146.041 235.197 142.278C236.073 141.3 239.583 137.003 242.998 132.731C249.64 124.419 252.677 120.726 257.551 115.03C259.241 113.055 262.86 108.692 265.591 105.335C268.323 101.979 272.073 97.5652 273.924 95.5277C275.775 93.4901 280.098 88.4389 283.531 84.3029C286.963 80.1669 290.861 75.6486 292.192 74.2622C293.523 72.8758 299.139 66.5112 304.673 60.1186C310.207 53.7259 315.788 47.3512 317.075 45.9524C318.362 44.5536 326.436 35.814 335.017 26.5309C352.731 7.36818 352.793 7.28084 353.562 0.670334C353.994 -3.04767 353.085 -5.24458 349.72 -8.6152C344.678 -13.6653 339.108 -15.1724 332.093 -13.3851C329.411 -12.7017 320.546 -11.7621 312.394 -11.297C304.242 -10.832 295.845 -10.0775 293.734 -9.62035C291.623 -9.16321 287.06 -8.38947 283.593 -7.90088C280.126 -7.41229 272.868 -5.92676 267.463 -4.59966C262.059 -3.27258 256.793 -2.01228 255.762 -1.79913C251.447 -0.906998 244.266 0.979568 240.625 2.17746C238.48 2.88341 231.459 5.04524 225.023 6.98161C205.379 12.892 163.543 27.9807 148.574 34.5542L138.197 39.1108C135.493 40.298 132.492 41.2694 131.527 41.2694C129.653 41.2694 127.235 35.9595 125.975 29.0784C125.551 26.759 124.838 23.1033 124.391 20.9547C123.944 18.806 123.223 14.9384 122.788 12.36C122.352 9.78152 121.67 5.91396 121.27 3.76527C120.871 1.61659 120.116 -2.60265 119.594 -5.61081C119.071 -8.61891 118.467 -11.7833 118.251 -12.6428C118.035 -13.5023 117.404 -15.9635 116.85 -18.1122C111.733 -37.9459 111.076 -53.1484 115.16 -57.1768C116.804 -58.7991 128.597 -63.6816 141.366 -68.0268C154.134 -72.3721 166.772 -77.249 169.449 -78.8644C172.127 -80.4799 183.795 -84.7619 195.38 -88.38C206.964 -91.998 219.251 -95.8785 222.683 -97.0031C226.115 -98.1278 232.083 -99.9054 235.945 -100.953C239.806 -102.001 244.721 -103.464 246.866 -104.203C249.011 -104.942 253.926 -106.287 257.787 -107.191C261.649 -108.096 266.037 -109.167 267.539 -109.573C269.04 -109.978 271.673 -110.661 273.389 -111.091C275.106 -111.521 277.738 -112.204 279.24 -112.61C285.815 -114.385 294.859 -116.461 299.781 -117.324C302.713 -117.838 305.58 -118.55 306.153 -118.905C306.727 -119.259 309.243 -119.925 311.745 -120.383C314.248 -120.841 317.699 -121.492 319.415 -121.83C322.252 -122.387 330.228 -123.668 340.478 -125.211C342.623 -125.534 346.484 -126.141 349.059 -126.559C351.633 -126.976 356.899 -127.751 360.76 -128.281C364.622 -128.81 369.536 -129.5 371.682 -129.814C388.324 -132.25 407.776 -133.954 442.671 -136.031C447.819 -136.337 462.212 -135.898 474.654 -135.055C495.474 -133.644 499.081 -132.917 519.9 -125.929C565.878 -110.498 608.454 -88.9622 634.544 -67.9404C649.003 -56.2902 651.872 -52.4359 649.452 -47.9077C648.503 -46.1312 646.988 -44.6776 646.086 -44.6776C645.184 -44.6776 641.523 -42.6581 637.95 -40.1899C629.907 -34.6332 579.928 -1.20689 564.687 8.80963C558.503 12.8732 552.101 17.0924 550.46 18.1857C546.707 20.6846 531.499 32.8406 525.558 38.0895C523.092 40.2682 520.459 41.8749 519.707 41.66C518.955 41.4452 518.34 42.3242 518.34 43.6134C518.34 44.9026 517.462 45.9737 516.39 45.9937C515.317 46.0158 511.631 48.5329 508.199 51.5921C504.766 54.6513 497.795 60.788 492.707 65.2293C471.723 83.5455 463.482 91.3023 442.671 112.326C419.399 135.835 411.602 144.278 402.89 155.407C399.889 159.24 396.027 163.87 394.309 165.696C390.623 169.612 388.818 171.871 379.483 184.248C371.657 194.623 371.456 194.912 358.627 214.227C353.592 221.807 348.279 229.767 346.82 231.915C345.361 234.064 343.684 236.877 343.092 238.166C342.501 239.455 340.275 243.323 338.147 246.761C336.018 250.199 329.88 261.802 324.506 272.545C319.132 283.288 314.12 292.526 313.369 293.073C312.618 293.62 311.93 296.892 311.839 300.344C311.711 305.234 312.53 307.336 315.545 309.858C319.202 312.917 320.877 313.06 345.938 312.438C360.526 312.076 374.568 311.426 377.142 310.995C382.702 310.064 393.917 308.497 400.79 307.691C403.499 307.374 409.818 306.389 414.832 305.503C419.846 304.617 426.054 303.522 428.629 303.071C432.977 302.308 436.323 301.664 444.237 300.068C445.956 299.722 450.169 298.694 453.598 297.785C457.027 296.876 461.588 295.784 463.733 295.357C465.878 294.931 469.389 294.124 471.534 293.563C473.679 293.002 477.374 292.182 479.744 291.74C482.115 291.298 484.438 290.315 484.907 289.554C485.376 288.794 487.1 288.172 488.738 288.172C491.805 288.172 514.382 280.919 547.204 269.389L547.296 269.357C565.607 262.925 571.331 260.914 573.869 262.929C575.023 263.845 575.519 265.594 576.24 268.138L576.248 268.167C578.658 276.67 578.822 277.275 579.876 281.53C580.356 283.464 581.099 286.453 581.528 288.172L583.088 294.422L584.648 300.673L586.208 306.924L587.769 313.174L589.329 319.425L590.889 325.676L592.449 331.926L594.009 338.177L595.57 344.428L597.13 350.679L598.69 356.929C600.589 364.536 601.238 367.332 601.959 370.993C602.382 373.142 603.294 377.011 603.987 379.592C605.898 386.714 605.039 392.126 602.037 391.872C600.625 391.753 599.47 392.311 599.47 393.113C599.47 393.915 598.592 394.392 597.52 394.174C596.447 393.956 594.127 394.579 592.365 395.559C590.602 396.539 586.389 397.683 583.003 398.1C576.338 398.921 575.103 399.188 561.635 402.722C556.701 404.016 552.664 404.704 552.664 404.251C552.664 403.798 551.611 404.302 550.324 405.372C549.037 406.442 547.984 406.929 547.984 406.454C547.984 405.979 545.702 406.261 542.913 407.081C540.124 407.902 535.385 408.977 532.382 409.471C529.378 409.965 526.511 410.621 526.01 410.928C525.508 411.235 522.7 411.908 519.769 412.422C516.838 412.937 511.28 414.08 507.419 414.964C503.557 415.847 499.345 416.798 498.057 417.077C492.851 418.204 448.588 427.134 444.231 427.936C432.846 430.033 430.347 430.575 429.41 431.156C428.861 431.495 424.95 432.237 420.719 432.804C416.488 433.372 412.661 434.054 412.214 434.32C411.767 434.587 408.256 435.253 404.413 435.8C400.569 436.348 387.245 438.471 374.802 440.52C362.359 442.568 349.371 444.656 345.938 445.16C342.506 445.663 338.645 446.394 337.357 446.784C336.07 447.174 331.858 447.814 327.996 448.207C319.08 449.115 306.299 450.843 302.253 451.688C300.537 452.046 296.324 452.696 292.892 453.132L281.19 454.616C278.187 454.997 273.974 455.626 271.829 456.013C269.684 456.4 263.716 457.113 258.568 457.596C253.419 458.08 247.802 458.752 246.086 459.089C243.2 459.657 231.215 460.965 214.102 462.58C210.24 462.945 203.922 463.578 200.06 463.987C173.322 466.82 132.987 469.666 111.545 470.232C87.0742 470.88 86.0922 470.785 82.5349 467.437Z"/>
</mask>
<path d="M583.088 294.422L583.816 294.241V294.241L583.088 294.422ZM584.648 300.673L585.376 300.491L584.648 300.673ZM586.208 306.924L586.936 306.742V306.742L586.208 306.924ZM587.769 313.174L588.496 312.993V312.993L587.769 313.174ZM589.329 319.425L590.056 319.243V319.243L589.329 319.425ZM590.889 325.676L591.617 325.494V325.494L590.889 325.676ZM592.449 331.926L593.177 331.745L592.449 331.926ZM594.009 338.177L594.737 337.996V337.996L594.009 338.177ZM595.57 344.428L596.297 344.246L595.57 344.428ZM597.13 350.679L597.857 350.497V350.497L597.13 350.679ZM148.272 33.8675C145.269 35.1863 140.599 37.2368 137.895 38.424L138.498 39.7975C141.202 38.6103 145.872 36.5598 148.875 35.2409L148.272 33.8675ZM580.8 288.353C581.229 290.072 581.931 292.885 582.36 294.604L583.816 294.241C583.387 292.522 582.685 289.709 582.255 287.99L580.8 288.353ZM582.36 294.604C582.789 296.323 583.492 299.136 583.921 300.855L585.376 300.491C584.947 298.772 584.245 295.96 583.816 294.241L582.36 294.604ZM583.921 300.855C584.349 302.574 585.052 305.386 585.481 307.105L586.936 306.742C586.507 305.023 585.805 302.21 585.376 300.491L583.921 300.855ZM585.481 307.105C585.91 308.824 586.612 311.637 587.041 313.356L588.496 312.993C588.067 311.274 587.365 308.461 586.936 306.742L585.481 307.105ZM587.041 313.356C587.47 315.075 588.172 317.888 588.601 319.607L590.056 319.243C589.627 317.525 588.925 314.712 588.496 312.993L587.041 313.356ZM588.601 319.607C589.03 321.326 589.732 324.138 590.161 325.857L591.617 325.494C591.188 323.775 590.485 320.962 590.056 319.243L588.601 319.607ZM590.161 325.857C590.59 327.576 591.292 330.389 591.721 332.108L593.177 331.745C592.748 330.026 592.046 327.213 591.617 325.494L590.161 325.857ZM591.721 332.108C592.15 333.827 592.853 336.64 593.282 338.359L594.737 337.996C594.308 336.277 593.606 333.464 593.177 331.745L591.721 332.108ZM593.282 338.359C593.711 340.078 594.413 342.891 594.842 344.61L596.297 344.246C595.868 342.527 595.166 339.714 594.737 337.996L593.282 338.359ZM594.842 344.609C595.271 346.328 595.973 349.141 596.402 350.86L597.857 350.497C597.428 348.778 596.726 345.965 596.297 344.246L594.842 344.609ZM596.402 350.86C596.831 352.579 597.533 355.392 597.962 357.111L599.418 356.748C598.989 355.029 598.286 352.216 597.857 350.497L596.402 350.86ZM292.797 452.388C289.365 452.824 284.099 453.492 281.096 453.872L281.285 455.361C284.288 454.98 289.554 454.312 292.986 453.876L292.797 452.388ZM576.97 267.962C576.968 267.958 576.967 267.954 576.966 267.949C576.965 267.944 576.963 267.939 576.962 267.934L575.518 268.342C575.52 268.347 575.521 268.351 575.522 268.356C575.523 268.36 575.525 268.366 575.526 268.371L576.97 267.962ZM547.048 268.649C547 268.666 547.003 268.665 546.955 268.682L547.452 270.097C547.466 270.092 547.531 270.069 547.545 270.064L547.048 268.649ZM351.399 570.904L351.547 569.411L351.399 570.904ZM208.641 530.768L207.969 532.109H207.969L208.641 530.768ZM169.85 508.085L170.795 506.921H170.795L169.85 508.085ZM165.382 504.457L165.229 502.965L161.621 503.335L164.437 505.622L165.382 504.457ZM192.246 501.704L192.399 503.197L192.246 501.704ZM579.968 415.594L579.515 414.164L579.968 415.594ZM634.757 395.128L633.356 395.664L633.356 395.664L634.757 395.128ZM590.333 239.498L591.398 238.442L591.398 238.442L590.333 239.498ZM562.805 250.739L563.435 252.1L562.805 250.739ZM416.147 294.995L416.402 296.473L416.147 294.995ZM364.305 301.521L363.424 302.735L363.424 302.735L364.305 301.521ZM409.161 212.382L407.855 211.644L409.161 212.382ZM547.204 38.581L546.206 37.4605L547.204 38.581ZM588.549 4.92017L589.421 6.14018V6.14017L588.549 4.92017ZM668.735 -46.23L668.744 -47.73H668.744L668.735 -46.23ZM730.919 26.4323L732.2 25.6528V25.6528L730.919 26.4323ZM782 207.365L783.5 207.364L782 207.365ZM763.934 318.191L765.354 318.674L763.934 318.191ZM452.138 568.092L451.912 566.609L452.138 568.092ZM82.5349 467.437L81.5069 468.53L82.5349 467.437ZM54.9622 433.581L56.1673 432.688H56.1673L54.9622 433.581ZM49.5015 426.611L48.3946 427.624H48.3946L49.5015 426.611ZM57.2716 381.932L55.9459 381.23H55.9459L57.2716 381.932ZM66.5825 366.813L67.7941 367.697L66.5825 366.813ZM83.0457 343.647L84.257 344.531H84.257L83.0457 343.647ZM98.6476 321.769L99.859 322.654H99.859L98.6476 321.769ZM106.449 310.887L105.222 310.023H105.222L106.449 310.887ZM120.899 291.102L119.7 290.2H119.7L120.899 291.102ZM129.852 278.82L131.097 279.656L131.097 279.656L129.852 278.82ZM171.961 222.539L171.045 221.351L171.045 221.351L171.961 222.539ZM179.778 212.382L180.992 213.263L179.778 212.382ZM187.479 202.225L186.494 201.093L186.494 201.093L187.479 202.225ZM192.992 195.193L194.198 196.084L192.992 195.193ZM204.741 180.327L205.941 181.226V181.226L204.741 180.327ZM235.197 142.278L234.079 141.278L235.197 142.278ZM242.998 132.731L244.17 133.667L242.998 132.731ZM257.551 115.03L258.691 116.005L258.691 116.005L257.551 115.03ZM265.591 105.335L264.428 104.389L265.591 105.335ZM283.531 84.3029L284.685 85.2609V85.2609L283.531 84.3029ZM292.192 74.2622L291.11 73.2234V73.2234L292.192 74.2622ZM304.673 60.1186L305.807 61.1003L304.673 60.1186ZM317.075 45.9524L315.971 44.9367L315.971 44.9367L317.075 45.9524ZM335.017 26.5309L336.119 27.5491L335.017 26.5309ZM353.562 0.670334L355.052 0.843536L355.052 0.843491L353.562 0.670334ZM349.72 -8.6152L348.658 -7.5554V-7.55539L349.72 -8.6152ZM332.093 -13.3851L331.723 -14.8387L332.093 -13.3851ZM312.394 -11.297L312.309 -12.7946H312.309L312.394 -11.297ZM293.734 -9.62035L294.052 -8.15433V-8.15434L293.734 -9.62035ZM267.463 -4.59966L267.821 -3.14291V-3.14293L267.463 -4.59966ZM255.762 -1.79913L255.458 -3.26808L255.458 -3.26807L255.762 -1.79913ZM240.625 2.17746L240.156 0.752625L240.625 2.17746ZM225.023 6.98161L225.456 8.418L225.023 6.98161ZM148.574 34.5542L149.177 35.9276H149.177L148.574 34.5542ZM138.197 39.1108L138.8 40.4842L138.8 40.4842L138.197 39.1108ZM125.975 29.0784L124.5 29.3484L124.5 29.3485L125.975 29.0784ZM124.391 20.9547L122.922 21.26L122.922 21.26L124.391 20.9547ZM122.788 12.36L124.267 12.1104L124.267 12.1103L122.788 12.36ZM121.27 3.76527L119.796 4.03937L119.796 4.03946L121.27 3.76527ZM119.594 -5.61081L121.072 -5.86758L121.072 -5.8676L119.594 -5.61081ZM118.251 -12.6428L116.796 -12.2775L116.796 -12.2772L118.251 -12.6428ZM116.85 -18.1122L115.398 -17.7375L115.398 -17.7375L116.85 -18.1122ZM115.16 -57.1768L114.106 -58.2448L114.106 -58.2447L115.16 -57.1768ZM141.366 -68.0268L141.849 -66.6068H141.849L141.366 -68.0268ZM169.449 -78.8644L170.224 -77.5801L170.224 -77.5801L169.449 -78.8644ZM195.38 -88.38L194.932 -89.8117L195.38 -88.38ZM222.683 -97.0031L222.216 -98.4286L222.216 -98.4286L222.683 -97.0031ZM235.945 -100.953L235.552 -102.401V-102.401L235.945 -100.953ZM257.787 -107.191L257.445 -108.652L257.445 -108.652L257.787 -107.191ZM267.539 -109.573L267.148 -111.021L267.148 -111.021L267.539 -109.573ZM273.389 -111.091L273.025 -112.546L273.025 -112.546L273.389 -111.091ZM279.24 -112.61L278.849 -114.058L279.24 -112.61ZM299.781 -117.324L299.522 -118.802L299.781 -117.324ZM306.153 -118.905L305.364 -120.18L305.364 -120.18L306.153 -118.905ZM311.745 -120.383L312.016 -118.908L311.745 -120.383ZM319.415 -121.83L319.704 -120.358L319.704 -120.358L319.415 -121.83ZM340.478 -125.211L340.254 -126.695L340.254 -126.695L340.478 -125.211ZM349.059 -126.559L348.819 -128.039L348.818 -128.039L349.059 -126.559ZM360.76 -128.281L360.964 -126.794L360.964 -126.794L360.76 -128.281ZM371.682 -129.814L371.464 -131.298V-131.298L371.682 -129.814ZM442.671 -136.031L442.76 -134.533L442.76 -134.533L442.671 -136.031ZM474.654 -135.055L474.553 -133.559H474.553L474.654 -135.055ZM519.9 -125.929L519.423 -124.507L519.9 -125.929ZM634.544 -67.9404L633.603 -66.7723L634.544 -67.9404ZM649.452 -47.9077L648.129 -48.6146L649.452 -47.9077ZM637.95 -40.1899L637.097 -41.424L637.95 -40.1899ZM564.687 8.80963L565.511 10.0632L564.687 8.80963ZM550.46 18.1857L551.291 19.4342V19.4342L550.46 18.1857ZM525.558 38.0895L526.551 39.2136L525.558 38.0895ZM519.707 41.66L520.119 40.2178L520.119 40.2177L519.707 41.66ZM516.39 45.9937L516.362 44.4939L516.359 44.494L516.39 45.9937ZM508.199 51.5921L509.197 52.7119V52.7119L508.199 51.5921ZM492.707 65.2293L493.693 66.3593V66.3593L492.707 65.2293ZM442.671 112.326L441.604 111.271L442.671 112.326ZM402.89 155.407L404.071 156.332L402.89 155.407ZM394.309 165.696L395.401 166.724L394.309 165.696ZM379.483 184.248L380.68 185.151L379.483 184.248ZM358.627 214.227L357.377 213.397L358.627 214.227ZM343.092 238.166L344.455 238.792L344.456 238.792L343.092 238.166ZM338.147 246.761L336.871 245.971L338.147 246.761ZM324.506 272.545L323.164 271.874L324.506 272.545ZM313.369 293.073L312.486 291.86L312.486 291.86L313.369 293.073ZM311.839 300.344L313.339 300.383V300.383L311.839 300.344ZM315.545 309.858L314.583 311.009V311.009L315.545 309.858ZM345.938 312.438L345.901 310.938H345.901L345.938 312.438ZM377.142 310.995L376.894 309.516L377.142 310.995ZM400.79 307.691L400.965 309.181H400.965L400.79 307.691ZM428.629 303.071L428.37 301.593H428.37L428.629 303.071ZM444.237 300.068L444.533 301.539L444.533 301.539L444.237 300.068ZM453.598 297.785L453.982 299.235L453.598 297.785ZM463.733 295.357L463.441 293.886L463.441 293.886L463.733 295.357ZM471.534 293.563L471.913 295.014H471.913L471.534 293.563ZM479.744 291.74L480.019 293.215L480.019 293.215L479.744 291.74ZM484.907 289.554L486.183 290.342L486.183 290.342L484.907 289.554ZM547.204 269.389L547.701 270.804L547.701 270.804L547.204 269.389ZM576.248 268.167L574.804 268.574L574.805 268.576L576.248 268.167ZM579.876 281.53L581.332 281.17V281.169L579.876 281.53ZM581.528 288.172L580.072 288.535L581.528 288.172ZM583.088 294.422L581.633 294.786L583.088 294.422ZM584.648 300.673L586.104 300.31L586.104 300.31L584.648 300.673ZM586.208 306.924L584.753 307.287V307.287L586.208 306.924ZM587.769 313.174L589.224 312.811L587.769 313.174ZM589.329 319.425L587.873 319.788L589.329 319.425ZM590.889 325.676L592.344 325.312V325.312L590.889 325.676ZM592.449 331.926L590.994 332.29V332.29L592.449 331.926ZM594.009 338.177L595.465 337.814V337.814L594.009 338.177ZM595.57 344.428L594.114 344.791V344.791L595.57 344.428ZM597.13 350.679L598.585 350.315V350.315L597.13 350.679ZM598.69 356.929L597.235 357.293L598.69 356.929ZM601.959 370.993L600.487 371.283V371.283L601.959 370.993ZM603.987 379.592L605.436 379.203L603.987 379.592ZM602.037 391.872L602.163 390.378H602.163L602.037 391.872ZM597.52 394.174L597.818 392.704V392.704L597.52 394.174ZM592.365 395.559L593.093 396.87H593.093L592.365 395.559ZM583.003 398.1L582.82 396.611L583.003 398.1ZM561.635 402.722L562.016 404.173L561.635 402.722ZM550.324 405.372L551.283 406.526L551.283 406.526L550.324 405.372ZM542.913 407.081L543.336 408.521H543.336L542.913 407.081ZM526.01 410.928L525.225 409.649L525.225 409.649L526.01 410.928ZM507.419 414.964L507.753 416.426L507.419 414.964ZM498.057 417.077L497.74 415.611L498.057 417.077ZM444.231 427.936L444.502 429.412L444.231 427.936ZM429.41 431.156L428.62 429.88L428.62 429.88L429.41 431.156ZM420.719 432.804L420.919 434.291L420.719 432.804ZM412.214 434.32L411.446 433.032L411.445 433.032L412.214 434.32ZM404.413 435.8L404.624 437.285L404.413 435.8ZM337.357 446.784L337.792 448.219H337.792L337.357 446.784ZM327.996 448.207L328.148 449.7L327.996 448.207ZM302.253 451.688L302.56 453.156H302.56L302.253 451.688ZM292.892 453.132L293.081 454.62L293.081 454.62L292.892 453.132ZM281.19 454.616L281.379 456.105L281.379 456.105L281.19 454.616ZM271.829 456.013L272.096 457.489H272.096L271.829 456.013ZM258.568 457.596L258.427 456.103L258.568 457.596ZM246.086 459.089L245.797 457.617L245.797 457.617L246.086 459.089ZM214.102 462.58L213.961 461.087L214.102 462.58ZM200.06 463.987L200.218 465.479H200.218L200.06 463.987ZM111.545 470.232L111.505 468.733L111.545 470.232ZM43.0277 375.157L44.3612 374.47H44.3612L43.0277 375.157ZM35.8058 361.617L37.1259 360.905H37.1259L35.8058 361.617ZM2.57083 254.344L1.08558 254.554L2.57083 254.344ZM1.8162 167.065L3.30387 167.257L3.30387 167.256L1.8162 167.065ZM35.5973 55.4319L36.9411 56.0984L35.5973 55.4319ZM75.7302 -8.29839L74.5931 -9.27666L75.7302 -8.29839ZM83.8011 -13.7677L82.4045 -13.2204L82.4045 -13.2204L83.8011 -13.7677ZM115.517 75.8353L116.522 74.7217L116.522 74.7216L115.517 75.8353ZM144.673 63.8305L145.302 65.1922L144.673 63.8305ZM327.829 7.1855L327.756 8.68372L327.829 7.1855ZM337.803 7.67191L338.918 8.67601L341.034 6.32767L337.876 6.17369L337.803 7.67191ZM321.588 25.6672L322.703 26.6713L321.588 25.6672ZM67.6463 347.917L66.4215 347.051L66.4215 347.051L67.6463 347.917ZM45.8606 377.865L46.6498 379.14L46.6501 379.14L45.8606 377.865ZM172.757 -94.0782L173.676 -92.893V-92.893L172.757 -94.0782ZM222.636 -121.653L222.028 -123.024V-123.024L222.636 -121.653ZM421.623 -155.733L421.749 -157.227V-157.227L421.623 -155.733ZM465.293 -147.335L464.796 -148.75L464.796 -148.75L465.293 -147.335ZM440.33 -145.583L440.269 -147.081L440.33 -145.583ZM196.237 -99.4173L195.785 -100.848L196.237 -99.4173ZM170.494 -91.6074L170.581 -93.1049L170.578 -93.1051L170.494 -91.6074ZM573.869 262.929L574.802 261.754V261.754L573.869 262.929ZM547.296 269.357L546.799 267.941L546.799 267.941L547.296 269.357ZM576.24 268.138L577.684 267.731L577.683 267.729L576.24 268.138ZM351.547 569.411C303.703 564.667 248.888 549.252 209.313 529.427L207.969 532.109C247.899 552.112 303.074 567.62 351.251 572.397L351.547 569.411ZM209.313 529.427C201.958 525.742 193.65 521.193 186.504 517.014C179.324 512.816 173.417 509.049 170.795 506.921L168.904 509.25C171.729 511.544 177.829 515.417 184.989 519.604C192.183 523.811 200.548 528.392 207.969 532.109L209.313 529.427ZM170.795 506.921L166.328 503.293L164.437 505.622L168.904 509.25L170.795 506.921ZM165.535 505.949L192.399 503.197L192.093 500.212L165.229 502.965L165.535 505.949ZM192.399 503.197C304.915 491.667 437.484 462.22 580.42 417.025L579.515 414.164C436.715 459.316 304.353 488.709 192.093 500.212L192.399 503.197ZM580.42 417.025C603.491 409.73 617.45 405.18 625.531 402.161C629.553 400.659 632.215 399.502 633.83 398.539C634.625 398.065 635.302 397.562 635.743 396.984C636.238 396.336 636.501 395.486 636.158 394.591L633.356 395.664C633.235 395.348 633.395 395.116 633.359 395.163C633.269 395.28 632.988 395.548 632.294 395.962C630.933 396.773 628.498 397.85 624.482 399.351C616.487 402.337 602.608 406.863 579.515 414.164L580.42 417.025ZM636.158 394.591C636.164 394.607 636.155 394.584 636.122 394.478C636.093 394.387 636.055 394.262 636.006 394.101C635.91 393.779 635.778 393.33 635.611 392.757C635.278 391.613 634.811 389.987 634.225 387.933C633.052 383.825 631.405 378.01 629.404 370.916C625.401 356.728 619.983 337.426 614.117 316.436L611.227 317.244C617.095 338.236 622.513 357.54 626.517 371.731C628.518 378.826 630.166 384.644 631.34 388.756C631.927 390.812 632.395 392.444 632.731 393.596C633.051 394.696 633.276 395.454 633.356 395.664L636.158 394.591ZM614.117 316.436C608.248 295.443 602.801 276.242 598.75 262.219C596.725 255.208 595.048 249.487 593.842 245.482C593.24 243.48 592.753 241.9 592.397 240.799C592.22 240.25 592.072 239.808 591.956 239.488C591.899 239.33 591.844 239.183 591.792 239.062C591.767 239.002 591.734 238.929 591.695 238.854C591.68 238.826 591.581 238.627 591.398 238.442L589.268 240.554C589.165 240.451 589.105 240.358 589.085 240.328C589.059 240.287 589.043 240.256 589.036 240.244C589.024 240.22 589.022 240.214 589.032 240.238C589.052 240.283 589.085 240.369 589.135 240.507C589.233 240.778 589.369 241.181 589.542 241.72C589.888 242.793 590.369 244.351 590.97 246.346C592.171 250.335 593.844 256.044 595.868 263.051C599.915 277.064 605.361 296.256 611.227 317.244L614.117 316.436ZM591.398 238.442C591.052 238.093 590.65 238.008 590.488 237.982C590.292 237.95 590.116 237.954 589.995 237.962C589.749 237.978 589.488 238.028 589.248 238.084C588.755 238.2 588.113 238.397 587.365 238.652C585.857 239.168 583.77 239.971 581.265 240.994C576.25 243.042 569.485 246.001 562.176 249.377L563.435 252.1C570.714 248.737 577.437 245.798 582.4 243.771C584.885 242.756 586.909 241.978 588.335 241.491C589.054 241.246 589.584 241.086 589.931 241.005C590.015 240.986 590.079 240.973 590.127 240.965C590.177 240.956 590.196 240.955 590.19 240.955C590.187 240.956 590.17 240.957 590.143 240.956C590.117 240.955 590.068 240.953 590.005 240.943C589.924 240.929 589.579 240.868 589.268 240.554L591.398 238.442ZM562.176 249.377C519.405 269.135 469.041 284.337 415.892 293.517L416.402 296.473C469.774 287.255 520.394 271.983 563.435 252.1L562.176 249.377ZM415.892 293.517C405.853 295.251 393.193 297.08 382.904 298.375C377.759 299.023 373.22 299.535 369.906 299.836C368.245 299.986 366.912 300.081 365.971 300.115C365.496 300.132 365.152 300.132 364.927 300.12C364.873 300.118 364.831 300.114 364.8 300.111C364.769 300.108 364.755 300.106 364.757 300.106C364.758 300.106 364.766 300.108 364.779 300.111C364.792 300.114 364.814 300.12 364.844 300.129C364.887 300.143 365.026 300.191 365.186 300.307L363.424 302.735C363.758 302.978 364.124 303.041 364.232 303.06C364.409 303.091 364.596 303.107 364.771 303.116C365.125 303.135 365.571 303.131 366.078 303.113C367.101 303.076 368.498 302.975 370.177 302.823C373.541 302.519 378.118 302.001 383.279 301.352C393.602 300.052 406.309 298.217 416.402 296.473L415.892 293.517ZM365.186 300.307C365.655 300.647 365.75 301.117 365.772 301.25C365.8 301.422 365.788 301.553 365.785 301.591C365.776 301.679 365.761 301.719 365.774 301.67C365.797 301.592 365.851 301.432 365.953 301.168C366.154 300.655 366.481 299.891 366.93 298.893C367.825 296.903 369.166 294.062 370.838 290.597C374.18 283.672 378.827 274.296 383.829 264.355C393.841 244.46 405.248 222.359 410.467 213.12L407.855 211.644C402.595 220.956 391.156 243.121 381.15 263.006C376.143 272.955 371.488 282.347 368.136 289.293C366.461 292.765 365.106 295.635 364.194 297.662C363.74 298.672 363.387 299.492 363.158 300.079C363.046 300.366 362.949 300.636 362.886 300.859C362.858 300.961 362.817 301.119 362.799 301.293C362.791 301.375 362.779 301.54 362.812 301.738C362.838 301.898 362.942 302.385 363.424 302.735L365.186 300.307ZM410.467 213.12C450.759 141.788 492.417 89.3448 548.201 39.7016L546.206 37.4605C490.154 87.3433 448.294 140.052 407.855 211.644L410.467 213.12ZM548.201 39.7016C561.048 28.2688 579.61 13.1582 589.421 6.14018L587.676 3.70015C577.751 10.7996 559.103 25.9838 546.206 37.4605L548.201 39.7016ZM589.421 6.14017C599.854 -1.32204 619.243 -14.0956 636.355 -25.0109C644.907 -30.4665 652.878 -35.4498 658.863 -39.0659C661.858 -40.8751 664.344 -42.335 666.153 -43.3391C667.06 -43.8425 667.779 -44.2211 668.298 -44.4699C668.56 -44.5953 668.748 -44.6767 668.872 -44.7234C669.067 -44.797 668.959 -44.7286 668.726 -44.73L668.744 -47.73C668.354 -47.7323 667.982 -47.5942 667.814 -47.5308C667.574 -47.4405 667.299 -47.3177 667.001 -47.1752C666.403 -46.8882 665.624 -46.4761 664.698 -45.9621C662.84 -44.9314 660.318 -43.4493 657.312 -41.6336C651.298 -38 643.304 -33.0024 634.741 -27.5402C617.622 -16.62 598.177 -3.81097 587.676 3.70015L589.421 6.14017ZM668.726 -44.73C668.936 -44.7288 669.325 -44.6532 669.932 -44.386C670.523 -44.1261 671.235 -43.7231 672.066 -43.1659C673.727 -42.0514 675.749 -40.397 678.061 -38.2698C682.679 -34.0208 688.328 -27.9999 694.359 -20.9516C706.422 -6.85678 719.919 11.2316 729.637 27.2117L732.2 25.6528C722.383 9.51027 708.786 -8.70854 696.639 -22.9022C690.566 -29.9982 684.832 -36.1169 680.093 -40.4774C677.726 -42.6549 675.577 -44.4227 673.737 -45.6573C672.817 -46.2746 671.945 -46.7778 671.14 -47.132C670.352 -47.4788 669.533 -47.7253 668.744 -47.73L668.726 -44.73ZM729.637 27.2117C763.894 83.5402 780.464 142.237 780.5 207.366L783.5 207.364C783.464 141.68 766.739 82.4446 732.2 25.6528L729.637 27.2117ZM780.5 207.366C780.522 247.556 775.127 280.649 762.514 317.708L765.354 318.674C778.076 281.295 783.522 247.875 783.5 207.364L780.5 207.366ZM762.514 317.708C717.993 448.523 598.537 544.315 451.912 566.609L452.363 569.575C599.995 547.127 720.44 450.642 765.354 318.674L762.514 317.708ZM451.912 566.609C428.288 570.201 374.615 571.699 351.547 569.411L351.251 572.397C374.575 574.709 428.499 573.203 452.363 569.575L451.912 566.609ZM83.5629 466.345C81.8963 464.777 77.147 459.202 71.7012 452.515C66.2907 445.871 60.2912 438.253 56.1673 432.688L53.757 434.474C57.9181 440.089 63.9487 447.746 69.3751 454.409C74.7663 461.029 79.6608 466.792 81.5069 468.53L83.5629 466.345ZM56.1673 432.688C54.0278 429.801 51.5267 426.603 50.6084 425.599L48.3946 427.624C49.1926 428.496 51.6059 431.571 53.757 434.474L56.1673 432.688ZM50.6084 425.599C48.5743 423.375 46.0849 420.084 44.1 417.133C43.1093 415.66 42.2618 414.298 41.6684 413.219C41.3705 412.677 41.1498 412.23 41.0078 411.891C40.839 411.486 40.8602 411.413 40.8602 411.535H37.8602C37.8602 412.069 38.067 412.634 38.2395 413.047C38.4388 413.524 38.715 414.074 39.0396 414.664C39.6912 415.849 40.5913 417.292 41.6108 418.807C43.6463 421.833 46.2275 425.254 48.3946 427.624L50.6084 425.599ZM40.8602 411.535C40.8602 411.686 40.8254 411.704 40.9082 411.473C40.9739 411.29 41.0823 411.035 41.2402 410.705C41.5547 410.049 42.0229 409.184 42.6179 408.166C43.8051 406.134 45.4529 403.566 47.2715 400.96L44.8112 399.243C42.9552 401.903 41.2624 404.54 40.0277 406.652C39.4118 407.706 38.8986 408.649 38.5345 409.409C38.3532 409.788 38.198 410.144 38.0849 410.459C37.989 410.726 37.8602 411.128 37.8602 411.535H40.8602ZM47.2715 400.96C50.9744 395.653 56.0617 387.424 58.5973 382.634L55.9459 381.23C53.4775 385.894 48.4575 394.017 44.8112 399.243L47.2715 400.96ZM58.5973 382.634C61.0723 377.958 65.2251 371.217 67.7941 367.697L65.3709 365.928C62.7021 369.585 58.475 376.452 55.9459 381.23L58.5973 382.634ZM67.7941 367.697C70.4195 364.1 74.3252 358.61 76.4791 355.49L74.0102 353.786C71.8736 356.881 67.9834 362.349 65.3708 365.928L67.7941 367.697ZM76.4791 355.49C78.6171 352.393 82.1199 347.457 84.257 344.531L81.8343 342.762C79.6809 345.71 76.1628 350.667 74.0102 353.786L76.4791 355.49ZM84.257 344.531C86.409 341.585 89.9259 336.653 92.0773 333.565L89.6159 331.85C87.4768 334.92 83.9728 339.834 81.8343 342.762L84.257 344.531ZM92.0773 333.565C94.2164 330.495 97.7204 325.582 99.859 322.654L97.4363 320.884C95.2842 323.831 91.7673 328.763 89.6159 331.85L92.0773 333.565ZM99.859 322.654C102.01 319.709 105.525 314.805 107.675 311.75L105.222 310.023C103.082 313.064 99.5763 317.954 97.4363 320.884L99.859 322.654ZM107.675 311.75C113.31 303.744 114.763 301.754 122.098 292.003L119.7 290.2C112.351 299.97 110.879 301.986 105.222 310.023L107.675 311.75ZM122.098 292.003C125.733 287.171 129.785 281.614 131.097 279.656L128.606 277.985C127.344 279.867 123.339 285.363 119.7 290.2L122.098 292.003ZM131.097 279.656C133.04 276.757 143.265 262.938 153.18 249.686C158.129 243.072 162.987 236.617 166.674 231.765C168.518 229.339 170.067 227.317 171.187 225.877C171.748 225.156 172.196 224.587 172.519 224.188C172.681 223.987 172.805 223.838 172.893 223.736C173.028 223.579 172.99 223.64 172.876 223.728L171.045 221.351C170.864 221.491 170.688 221.699 170.62 221.778C170.503 221.914 170.357 222.091 170.187 222.301C169.846 222.722 169.383 223.309 168.819 224.035C167.689 225.488 166.132 227.521 164.285 229.95C160.592 234.81 155.729 241.271 150.778 247.889C140.894 261.098 130.604 275.004 128.606 277.985L131.097 279.656ZM172.876 223.728C173.074 223.575 173.278 223.352 173.424 223.189C173.6 222.991 173.812 222.739 174.052 222.447C174.532 221.861 175.151 221.074 175.864 220.148C177.291 218.294 179.115 215.85 180.992 213.263L178.564 211.501C176.699 214.071 174.893 216.491 173.487 218.319C172.783 219.233 172.184 219.993 171.731 220.546C171.504 220.823 171.321 221.039 171.183 221.194C171.015 221.382 170.987 221.396 171.045 221.351L172.876 223.728ZM180.992 213.263C182.858 210.691 184.653 208.268 186.041 206.437C186.736 205.521 187.325 204.758 187.767 204.201C187.989 203.922 188.169 203.702 188.304 203.543C188.464 203.353 188.501 203.323 188.463 203.356L186.494 201.093C186.332 201.234 186.153 201.441 186.015 201.603C185.851 201.796 185.65 202.044 185.419 202.334C184.956 202.917 184.352 203.7 183.651 204.624C182.247 206.475 180.439 208.916 178.564 211.501L180.992 213.263ZM188.463 203.356C188.696 203.153 189.025 202.771 189.345 202.387C189.699 201.961 190.145 201.405 190.649 200.762C191.658 199.474 192.922 197.812 194.198 196.084L191.785 194.302C190.523 196.011 189.277 197.65 188.288 198.911C187.793 199.543 187.367 200.074 187.038 200.469C186.873 200.667 186.738 200.825 186.635 200.941C186.517 201.073 186.478 201.107 186.494 201.093L188.463 203.356ZM194.198 196.084C196.75 192.628 199.498 189.127 200.312 188.268L198.135 186.204C197.17 187.222 194.31 190.882 191.785 194.302L194.198 196.084ZM200.312 188.268C201.27 187.258 203.801 184.081 205.941 181.226L203.541 179.427C201.39 182.296 198.956 185.338 198.135 186.204L200.312 188.268ZM205.941 181.226C211.179 174.239 232.988 146.994 236.314 143.278L234.079 141.278C230.668 145.088 208.799 172.412 203.541 179.427L205.941 181.226ZM236.314 143.278C237.225 142.262 240.765 137.927 244.17 133.667L241.826 131.794C238.401 136.08 234.921 140.338 234.079 141.278L236.314 143.278ZM244.17 133.667C250.806 125.364 253.831 121.685 258.691 116.005L256.411 114.055C251.523 119.768 248.475 123.475 241.826 131.794L244.17 133.667ZM258.691 116.005C260.393 114.017 264.02 109.643 266.755 106.282L264.428 104.389C261.7 107.741 258.09 112.093 256.411 114.055L258.691 116.005ZM266.755 106.282C269.478 102.936 273.208 98.5458 275.034 96.5363L272.814 94.519C270.937 96.5847 267.168 101.021 264.428 104.389L266.755 106.282ZM275.034 96.5363C276.909 94.4732 281.249 89.4012 284.685 85.2609L282.376 83.345C278.948 87.4767 274.642 92.507 272.814 94.519L275.034 96.5363ZM284.685 85.2609C288.121 81.1201 291.986 76.6425 293.274 75.3011L291.11 73.2234C289.735 74.6548 285.805 79.2137 282.376 83.345L284.685 85.2609ZM293.274 75.3011C294.638 73.8801 300.284 67.4801 305.807 61.1003L303.539 59.1368C297.994 65.5422 292.407 71.8716 291.11 73.2234L293.274 75.3011ZM305.807 61.1003C311.348 54.7 316.911 48.3461 318.179 46.9681L315.971 44.9367C314.665 46.3563 309.066 52.7518 303.539 59.1368L305.807 61.1003ZM318.179 46.9681C319.464 45.571 327.537 36.833 336.119 27.5491L333.916 25.5127C325.335 34.7949 317.26 43.5363 315.971 44.9367L318.179 46.9681ZM336.119 27.5491C344.933 18.0133 349.467 13.1084 351.863 9.76765C353.088 8.05898 353.809 6.68739 354.261 5.25681C354.703 3.85925 354.863 2.46819 355.052 0.843536L352.072 0.497116C351.876 2.17772 351.741 3.27652 351.4 4.35338C351.071 5.39722 350.525 6.4846 349.425 8.01939C347.169 11.1656 342.814 15.8857 333.916 25.5127L336.119 27.5491ZM355.052 0.843491C355.287 -1.18065 355.171 -2.93436 354.451 -4.67619C353.746 -6.38045 352.515 -7.93793 350.781 -9.67503L348.658 -7.55539C350.289 -5.92188 351.196 -4.69557 351.679 -3.52922C352.146 -2.40045 352.269 -1.19669 352.072 0.497177L355.052 0.843491ZM350.781 -9.67502C348.114 -12.3465 345.239 -14.1458 342.038 -15.0121C338.838 -15.8781 335.423 -15.7816 331.723 -14.8387L332.463 -11.9315C335.777 -12.7759 338.655 -12.8196 341.254 -12.1163C343.852 -11.4133 346.283 -9.93396 348.658 -7.5554L350.781 -9.67502ZM331.723 -14.8387C330.503 -14.5279 327.723 -14.131 324.137 -13.7508C320.591 -13.375 316.361 -13.0258 312.309 -12.7946L312.48 -9.79947C316.58 -10.0334 320.858 -10.3865 324.453 -10.7675C328.008 -11.1443 331.001 -11.5589 332.463 -11.9316L331.723 -14.8387ZM312.309 -12.7946C308.218 -12.5612 304.064 -12.2552 300.665 -11.9497C297.309 -11.6482 294.582 -11.3386 293.417 -11.0864L294.052 -8.15434C294.998 -8.35925 297.525 -8.65546 300.933 -8.96175C304.298 -9.26408 308.419 -9.56781 312.48 -9.79947L312.309 -12.7946ZM293.417 -11.0864C291.357 -10.6402 286.834 -9.87239 283.384 -9.3862L283.802 -6.41556C287.286 -6.90654 291.89 -7.6862 294.052 -8.15433L293.417 -11.0864ZM283.384 -9.3862C279.847 -8.88774 272.534 -7.3894 267.106 -6.05638L267.821 -3.14293C273.202 -4.46413 280.406 -5.93684 283.802 -6.41556L283.384 -9.3862ZM267.106 -6.05638C261.686 -4.72565 256.455 -3.47412 255.458 -3.26808L256.065 -0.330185C257.131 -0.550446 262.431 -1.8195 267.821 -3.14291L267.106 -6.05638ZM255.458 -3.26807C251.095 -2.36606 243.858 -0.4655 240.156 0.752625L241.094 3.60231C244.673 2.42464 251.798 0.552048 256.066 -0.3302L255.458 -3.26807ZM240.156 0.752625C238.032 1.45157 231.03 3.60796 224.591 5.54521L225.456 8.418C231.888 6.48253 238.928 4.31526 241.094 3.60229L240.156 0.752625ZM224.591 5.54521C204.903 11.4689 163.008 26.5776 147.971 33.1808L149.177 35.9276C164.079 29.3837 205.856 14.315 225.456 8.418L224.591 5.54521ZM137.594 37.7373C136.286 38.3114 134.907 38.833 133.748 39.2082C133.168 39.396 132.657 39.5423 132.248 39.6401C132.043 39.6889 131.874 39.7231 131.742 39.7444C131.676 39.7549 131.624 39.7615 131.585 39.7654C131.545 39.7693 131.527 39.7694 131.527 39.7694V42.7694C131.955 42.7694 132.469 42.6716 132.944 42.5581C133.453 42.4366 134.043 42.2659 134.672 42.0624C135.93 41.6551 137.403 41.0973 138.8 40.4842L137.594 37.7373ZM131.527 39.7694C131.753 39.7694 131.635 39.8904 131.194 39.3658C130.806 38.9061 130.355 38.1632 129.886 37.1326C128.954 35.0859 128.065 32.1631 127.451 28.8082L124.5 29.3485C125.145 32.8747 126.095 36.0474 127.156 38.376C127.683 39.533 128.267 40.5476 128.899 41.2986C129.477 41.9847 130.365 42.7694 131.527 42.7694V39.7694ZM127.451 28.8083C127.024 26.4779 126.309 22.8104 125.859 20.6493L122.922 21.26C123.366 23.3962 124.077 27.0401 124.5 29.3484L127.451 28.8083ZM125.859 20.6493C125.417 18.5223 124.699 14.6736 124.267 12.1104L121.309 12.6095C121.746 15.2032 122.471 19.0897 122.922 21.26L125.859 20.6493ZM124.267 12.1103C123.83 9.52534 123.146 5.64943 122.745 3.49109L119.796 4.03946C120.193 6.17847 120.874 10.0377 121.309 12.6096L124.267 12.1103ZM122.745 3.49117C122.347 1.34995 121.594 -2.86322 121.072 -5.86758L118.116 -5.35403C118.639 -2.34207 119.395 1.88324 119.796 4.03937L122.745 3.49117ZM121.072 -5.8676C120.551 -8.86096 119.938 -12.0842 119.705 -13.0084L116.796 -12.2772C116.996 -11.4824 117.591 -8.37688 118.116 -5.354L121.072 -5.8676ZM119.705 -13.0081C119.488 -13.8729 118.857 -16.3386 118.302 -18.4869L115.398 -17.7375C115.952 -15.5885 116.581 -13.1316 116.796 -12.2775L119.705 -13.0081ZM118.302 -18.4869C115.76 -28.3411 114.341 -36.9911 114.053 -43.6364C113.909 -46.9618 114.051 -49.7358 114.455 -51.8855C114.867 -54.0757 115.515 -55.4203 116.213 -56.1089L114.106 -58.2447C112.762 -56.9192 111.961 -54.8528 111.507 -52.4398C111.046 -49.9862 110.906 -46.9646 111.056 -43.5067C111.355 -36.5851 112.823 -27.717 115.398 -17.7375L118.302 -18.4869ZM116.213 -56.1089C116.278 -56.1735 116.506 -56.3498 116.995 -56.638C117.455 -56.9089 118.064 -57.2312 118.813 -57.5988C120.31 -58.3332 122.305 -59.2179 124.665 -60.1948C129.381 -62.1471 135.49 -64.4429 141.849 -66.6068L140.883 -69.4468C134.473 -67.2655 128.302 -64.9474 123.517 -62.9666C121.127 -61.977 119.068 -61.0653 117.492 -60.2921C116.705 -59.906 116.023 -59.5468 115.473 -59.2231C114.953 -58.9169 114.452 -58.5857 114.106 -58.2448L116.213 -56.1089ZM141.849 -66.6068C148.25 -68.7853 154.621 -71.0976 159.732 -73.0699C164.778 -75.0171 168.748 -76.6895 170.224 -77.5801L168.674 -80.1488C167.473 -79.424 163.786 -77.8501 158.652 -75.8687C153.582 -73.9124 147.25 -71.6136 140.882 -69.4468L141.849 -66.6068ZM170.224 -77.5801C171.414 -78.2981 174.85 -79.7234 179.591 -81.463C184.266 -83.1786 190.056 -85.1458 195.827 -86.9482L194.932 -89.8117C189.119 -87.996 183.282 -86.0132 178.558 -84.2794C173.898 -82.5697 170.162 -81.0462 168.674 -80.1488L170.224 -77.5801ZM195.827 -86.9482C207.409 -90.5655 219.706 -94.4492 223.15 -95.5777L222.216 -98.4286C218.795 -97.3078 206.519 -93.4306 194.932 -89.8117L195.827 -86.9482ZM223.15 -95.5777C226.556 -96.6935 232.498 -98.4638 236.338 -99.5058L235.552 -102.401C231.668 -101.347 225.675 -99.562 222.216 -98.4286L223.15 -95.5777ZM236.338 -99.5058C240.211 -100.557 245.163 -102.03 247.355 -102.785L246.377 -105.621C244.279 -104.898 239.401 -103.446 235.552 -102.401L236.338 -99.5058ZM247.355 -102.785C249.429 -103.5 254.287 -104.831 258.129 -105.731L257.445 -108.652C253.565 -107.743 248.593 -106.385 246.377 -105.621L247.355 -102.785ZM258.129 -105.731C261.99 -106.635 266.401 -107.712 267.93 -108.125L267.148 -111.021C265.673 -110.623 261.308 -109.556 257.445 -108.652L258.129 -105.731ZM267.93 -108.124C269.421 -108.527 272.045 -109.208 273.754 -109.636L273.025 -112.546C271.301 -112.115 268.659 -111.429 267.148 -111.021L267.93 -108.124ZM273.754 -109.636C275.478 -110.068 278.119 -110.753 279.631 -111.162L278.849 -114.058C277.357 -113.655 274.734 -112.974 273.025 -112.546L273.754 -109.636ZM279.631 -111.162C286.177 -112.929 295.175 -114.993 300.041 -115.847L299.522 -118.802C294.543 -117.928 285.453 -115.841 278.849 -114.058L279.631 -111.162ZM300.041 -115.847C301.536 -116.109 303.02 -116.423 304.213 -116.718C304.808 -116.866 305.344 -117.012 305.779 -117.15C306.16 -117.27 306.619 -117.428 306.943 -117.629L305.364 -120.18C305.402 -120.203 305.287 -120.14 304.877 -120.011C304.522 -119.899 304.051 -119.769 303.49 -119.63C302.373 -119.353 300.957 -119.053 299.522 -118.802L300.041 -115.847ZM306.943 -117.629C306.923 -117.617 307.038 -117.679 307.395 -117.799C307.709 -117.904 308.122 -118.026 308.61 -118.155C309.583 -118.412 310.8 -118.685 312.016 -118.908L311.475 -121.859C310.189 -121.623 308.897 -121.334 307.843 -121.055C307.317 -120.916 306.837 -120.776 306.44 -120.643C306.085 -120.524 305.67 -120.37 305.364 -120.18L306.943 -117.629ZM312.016 -118.908C314.522 -119.367 317.98 -120.019 319.704 -120.358L319.126 -123.301C317.418 -122.966 313.974 -122.316 311.475 -121.859L312.016 -118.908ZM319.704 -120.358C322.502 -120.907 330.442 -122.183 340.701 -123.728L340.254 -126.695C330.015 -125.153 322.002 -123.867 319.126 -123.301L319.704 -120.358ZM340.701 -123.728C342.853 -124.052 346.72 -124.659 349.299 -125.078L348.818 -128.039C346.249 -127.622 342.393 -127.017 340.254 -126.695L340.701 -123.728ZM349.299 -125.078C351.857 -125.493 357.109 -126.266 360.964 -126.794L360.557 -129.767C356.688 -129.237 351.409 -128.46 348.819 -128.039L349.299 -125.078ZM360.964 -126.794C364.827 -127.324 369.747 -128.014 371.899 -128.329L371.464 -131.298C369.326 -130.985 364.417 -130.296 360.557 -129.767L360.964 -126.794ZM371.899 -128.329C388.474 -130.756 407.873 -132.457 442.76 -134.533L442.581 -137.528C407.68 -135.451 388.173 -133.744 371.464 -131.298L371.899 -128.329ZM442.76 -134.533C447.803 -134.834 462.11 -134.402 474.553 -133.559L474.756 -136.552C462.314 -137.395 447.835 -137.841 442.581 -137.528L442.76 -134.533ZM474.553 -133.559C484.968 -132.853 490.983 -132.323 496.981 -131.113C502.982 -129.903 509.005 -128.004 519.423 -124.507L520.377 -127.351C509.976 -130.842 503.785 -132.801 497.574 -134.054C491.358 -135.308 485.16 -135.847 474.756 -136.552L474.553 -133.559ZM519.423 -124.507C565.301 -109.109 607.699 -87.6448 633.603 -66.7723L635.486 -69.1084C609.21 -90.2796 566.455 -111.886 520.377 -127.351L519.423 -124.507ZM633.603 -66.7723C640.86 -60.9255 645.036 -57.1648 647.124 -54.3578C648.152 -52.9764 648.581 -51.9461 648.69 -51.115C648.794 -50.3208 648.627 -49.5464 648.129 -48.6146L650.775 -47.2008C651.487 -48.5331 651.869 -49.9386 651.664 -51.5046C651.464 -53.0339 650.725 -54.5443 649.531 -56.1488C647.176 -59.3136 642.688 -63.3051 635.486 -69.1084L633.603 -66.7723ZM648.129 -48.6146C647.724 -47.8569 647.202 -47.1782 646.713 -46.7088C646.468 -46.4739 646.26 -46.3188 646.108 -46.231C645.934 -46.1302 645.938 -46.1776 646.086 -46.1776V-43.1776C646.685 -43.1776 647.217 -43.4067 647.61 -43.6339C648.026 -43.8742 648.425 -44.1935 648.79 -44.5441C649.521 -45.2456 650.231 -46.182 650.775 -47.2008L648.129 -48.6146ZM646.086 -46.1776C645.743 -46.1776 645.414 -46.0914 645.179 -46.0186C644.917 -45.937 644.632 -45.8264 644.34 -45.6998C643.754 -45.4461 643.055 -45.0921 642.295 -44.6728C640.77 -43.8318 638.919 -42.6826 637.097 -41.424L638.802 -38.9558C640.553 -40.1655 642.319 -41.26 643.744 -42.0459C644.458 -42.44 645.067 -42.7451 645.533 -42.9471C645.767 -43.0485 645.944 -43.1148 646.069 -43.1534C646.221 -43.2007 646.203 -43.1776 646.086 -43.1776V-46.1776ZM637.097 -41.424C629.068 -35.8772 579.102 -2.4585 563.863 7.55609L565.511 10.0632C580.755 0.044693 630.745 -33.3891 638.802 -38.9558L637.097 -41.424ZM563.863 7.55609C557.681 11.6189 551.274 15.8409 549.628 16.9372L551.291 19.4342C552.928 18.344 559.326 14.1276 565.511 10.0632L563.863 7.55609ZM549.628 16.9372C545.792 19.4918 530.524 31.6997 524.565 36.9654L526.551 39.2136C532.473 33.9815 547.622 21.8774 551.291 19.4342L549.628 16.9372ZM524.565 36.9654C523.386 38.0067 522.182 38.8979 521.208 39.492C520.718 39.7913 520.322 39.9929 520.041 40.104C519.9 40.1598 519.822 40.1786 519.8 40.1829C519.754 40.1914 519.894 40.1533 520.119 40.2178L519.295 43.1023C519.709 43.2205 520.096 43.1792 520.347 43.1325C520.622 43.0815 520.893 42.993 521.143 42.8943C521.644 42.6965 522.201 42.4006 522.771 42.0527C523.919 41.3524 525.264 40.351 526.551 39.2136L524.565 36.9654ZM520.119 40.2177C518.959 39.8863 518.015 40.4948 517.513 41.2125C517.038 41.89 516.84 42.7614 516.84 43.6134H519.84C519.84 43.4081 519.865 43.2425 519.897 43.1206C519.931 42.9953 519.966 42.9395 519.97 42.9329C519.976 42.9253 519.925 43.0025 519.783 43.065C519.622 43.1363 519.441 43.144 519.295 43.1024L520.119 40.2177ZM516.84 43.6134C516.84 43.9232 516.733 44.1745 516.607 44.3289C516.481 44.4825 516.384 44.4935 516.362 44.4939L516.418 47.4934C518.547 47.4538 519.84 45.4576 519.84 43.6134H516.84ZM516.359 44.494C515.98 44.5018 515.623 44.6084 515.355 44.7065C515.064 44.813 514.756 44.9558 514.446 45.1176C513.825 45.4417 513.103 45.8894 512.333 46.4155C510.788 47.4708 508.958 48.9057 507.201 50.4724L509.197 52.7119C510.871 51.2193 512.6 49.8661 514.025 48.8925C514.74 48.4042 515.355 48.0272 515.834 47.7775C516.074 47.6524 516.257 47.571 516.386 47.5237C516.539 47.4679 516.531 47.4911 516.421 47.4933L516.359 44.494ZM507.201 50.4723C503.773 53.5269 496.806 59.66 491.72 64.0992L493.693 66.3593C498.784 61.9161 505.759 55.7757 509.197 52.7119L507.201 50.4723ZM491.72 64.0992C470.707 82.4408 462.44 90.2227 441.604 111.271L443.737 113.381C464.524 92.3819 472.738 84.6502 493.693 66.3593L491.72 64.0992ZM441.604 111.271C418.331 134.781 410.48 143.278 401.709 154.482L404.071 156.332C412.725 145.278 420.466 136.889 443.737 113.381L441.604 111.271ZM401.709 154.482C398.715 158.306 394.887 162.893 393.216 164.668L395.401 166.724C397.167 164.847 401.063 160.174 404.071 156.332L401.709 154.482ZM393.216 164.668C389.466 168.653 387.613 170.976 378.285 183.344L380.68 185.151C390.022 172.765 391.78 170.571 395.401 166.724L393.216 164.668ZM378.285 183.344C370.433 193.756 370.213 194.073 357.377 213.397L359.876 215.057C372.7 195.75 372.881 195.491 380.68 185.151L378.285 183.344ZM357.377 213.397C352.341 220.979 347.033 228.932 345.579 231.073L348.061 232.758C349.525 230.602 354.843 222.635 359.876 215.057L357.377 213.397ZM345.579 231.073C344.105 233.244 342.372 236.138 341.729 237.541L344.456 238.792C344.995 237.616 346.617 234.884 348.061 232.758L345.579 231.073ZM341.729 237.541C341.182 238.732 339.006 242.523 336.871 245.971L339.422 247.55C341.544 244.123 343.819 240.179 344.455 238.792L341.729 237.541ZM336.871 245.971C334.701 249.476 328.534 261.14 323.164 271.874L325.847 273.216C331.226 262.463 337.335 250.921 339.422 247.55L336.871 245.971ZM323.164 271.874C320.483 277.234 317.894 282.214 315.885 285.917C314.88 287.77 314.026 289.293 313.38 290.38C313.057 290.925 312.795 291.345 312.598 291.637C312.5 291.784 312.428 291.882 312.382 291.94C312.308 292.033 312.353 291.957 312.486 291.86L314.252 294.285C314.479 294.12 314.651 293.908 314.736 293.8C314.848 293.658 314.967 293.491 315.087 293.312C315.329 292.952 315.624 292.477 315.96 291.911C316.634 290.776 317.509 289.215 318.522 287.348C320.55 283.609 323.155 278.599 325.847 273.216L323.164 271.874ZM312.486 291.86C312.169 292.091 311.953 292.386 311.812 292.618C311.661 292.864 311.536 293.136 311.429 293.407C311.217 293.949 311.037 294.604 310.889 295.31C310.59 296.728 310.387 298.501 310.34 300.305L313.339 300.383C313.382 298.735 313.568 297.145 313.824 295.928C313.953 295.316 314.092 294.835 314.222 294.502C314.288 294.335 314.34 294.234 314.371 294.183C314.411 294.118 314.382 294.191 314.252 294.285L312.486 291.86ZM310.34 300.305C310.274 302.813 310.441 304.801 311.116 306.534C311.806 308.305 312.965 309.655 314.583 311.009L316.507 308.708C315.11 307.539 314.352 306.577 313.911 305.445C313.455 304.274 313.276 302.766 313.339 300.383L310.34 300.305ZM314.583 311.009C315.537 311.807 316.468 312.507 317.746 313.028C319.006 313.543 320.509 313.847 322.588 314.023C326.7 314.372 333.489 314.247 345.976 313.937L345.901 310.938C333.326 311.25 326.747 311.365 322.842 311.034C320.912 310.87 319.745 310.604 318.879 310.251C318.031 309.904 317.381 309.439 316.507 308.708L314.583 311.009ZM345.976 313.937C353.279 313.756 360.447 313.503 366.115 313.241C371.725 312.981 375.992 312.709 377.39 312.474L376.894 309.516C375.719 309.713 371.677 309.98 365.976 310.244C360.333 310.505 353.186 310.757 345.901 310.938L345.976 313.937ZM377.39 312.474C382.921 311.548 394.111 309.984 400.965 309.181L400.615 306.201C393.723 307.009 382.483 308.579 376.894 309.516L377.39 312.474ZM400.965 309.181C403.717 308.858 410.07 307.868 415.093 306.98L414.571 304.026C409.565 304.91 403.281 305.889 400.615 306.201L400.965 309.181ZM415.093 306.98C420.107 306.094 426.315 304.999 428.888 304.548L428.37 301.593C425.794 302.045 419.585 303.14 414.571 304.026L415.093 306.98ZM428.888 304.548C433.255 303.782 436.615 303.136 444.533 301.539L443.94 298.598C436.03 300.193 432.7 300.834 428.37 301.593L428.888 304.548ZM444.533 301.539C446.299 301.183 450.547 300.146 453.982 299.235L453.214 296.335C449.791 297.243 445.614 298.26 443.94 298.598L444.533 301.539ZM453.982 299.235C457.397 298.33 461.924 297.246 464.025 296.829L463.441 293.886C461.252 294.321 456.657 295.422 453.214 296.335L453.982 299.235ZM464.025 296.829C466.2 296.397 469.74 295.582 471.913 295.014L471.155 292.112C469.038 292.665 465.556 293.466 463.441 293.886L464.025 296.829ZM471.913 295.014C474.021 294.463 477.681 293.651 480.019 293.215L479.469 290.266C477.067 290.713 473.337 291.541 471.155 292.112L471.913 295.014ZM480.019 293.215C481.304 292.975 482.582 292.589 483.623 292.148C484.143 291.928 484.633 291.682 485.046 291.416C485.422 291.175 485.886 290.823 486.183 290.342L483.63 288.766C483.693 288.665 483.691 288.721 483.425 288.892C483.197 289.039 482.87 289.209 482.454 289.385C481.623 289.737 480.554 290.063 479.469 290.266L480.019 293.215ZM486.183 290.342C486.144 290.406 486.145 290.37 486.293 290.273C486.428 290.185 486.629 290.084 486.893 289.989C487.426 289.796 488.094 289.672 488.738 289.672V286.672C487.744 286.672 486.731 286.858 485.875 287.167C485.099 287.447 484.141 287.939 483.63 288.767L486.183 290.342ZM488.738 289.672C489.312 289.672 490.155 289.518 491.116 289.3C492.126 289.072 493.415 288.736 494.957 288.302C498.044 287.435 502.199 286.162 507.272 284.532C517.42 281.272 531.283 276.572 547.701 270.804L546.706 267.974C530.302 273.736 516.467 278.427 506.354 281.676C501.296 283.301 497.181 284.561 494.146 285.414C492.627 285.841 491.393 286.162 490.453 286.375C489.465 286.598 488.931 286.672 488.738 286.672V289.672ZM574.805 268.576C577.214 277.075 577.372 277.661 578.42 281.891L581.332 281.169C580.272 276.889 580.102 276.264 577.691 267.758L574.805 268.576ZM578.42 281.891C578.9 283.826 579.643 286.815 580.072 288.535L582.983 287.808C582.554 286.09 581.811 283.103 581.332 281.17L578.42 281.891ZM597.235 357.293C599.132 364.895 599.774 367.661 600.487 371.283L603.431 370.704C602.703 367.003 602.045 364.176 600.145 356.566L597.235 357.293ZM600.487 371.283C600.918 373.471 601.838 377.374 602.538 379.981L605.436 379.203C604.75 376.649 603.846 372.813 603.431 370.704L600.487 371.283ZM602.538 379.981C603.463 383.428 603.679 386.334 603.373 388.263C603.218 389.236 602.953 389.82 602.712 390.117C602.524 390.348 602.377 390.396 602.163 390.378L601.91 393.367C603.197 393.476 604.283 392.942 605.042 392.007C605.746 391.138 606.139 389.972 606.336 388.733C606.732 386.238 606.422 382.878 605.436 379.203L602.538 379.981ZM602.163 390.378C601.249 390.3 600.327 390.431 599.571 390.797C598.851 391.145 597.97 391.893 597.97 393.113H600.97C600.97 393.296 600.898 393.434 600.845 393.5C600.802 393.554 600.792 393.539 600.877 393.498C601.051 393.414 601.413 393.325 601.91 393.367L602.163 390.378ZM597.97 393.113C597.97 393.029 597.996 392.927 598.054 392.837C598.109 392.752 598.165 392.716 598.18 392.708C598.199 392.698 598.086 392.758 597.818 392.704L597.221 395.644C598.026 395.808 598.888 395.738 599.614 395.343C600.377 394.928 600.97 394.142 600.97 393.113H597.97ZM597.818 392.704C596.924 392.522 595.792 392.705 594.812 392.969C593.768 393.249 592.632 393.695 591.636 394.248L593.093 396.87C593.86 396.444 594.765 396.088 595.59 395.866C596.479 395.627 597.043 395.608 597.221 395.644L597.818 392.704ZM591.636 394.248C590.918 394.647 589.568 395.14 587.9 395.593C586.261 396.038 584.432 396.412 582.82 396.611L583.187 399.589C584.96 399.37 586.93 398.965 588.685 398.488C590.411 398.02 592.048 397.452 593.093 396.87L591.636 394.248ZM582.82 396.611C576.049 397.446 574.734 397.735 561.255 401.271L562.016 404.173C575.472 400.642 576.626 400.397 583.187 399.589L582.82 396.611ZM561.255 401.271C558.815 401.911 556.617 402.396 555.047 402.663C554.253 402.799 553.666 402.87 553.303 402.887C553.104 402.896 553.066 402.884 553.118 402.893C553.133 402.896 553.307 402.925 553.515 403.057C553.763 403.214 554.164 403.607 554.164 404.251H551.164C551.164 404.952 551.597 405.392 551.906 405.589C552.176 405.76 552.442 405.819 552.576 405.844C552.869 405.898 553.184 405.896 553.441 405.884C553.99 405.859 554.72 405.762 555.552 405.621C557.233 405.334 559.521 404.827 562.016 404.173L561.255 401.271ZM554.164 404.251C554.164 403.901 554.053 403.391 553.607 402.998C553.195 402.637 552.732 402.584 552.477 402.584C552.003 402.585 551.575 402.769 551.329 402.887C550.748 403.166 550.055 403.645 549.365 404.219L551.283 406.526C551.88 406.029 552.357 405.721 552.625 405.593C552.802 405.508 552.718 405.584 552.483 405.584C552.346 405.585 551.975 405.558 551.626 405.252C551.243 404.915 551.164 404.488 551.164 404.251H554.164ZM549.365 404.219C548.77 404.713 548.299 405.012 548.042 405.131C547.868 405.211 547.969 405.127 548.224 405.137C548.38 405.143 548.743 405.192 549.07 405.505C549.417 405.838 549.484 406.237 549.484 406.454H546.484C546.484 406.79 546.583 407.277 546.993 407.67C547.382 408.044 547.838 408.124 548.112 408.135C548.605 408.153 549.05 407.969 549.3 407.854C549.892 407.58 550.591 407.101 551.283 406.526L549.365 404.219ZM549.484 406.454C549.484 405.646 548.943 405.178 548.585 404.987C548.266 404.817 547.942 404.766 547.743 404.745C547.313 404.699 546.805 404.732 546.31 404.793C545.285 404.92 543.934 405.218 542.49 405.642L543.336 408.521C544.681 408.125 545.865 407.871 546.678 407.771C547.102 407.718 547.339 407.719 547.424 407.728C547.483 407.734 547.358 407.732 547.175 407.635C546.952 407.516 546.484 407.143 546.484 406.454H549.484ZM542.49 405.642C539.763 406.445 535.084 407.506 532.138 407.991L532.625 410.951C535.686 410.448 540.486 409.359 543.336 408.521L542.49 405.642ZM532.138 407.991C530.61 408.242 529.112 408.535 527.923 408.807C527.33 408.943 526.8 409.076 526.375 409.2C526.021 409.303 525.551 409.45 525.225 409.649L526.794 412.207C526.719 412.252 526.795 412.202 527.214 412.08C527.561 411.979 528.03 411.86 528.592 411.732C529.713 411.475 531.15 411.194 532.625 410.951L532.138 407.991ZM525.225 409.649C525.292 409.608 525.211 409.66 524.803 409.782C524.461 409.885 524.001 410.007 523.451 410.139C522.354 410.401 520.949 410.692 519.509 410.945L520.028 413.9C521.52 413.638 522.985 413.335 524.15 413.056C524.731 412.917 525.251 412.781 525.668 412.655C526.019 412.549 526.476 412.401 526.794 412.207L525.225 409.649ZM519.509 410.945C516.546 411.465 510.963 412.614 507.084 413.502L507.753 416.426C511.597 415.547 517.129 414.408 520.028 413.9L519.509 410.945ZM507.084 413.502C503.221 414.386 499.017 415.334 497.74 415.611L498.375 418.543C499.672 418.262 503.893 417.309 507.753 416.426L507.084 413.502ZM497.74 415.611C492.546 416.735 448.298 425.662 443.959 426.461L444.502 429.412C448.878 428.606 493.156 419.673 498.375 418.543L497.74 415.611ZM443.959 426.461C438.272 427.508 434.777 428.172 432.584 428.649C430.475 429.107 429.348 429.43 428.62 429.88L430.199 432.431C430.409 432.301 431 432.063 433.221 431.58C435.358 431.116 438.804 430.461 444.502 429.412L443.959 426.461ZM428.62 429.88C428.721 429.818 428.754 429.821 428.593 429.873C428.471 429.912 428.292 429.962 428.055 430.021C427.582 430.138 426.94 430.274 426.166 430.421C424.622 430.714 422.614 431.037 420.52 431.318L420.919 434.291C423.056 434.005 425.119 433.673 426.725 433.368C427.526 433.216 428.229 433.068 428.776 432.933C429.048 432.865 429.299 432.797 429.511 432.729C429.686 432.673 429.961 432.578 430.199 432.431L428.62 429.88ZM420.52 431.318C418.388 431.604 416.351 431.919 414.784 432.198C414.003 432.338 413.325 432.47 412.806 432.588C412.547 432.646 412.312 432.704 412.115 432.762C411.972 432.803 411.688 432.888 411.446 433.032L412.982 435.609C412.852 435.686 412.785 435.691 412.953 435.642C413.068 435.609 413.238 435.566 413.467 435.514C413.923 435.411 414.551 435.287 415.311 435.152C416.827 434.882 418.82 434.572 420.919 434.291L420.52 431.318ZM411.445 433.032C411.562 432.962 411.618 432.958 411.469 433.004C411.363 433.036 411.207 433.078 410.997 433.129C410.577 433.229 410.003 433.349 409.307 433.481C407.92 433.745 406.105 434.044 404.201 434.315L404.624 437.285C406.564 437.009 408.426 436.702 409.866 436.429C410.585 436.293 411.212 436.162 411.697 436.046C411.938 435.988 412.16 435.93 412.347 435.872C412.49 435.829 412.753 435.745 412.982 435.609L411.445 433.032ZM404.201 434.315C400.339 434.865 386.997 436.992 374.558 439.04L375.046 442C387.492 439.951 400.8 437.83 404.624 437.285L404.201 434.315ZM374.558 439.04C362.112 441.089 349.137 443.174 345.721 443.675L346.156 446.644C349.604 446.138 362.607 444.048 375.046 442L374.558 439.04ZM345.721 443.675C342.294 444.178 338.33 444.922 336.923 445.348L337.792 448.219C338.959 447.866 342.718 447.148 346.156 446.644L345.721 443.675ZM336.923 445.348C336.398 445.507 335.127 445.751 333.417 446.011C331.745 446.266 329.751 446.521 327.844 446.715L328.148 449.7C330.103 449.501 332.146 449.239 333.868 448.977C335.55 448.721 337.03 448.45 337.792 448.219L336.923 445.348ZM327.844 446.715C318.922 447.623 306.074 449.357 301.946 450.219L302.56 453.156C306.523 452.328 319.239 450.606 328.148 449.7L327.844 446.715ZM301.946 450.219C300.29 450.565 296.126 451.209 292.703 451.644L293.081 454.62C296.523 454.183 300.783 453.527 302.56 453.156L301.946 450.219ZM281.002 453.128C277.981 453.511 273.741 454.143 271.563 454.537L272.096 457.489C274.207 457.108 278.393 456.483 281.379 456.105L281.002 453.128ZM271.563 454.537C269.486 454.911 263.575 455.619 258.427 456.103L258.708 459.09C263.857 458.606 269.881 457.889 272.096 457.489L271.563 454.537ZM258.427 456.103C253.29 456.585 247.599 457.263 245.797 457.617L246.375 460.561C248.006 460.24 253.547 459.574 258.708 459.09L258.427 456.103ZM245.797 457.617C243.005 458.166 231.12 459.467 213.961 461.087L214.243 464.074C231.311 462.462 243.396 461.147 246.375 460.561L245.797 457.617ZM213.961 461.087C210.094 461.452 203.769 462.086 199.902 462.495L200.218 465.479C204.074 465.07 210.387 464.438 214.243 464.074L213.961 461.087ZM199.902 462.495C173.194 465.325 132.9 468.167 111.505 468.733L111.584 471.732C133.075 471.164 173.45 468.314 200.218 465.479L199.902 462.495ZM111.505 468.733C99.2143 469.058 92.9734 469.19 89.3412 468.84C87.5565 468.668 86.5307 468.388 85.7782 468.026C85.0268 467.664 84.4407 467.171 83.5629 466.345L81.5069 468.53C82.4078 469.377 83.2784 470.152 84.4762 470.729C85.6731 471.305 87.0892 471.637 89.0535 471.826C92.9192 472.198 99.4045 472.054 111.584 471.732L111.505 468.733ZM44.3612 374.47C43.3954 372.595 40.1386 366.489 37.1259 360.905L34.4856 362.329C37.5007 367.918 40.7437 373.999 41.6942 375.844L44.3612 374.47ZM37.1259 360.905C22.663 334.097 9.23618 290.789 4.05607 254.134L1.08558 254.554C6.30521 291.489 19.8226 335.15 34.4856 362.329L37.1259 360.905ZM4.05607 254.134C0.992266 232.454 0.610126 188.135 3.30387 167.257L0.328531 166.873C-2.40098 188.029 -2.01439 232.618 1.08558 254.554L4.05607 254.134ZM3.30387 167.256C8.32903 128.307 19.6016 91.0561 36.9411 56.0984L34.2535 54.7654C16.7652 90.0233 5.39601 127.595 0.328531 166.873L3.30387 167.256ZM36.9411 56.0984C48.7301 32.3309 65.0869 6.37276 76.8673 -7.3201L74.5931 -9.27666C62.5935 4.67097 46.1078 30.8662 34.2535 54.7654L36.9411 56.0984ZM76.8673 -7.3201C78.3008 -8.9863 79.449 -10.2768 80.3788 -11.2449C81.323 -12.2279 81.9818 -12.8142 82.4408 -13.1252C82.9644 -13.4801 82.8778 -13.2406 82.5213 -13.3564C82.1757 -13.4687 82.2113 -13.7135 82.4045 -13.2204L85.1977 -14.315C84.9592 -14.9236 84.4892 -15.8714 83.4484 -16.2096C82.3965 -16.5514 81.4249 -16.0607 80.7579 -15.6087C80.0262 -15.1129 79.1888 -14.3367 78.2152 -13.323C77.2272 -12.2944 76.0362 -10.954 74.5931 -9.27666L76.8673 -7.3201ZM82.4045 -13.2204C82.9686 -11.781 90.0831 8.71579 98.2306 32.3817L101.067 31.4051C92.9407 7.80014 85.7921 -12.7981 85.1977 -14.315L82.4045 -13.2204ZM98.2306 32.3817C102.301 44.2044 106.123 55.064 109.002 63.0373C110.441 67.0228 111.647 70.2934 112.532 72.6046C112.973 73.7583 113.339 74.6842 113.616 75.344C113.754 75.6717 113.876 75.9506 113.979 76.1651C114.03 76.2707 114.086 76.3802 114.144 76.48C114.169 76.5241 114.297 76.7549 114.512 76.9489L116.522 74.7216C116.7 74.8823 116.778 75.0422 116.741 74.9788C116.737 74.9711 116.718 74.9365 116.682 74.8623C116.612 74.717 116.512 74.4934 116.382 74.1833C116.124 73.5674 115.771 72.6764 115.334 71.5322C114.459 69.2473 113.261 65.9974 111.824 62.0184C108.951 54.0628 105.134 43.2178 101.067 31.4051L98.2306 32.3817ZM114.512 76.9488C114.875 77.2768 115.281 77.3392 115.427 77.3569C115.617 77.38 115.788 77.3713 115.908 77.3604C116.153 77.3381 116.417 77.2829 116.667 77.2207C117.18 77.0932 117.853 76.8799 118.644 76.6037C120.237 76.0473 122.444 75.187 125.095 74.0954C130.404 71.9094 137.566 68.766 145.302 65.1922L144.044 62.4688C136.335 66.0302 129.213 69.1556 123.953 71.3213C121.32 72.4055 119.171 73.2418 117.655 73.7715C116.891 74.0383 116.321 74.2155 115.944 74.3093C115.852 74.332 115.78 74.3479 115.724 74.3586C115.696 74.3638 115.675 74.3674 115.659 74.3697C115.652 74.3708 115.646 74.3716 115.642 74.3721C115.637 74.3726 115.636 74.3728 115.636 74.3728C115.636 74.3728 115.638 74.3725 115.644 74.3722C115.649 74.372 115.657 74.3716 115.669 74.3715C115.69 74.3713 115.732 74.3719 115.79 74.3789C115.851 74.3863 116.195 74.427 116.522 74.7217L114.512 76.9488ZM145.302 65.1922C185.059 46.8268 222.298 32.278 253.817 22.5303C285.382 12.768 311.06 7.86942 327.756 8.68372L327.902 5.68727C310.654 4.84605 284.555 9.88347 252.93 19.6643C221.257 29.4598 183.892 44.0613 144.044 62.4688L145.302 65.1922ZM327.756 8.68372L337.73 9.17014L337.876 6.17369L327.902 5.68727L327.756 8.68372ZM336.689 6.6678L320.474 24.6631L322.703 26.6713L338.918 8.67601L336.689 6.6678ZM320.474 24.6631C238.205 115.964 156.404 219.771 66.4215 347.051L68.8711 348.782C158.802 221.575 240.531 117.865 322.703 26.6713L320.474 24.6631ZM66.4215 347.051C60.7332 355.097 55.4408 362.485 51.4971 367.906C49.5247 370.618 47.893 372.833 46.7193 374.39C46.1314 375.17 45.6646 375.776 45.3299 376.196C45.1614 376.407 45.0357 376.558 44.9497 376.657C44.9059 376.707 44.8832 376.731 44.8773 376.737C44.8414 376.773 44.9232 376.681 45.0711 376.589L46.6501 379.14C46.8355 379.025 46.9728 378.884 47.0098 378.847C47.0769 378.779 47.1447 378.704 47.2085 378.631C47.3375 378.483 47.4951 378.292 47.6743 378.067C48.035 377.616 48.5215 376.983 49.1149 376.195C50.3038 374.618 51.9469 372.388 53.9231 369.671C57.8768 364.236 63.1773 356.836 68.8711 348.782L66.4215 347.051ZM45.0714 376.589C45.4968 376.326 45.8634 376.47 45.8758 376.475C45.8943 376.483 45.8027 376.443 45.6148 376.263C45.2529 375.918 44.7866 375.296 44.3612 374.47L41.6942 375.844C42.2269 376.879 42.8771 377.797 43.5421 378.432C43.8677 378.743 44.2672 379.055 44.7233 379.245C45.1735 379.432 45.9244 379.589 46.6498 379.14L45.0714 376.589ZM173.676 -92.893C177.423 -95.7999 185.87 -100.902 195.422 -106.183C204.946 -111.448 215.448 -116.825 223.244 -120.282L222.028 -123.024C214.122 -119.519 203.536 -114.096 193.971 -108.808C184.435 -103.536 175.793 -98.3322 171.837 -95.2633L173.676 -92.893ZM223.244 -120.282C284.016 -147.229 356.876 -159.705 421.496 -154.238L421.749 -157.227C356.613 -162.738 283.249 -150.171 222.028 -123.024L223.244 -120.282ZM421.496 -154.238C432.699 -153.29 444.678 -151.589 453.286 -149.934C457.606 -149.103 461.012 -148.296 463.039 -147.617C463.542 -147.449 463.933 -147.298 464.22 -147.165C464.534 -147.021 464.626 -146.944 464.612 -146.956C464.604 -146.964 464.485 -147.068 464.396 -147.282C464.288 -147.542 464.254 -147.898 464.403 -148.249C464.53 -148.55 464.727 -148.695 464.782 -148.732C464.845 -148.775 464.865 -148.774 464.796 -148.75L465.791 -145.919C466.001 -145.993 466.24 -146.097 466.466 -146.25C466.685 -146.398 466.988 -146.66 467.167 -147.083C467.613 -148.14 466.899 -148.932 466.628 -149.178C466.296 -149.479 465.868 -149.71 465.474 -149.891C465.054 -150.084 464.553 -150.274 463.992 -150.462C461.765 -151.208 458.195 -152.045 453.853 -152.88C445.138 -154.556 433.053 -156.271 421.749 -157.227L421.496 -154.238ZM464.796 -148.75C464.819 -148.758 464.784 -148.745 464.647 -148.718C464.525 -148.693 464.359 -148.666 464.146 -148.635C463.721 -148.573 463.152 -148.506 462.448 -148.434C461.041 -148.291 459.145 -148.135 456.89 -147.977C452.383 -147.661 446.478 -147.337 440.269 -147.081L440.392 -144.084C446.624 -144.34 452.558 -144.666 457.1 -144.984C459.37 -145.144 461.301 -145.302 462.752 -145.45C463.476 -145.523 464.092 -145.596 464.576 -145.666C465.013 -145.729 465.471 -145.807 465.791 -145.919L464.796 -148.75ZM440.269 -147.081C361.867 -143.861 287.322 -129.757 195.785 -100.848L196.689 -97.9869C288.027 -126.833 362.307 -140.877 440.392 -144.084L440.269 -147.081ZM195.785 -100.848C188.946 -98.6875 182.633 -96.7299 177.974 -95.3165C175.644 -94.6095 173.732 -94.0401 172.376 -93.6498C171.696 -93.4543 171.165 -93.3062 170.793 -93.2088C170.606 -93.1597 170.472 -93.1268 170.386 -93.1076C170.341 -93.0977 170.324 -93.0948 170.326 -93.0951C170.326 -93.0952 170.344 -93.0982 170.373 -93.1011C170.39 -93.1029 170.471 -93.1113 170.581 -93.1049L170.407 -90.11C170.608 -90.0983 170.785 -90.1303 170.815 -90.1353C170.889 -90.1475 170.965 -90.1633 171.035 -90.1787C171.177 -90.2101 171.353 -90.2542 171.554 -90.3069C171.96 -90.4134 172.518 -90.5692 173.205 -90.7668C174.582 -91.1629 176.509 -91.7372 178.845 -92.4457C183.518 -93.8633 189.841 -95.8243 196.689 -97.9869L195.785 -100.848ZM170.578 -93.1051C170.785 -93.0934 171.486 -92.9701 171.782 -92.2137C171.998 -91.663 171.786 -91.2271 171.783 -91.2198C171.731 -91.1005 171.715 -91.126 171.911 -91.3404C172.241 -91.7003 172.851 -92.2526 173.676 -92.893L171.837 -95.2633C170.947 -94.5722 170.189 -93.9024 169.699 -93.3665C169.485 -93.1329 169.195 -92.7921 169.031 -92.4151C168.972 -92.279 168.745 -91.7414 168.989 -91.1195C169.313 -90.292 170.084 -90.1281 170.409 -90.1098L170.578 -93.1051ZM281.379 456.105L293.081 454.62L292.703 451.644L281.002 453.128L281.379 456.105ZM600.145 356.566L598.585 350.315L595.674 351.042L597.235 357.293L600.145 356.566ZM598.585 350.315L597.025 344.065L594.114 344.791L595.674 351.042L598.585 350.315ZM597.025 344.065L595.465 337.814L592.554 338.54L594.114 344.791L597.025 344.065ZM595.465 337.814L593.904 331.563L590.994 332.29L592.554 338.54L595.465 337.814ZM593.904 331.563L592.344 325.312L589.434 326.039L590.994 332.29L593.904 331.563ZM592.344 325.312L590.784 319.062L587.873 319.788L589.434 326.039L592.344 325.312ZM590.784 319.062L589.224 312.811L586.313 313.538L587.873 319.788L590.784 319.062ZM589.224 312.811L587.664 306.56L584.753 307.287L586.313 313.538L589.224 312.811ZM587.664 306.56L586.104 300.31L583.193 301.036L584.753 307.287L587.664 306.56ZM586.104 300.31L584.543 294.059L581.633 294.786L583.193 301.036L586.104 300.31ZM584.543 294.059L582.983 287.808L580.072 288.535L581.633 294.786L584.543 294.059ZM138.8 40.4842L149.177 35.9276L147.971 33.1808L137.594 37.7373L138.8 40.4842ZM547.701 270.804L547.794 270.772L546.799 267.941L546.706 267.974L547.701 270.804ZM547.794 270.772C556.982 267.544 562.915 265.461 566.876 264.426C568.858 263.909 570.239 263.683 571.228 263.679C572.187 263.674 572.65 263.876 572.937 264.104L574.802 261.754C573.819 260.974 572.615 260.672 571.214 260.679C569.844 260.685 568.173 260.987 566.118 261.524C562.005 262.598 555.922 264.737 546.799 267.941L547.794 270.772ZM572.937 264.104C573.227 264.334 573.516 264.732 573.83 265.494C574.149 266.267 574.428 267.247 574.797 268.547L577.683 267.729C577.331 266.485 577.002 265.318 576.604 264.352C576.202 263.375 575.666 262.44 574.802 261.754L572.937 264.104ZM574.796 268.545L574.804 268.574L577.692 267.759L577.684 267.731L574.796 268.545Z" fill="#FAFAFA" fill-opacity="0.25" mask="url(#path-1-inside-1_11_709)"/>
</svg>
