<svg width="32" height="32" viewBox="0 0 32 32" fill="none" xmlns="http://www.w3.org/2000/svg">
<path d="M8.6665 9.33337H23.3332" stroke="#2C3E50" stroke-width="1.83333" stroke-linecap="round" stroke-linejoin="round"/>
<path d="M8.6665 22.6666H23.3332" stroke="#2C3E50" stroke-width="1.83333" stroke-linecap="round" stroke-linejoin="round"/>
<path d="M8 26.6667V24C8 21.8783 8.84286 19.8434 10.3431 18.3431C11.8434 16.8429 13.8783 16 16 16C18.1217 16 20.1566 16.8429 21.6569 18.3431C23.1571 19.8434 24 21.8783 24 24V26.6667C24 27.0203 23.8595 27.3594 23.6095 27.6095C23.3594 27.8595 23.0203 28 22.6667 28H9.33333C8.97971 28 8.64057 27.8595 8.39052 27.6095C8.14048 27.3594 8 27.0203 8 26.6667Z" stroke="#2C3E50" stroke-width="1.83333" stroke-linecap="round" stroke-linejoin="round"/>
<path d="M8 5.33333V8C8 10.1217 8.84286 12.1566 10.3431 13.6569C11.8434 15.1571 13.8783 16 16 16C18.1217 16 20.1566 15.1571 21.6569 13.6569C23.1571 12.1566 24 10.1217 24 8V5.33333C24 4.97971 23.8595 4.64057 23.6095 4.39052C23.3594 4.14048 23.0203 4 22.6667 4H9.33333C8.97971 4 8.64057 4.14048 8.39052 4.39052C8.14048 4.64057 8 4.97971 8 5.33333V5.33333Z" stroke="#2C3E50" stroke-width="1.83333" stroke-linecap="round" stroke-linejoin="round"/>
</svg>
