<svg width="21" height="20" viewBox="0 0 21 20" fill="none" xmlns="http://www.w3.org/2000/svg">
<path fill-rule="evenodd" clip-rule="evenodd" d="M10.5 0C7.78364 0 7.44364 0.0109091 6.37727 0.06C5.31364 0.109091 4.58545 0.278182 3.94909 0.524545C3.28225 0.775858 2.67822 1.16955 2.17909 1.67818C1.67011 2.17756 1.27611 2.78189 1.02455 3.44909C0.778182 4.08545 0.608182 4.81273 0.56 5.87818C0.511818 6.94364 0.5 7.28364 0.5 10C0.5 12.7155 0.510909 13.0555 0.56 14.1236C0.609091 15.1873 0.778182 15.9145 1.02455 16.5509C1.27574 17.2181 1.66944 17.8224 2.17818 18.3218C2.67802 18.8302 3.28266 19.2236 3.95 19.4745C4.58636 19.7218 5.31364 19.8918 6.37727 19.94C7.44364 19.9882 7.78364 20 10.5 20C13.2164 20 13.5564 19.9891 14.6236 19.94C15.6873 19.8909 16.4145 19.7218 17.0509 19.4745C17.7173 19.2236 18.3218 18.8309 18.8218 18.3218C19.3303 17.822 19.7236 17.2174 19.9745 16.55C20.2218 15.9136 20.3918 15.1864 20.44 14.1227C20.4882 13.0564 20.5 12.7164 20.5 10C20.5 7.28455 20.4891 6.94455 20.44 5.87636C20.3909 4.81273 20.2218 4.08545 19.9745 3.44909C19.7236 2.78182 19.3309 2.17818 18.8218 1.67909C18.3218 1.17 17.7173 0.776364 17.0509 0.524545C16.4145 0.278182 15.6873 0.108182 14.6218 0.06C13.5564 0.0118182 13.2164 0 10.5 0ZM11.1554 13.3067C10.4158 13.5303 9.62149 13.4902 8.90816 13.1933C8.45255 13.0044 8.04449 12.7168 7.71336 12.3512C7.38223 11.9857 7.13628 11.5512 6.9932 11.0792C6.85012 10.6072 6.81347 10.1093 6.8859 9.62143C6.95833 9.13355 7.13803 8.66779 7.41207 8.2577C7.68611 7.8476 8.04767 7.50336 8.47071 7.24977C8.89375 6.99617 9.36776 6.83953 9.85861 6.79112C10.3495 6.7427 10.8449 6.80372 11.3094 6.96978C11.7738 7.13584 12.1956 7.40281 12.5445 7.75147C13.0918 8.2969 13.4327 9.01541 13.5091 9.78429C13.5855 10.5532 13.3925 11.3247 12.9633 11.9671C12.534 12.6096 11.895 13.083 11.1554 13.3067ZM8.21843 5.3618C7.59482 5.62011 7.02818 5.99872 6.55089 6.47601C5.58695 7.43995 5.04541 8.74734 5.04541 10.1106C5.04541 11.4738 5.58695 12.7812 6.55089 13.7451C7.51483 14.709 8.82221 15.2506 10.1854 15.2506C11.5487 15.2506 12.856 14.709 13.82 13.7451C14.2973 13.2678 14.6759 12.7012 14.9342 12.0776C15.1925 11.4539 15.3255 10.7856 15.3255 10.1106C15.3255 9.43556 15.1925 8.76717 14.9342 8.14356C14.6759 7.51994 14.2973 6.95331 13.82 6.47601C13.3427 5.99872 12.7761 5.62011 12.1524 5.3618C11.5288 5.10349 10.8604 4.97053 10.1854 4.97053C9.51044 4.97053 8.84205 5.10349 8.21843 5.3618ZM16.7439 5.34144C16.6784 5.49027 16.5837 5.62444 16.4654 5.73601C16.2354 5.953 15.9299 6.0718 15.6137 6.06719C15.2975 6.06258 14.9955 5.93493 14.7719 5.71132C14.5483 5.48772 14.4207 5.18578 14.4161 4.86959C14.4115 4.5534 14.5303 4.24786 14.7473 4.01783C14.8588 3.89955 14.993 3.80487 15.1418 3.73937C15.2906 3.67388 15.4511 3.63891 15.6137 3.63654C15.7763 3.63417 15.9377 3.66445 16.0883 3.72557C16.239 3.7867 16.3759 3.87744 16.4909 3.99241C16.6058 4.10739 16.6966 4.24426 16.7577 4.39493C16.8188 4.5456 16.8491 4.707 16.8467 4.86959C16.8444 5.03217 16.8094 5.19262 16.7439 5.34144Z" fill="#FAFAFA"/>
</svg>
