<svg width="22" height="27" viewBox="0 0 22 27" fill="none" xmlns="http://www.w3.org/2000/svg">
<path d="M6.99984 1.33337V25.3334M2.99984 1.33337H17.6665C18.3737 1.33337 19.052 1.61433 19.5521 2.11442C20.0522 2.61452 20.3332 3.2928 20.3332 4.00004V20C20.3332 20.7073 20.0522 21.3856 19.5521 21.8857C19.052 22.3858 18.3737 22.6667 17.6665 22.6667H2.99984C2.64622 22.6667 2.30708 22.5262 2.05703 22.2762C1.80698 22.0261 1.6665 21.687 1.6665 21.3334V2.66671C1.6665 2.31309 1.80698 1.97395 2.05703 1.7239C2.30708 1.47385 2.64622 1.33337 2.99984 1.33337V1.33337Z" stroke="#2C3E50" stroke-width="1.83333" stroke-linecap="round" stroke-linejoin="round"/>
</svg>
