<svg width="32" height="32" viewBox="0 0 32 32" fill="none" xmlns="http://www.w3.org/2000/svg">
<path d="M12 4H20" stroke="#2C3E50" stroke-width="1.83333" stroke-linecap="round" stroke-linejoin="round"/>
<path d="M13.3335 12H18.6668" stroke="#2C3E50" stroke-width="1.83333" stroke-linecap="round" stroke-linejoin="round"/>
<path d="M13.3333 4V12L8 26.6667C7.93566 26.7961 7.90227 26.9387 7.90244 27.0832C7.9026 27.2277 7.93634 27.3702 8.00097 27.4995C8.0656 27.6288 8.15938 27.7413 8.2749 27.8281C8.39042 27.915 8.52453 27.9738 8.66666 28H23.3333C23.4755 27.9738 23.6096 27.915 23.7251 27.8281C23.8406 27.7413 23.9344 27.6288 23.999 27.4995C24.0637 27.3702 24.0974 27.2277 24.0976 27.0832C24.0977 26.9387 24.0643 26.7961 24 26.6667L18.6667 12V4" stroke="#2C3E50" stroke-width="1.83333" stroke-linecap="round" stroke-linejoin="round"/>
</svg>
