<svg width="162" height="79" viewBox="0 0 162 79" fill="none" xmlns="http://www.w3.org/2000/svg">
<path d="M42.9923 42.5921C41.3061 40.906 41.3061 38.1721 42.9923 36.4859L66.6943 12.7839L78.2136 1.26464C79.8997 -0.421545 82.6336 -0.421548 84.3198 1.26464L95.8391 12.7839L119.463 36.4078C121.149 38.094 121.149 40.8279 119.463 42.5141L95.2213 66.7558L84.2417 77.7354C82.5555 79.4215 79.8217 79.4216 78.1355 77.7354L67.1559 66.7558L42.9923 42.5921Z" fill="#EE7844"/>
<path fill-rule="evenodd" clip-rule="evenodd" d="M4.31774 66.7558H61.9797L37.8209 42.597C36.1348 40.9109 36.1348 38.177 37.8209 36.4908L61.5278 12.7839H4.31775C1.93312 12.7839 0 14.7171 0 17.1017V62.438C0 64.8227 1.93312 66.7558 4.31774 66.7558ZM67.1559 66.7558L78.1355 77.7354C79.8217 79.4216 82.5555 79.4215 84.2417 77.7354L95.2213 66.7558L119.463 42.5141C121.149 40.8279 121.149 38.094 119.463 36.4078L95.8391 12.7839L84.3198 1.26464C82.6336 -0.421548 79.8997 -0.421545 78.2136 1.26464L66.6943 12.7839L42.9923 36.4859C41.3061 38.1721 41.3061 40.906 42.9923 42.5921L67.1559 66.7558ZM100.388 66.7558H157.598C159.982 66.7558 161.916 64.8227 161.916 62.438V17.1017C161.916 14.7171 159.982 12.7839 157.598 12.7839H101.015L124.634 36.403C126.32 38.0892 126.32 40.823 124.634 42.5092L100.388 66.7558Z" fill="#EE7844"/>
<path d="M64.7661 39.7699L75.5605 50.5642L97.1492 28.9755" stroke="#FAFAFA" stroke-width="5" stroke-linecap="round" stroke-linejoin="round"/>
</svg>
