<svg width="223" height="52" viewBox="0 0 223 52" fill="none" xmlns="http://www.w3.org/2000/svg">
<path d="M81.2964 43.7987C76.4869 43.054 73.7724 40.7354 72.4586 36.2498C72.1161 35.0804 72.0568 33.2772 71.9836 21.7973L71.8999 8.68094H76.4128H80.9257L80.9914 20.6417C81.052 31.6897 81.0891 32.6612 81.4769 33.3719C82.2277 34.7477 84.2732 35.1454 85.4143 34.1374C86.6134 33.0782 86.5989 33.2343 86.6752 20.5262L86.7464 8.68094H91.1244H95.5024L95.499 21.5662C95.4962 32.1183 95.4338 34.7139 95.154 35.9005C94.2379 39.7861 91.6902 42.4922 88.0571 43.4384C86.3436 43.8848 83.0023 44.0628 81.2964 43.7987H81.2964ZM101.091 43.803C100.16 43.7054 99.3584 43.5849 99.3087 43.5352C99.1994 43.4259 99.1306 34.2094 99.2395 34.2467C99.9849 34.5021 102.077 34.7982 103.137 34.7982C104.309 34.7982 104.612 34.7054 105.214 34.1626C106.106 33.3582 106.333 32.1665 105.805 31.0535C105.596 30.613 104.362 29.1674 103.064 27.8412C101.765 26.515 100.42 24.9038 100.075 24.2608C98.7772 21.8453 98.4353 19.0465 99.0711 16.0467C99.9051 12.1119 102.509 9.30306 106.25 8.30224C107.662 7.92448 111.964 7.89497 114.33 8.24682L116.073 8.50604V12.9627V17.4194L114.859 16.9473C113.332 16.353 111.143 16.2967 110.154 16.8261C109.262 17.3036 108.81 18.3416 108.971 19.5419C109.123 20.6755 109.685 21.3658 111.998 23.2569C115.247 25.9138 116.477 28.1187 116.707 31.6984C116.931 35.1921 116.034 38.4113 114.3 40.34C112.47 42.3754 110.186 43.3874 106.491 43.7993C104.098 44.0661 103.602 44.0665 101.091 43.8028V43.803ZM120.52 25.9602L120.58 8.79653L129.748 8.73612L138.916 8.6757L139.048 9.31394C139.12 9.66497 139.392 11.4083 139.652 13.1879C139.912 14.9676 140.181 16.7078 140.25 17.055L140.376 17.6863L134.985 17.7484L129.594 17.8105L129.526 19.6017L129.459 21.3929H133.051H136.643V25.8999V30.4068H133.06H129.478V32.2558V34.1048H135.487C138.792 34.1048 141.491 34.1828 141.485 34.2782C141.479 34.3735 140.975 36.3757 140.365 38.7274L139.257 43.0032L129.859 43.0636L120.461 43.1239L120.52 25.9602ZM144.326 25.9576L144.386 8.79651L153.554 8.73609L162.722 8.67568L162.854 9.31391C162.926 9.66494 163.198 11.4082 163.458 13.1879C163.718 14.9676 163.987 16.7078 164.056 17.055L164.182 17.6863L158.791 17.7483L153.4 17.8104L153.332 19.6017L153.265 21.3929H156.857H160.449V25.8998V30.4068H156.866H153.284V36.7628V43.1187H148.776H144.267L144.326 25.9576H144.326ZM162.992 43.0609C162.993 43.0292 165.688 35.3067 168.98 25.8998L174.967 8.79651L180.024 8.73443L185.082 8.67236L190.798 25.7222C193.942 35.0996 196.512 42.8521 196.51 42.9501C196.507 43.048 194.355 43.1 191.728 43.0656L186.952 43.0032L186.335 41.1542L185.718 39.3052L179.795 39.2435L173.872 39.1818L173.258 41.1503L172.644 43.1187H167.818C165.163 43.1187 162.992 43.0927 162.992 43.0609V43.0609ZM181.55 26.3043C180.717 23.7937 179.961 21.6571 179.87 21.5563C179.779 21.4555 179.056 23.3671 178.263 25.8044C177.47 28.2417 176.767 30.3784 176.7 30.5525C176.6 30.8112 177.171 30.869 179.821 30.869H183.063L181.55 26.3043ZM197.891 43.0112C197.891 42.9521 200.335 37.3464 203.323 30.5541C206.31 23.7618 208.754 18.0898 208.754 17.9497C208.754 17.7708 207.041 17.6949 203.008 17.6949H197.262L197.915 13.9391C198.275 11.8734 198.629 9.84524 198.703 9.4321L198.837 8.68094H210.729C217.27 8.68094 222.622 8.76661 222.622 8.87132C222.622 8.97603 220.178 14.6107 217.19 21.3929C214.203 28.175 211.759 33.8097 211.759 33.9144C211.759 34.0191 214.203 34.1048 217.19 34.1048C221.381 34.1048 222.622 34.1709 222.623 34.3937C222.624 34.5526 222.398 36.5807 222.121 38.9007L221.617 43.1187H209.754C203.23 43.1187 197.891 43.0703 197.891 43.0112Z" fill="#0020A2"/>
<path d="M25.1192 51.9218C21.6872 51.5823 17.756 50.4794 14.9144 49.0589C13.8581 48.5309 12.5307 47.7564 12.1414 47.4409L11.8221 47.1821L13.7424 46.9858C21.7763 46.1643 31.2454 44.0658 41.458 40.8435C44.758 39.8023 45.438 39.5488 45.3746 39.3836C45.3451 39.3068 44.6347 36.7939 43.7959 33.7993C42.957 30.8047 42.2384 28.3221 42.199 28.2824C42.1595 28.2427 41.274 28.6035 40.2312 29.0842C37.1642 30.4981 33.5548 31.5849 29.7476 32.2411C28.3085 32.4891 26.1209 32.7639 26.0418 32.7066C25.9819 32.6632 28.4992 27.6715 29.2482 26.3482C32.1337 21.2508 35.1187 17.5005 39.116 13.9509C40.0361 13.1338 41.366 12.0534 42.0714 11.5499C43.5678 10.4818 47.6235 7.90022 47.8034 7.90129C48.375 7.9047 50.852 10.793 52.2485 13.0843C54.7074 17.1188 55.8974 21.3249 55.9 25.9904C55.9016 28.8686 55.5141 31.2408 54.6086 33.8957C51.412 43.2679 42.8376 50.1255 32.3203 51.7212C30.623 51.9788 26.7773 52.0859 25.1192 51.9218Z" fill="#0020A2"/>
<path d="M3.07576 37.9591C3.00727 37.8264 2.77496 37.3918 2.55952 36.9933C1.51851 35.0678 0.555476 31.966 0.183771 29.3414C-0.0365324 27.7858 -0.0640081 24.6149 0.129828 23.1157C0.490556 20.3257 1.29981 17.6572 2.54461 15.1529C3.38967 13.4528 4.56351 11.5928 5.41345 10.607C5.82471 10.13 5.92867 10.0597 5.99038 10.2168C6.03179 10.3223 6.54158 11.7879 7.12324 13.4739C7.70491 15.1598 8.21533 16.5703 8.25752 16.6083C8.29971 16.6463 9.23761 16.2609 10.3417 15.752C16.0321 13.1289 21.0078 11.5934 23.4343 11.7114L24.1473 11.7461L22.9882 13.0298C17.1108 19.5385 11.266 26.9396 4.83559 36.016C4.02195 37.1644 3.32116 38.1257 3.27827 38.1522C3.23538 38.1787 3.14426 38.0918 3.07576 37.9591Z" fill="#0020A2"/>
<path d="M12.3492 4.48825C12.8998 4.06199 14.7924 3.01797 15.9148 2.52133C20.275 0.592036 25.5013 -0.301144 30.139 0.0903963C31.7478 0.226221 33.5794 0.577694 33.2607 0.689445C33.1687 0.721715 32.3657 0.777942 31.4763 0.814399C25.8832 1.04365 20.5639 2.04753 14.0277 4.10741C13.0493 4.41575 12.2212 4.66644 12.1875 4.66449C12.1538 4.66259 12.2266 4.58323 12.3492 4.48825Z" fill="#0020A2"/>
<path d="M5.89987 44.5415C5.64877 44.3057 4.52112 42.924 3.92888 42.1265C3.77553 41.92 3.59987 41.6963 3.53853 41.6293C3.23822 41.3017 2.8136 40.6718 2.8136 40.5539C2.8136 40.481 3.02852 40.114 3.29119 39.7384C3.55386 39.3627 3.91511 38.7795 4.09397 38.4423C4.27282 38.1052 4.57233 37.6198 4.75954 37.3639C4.94675 37.1079 5.22539 36.7171 5.37874 36.4954C5.53209 36.2737 5.78303 35.9209 5.93638 35.7114C6.08973 35.5019 6.34067 35.1508 6.49402 34.9311C6.64737 34.7115 6.89831 34.3604 7.05166 34.1509C7.20502 33.9414 7.45595 33.592 7.6093 33.3746C8.01287 32.8025 8.11745 32.6596 8.64228 31.9633C8.90224 31.6185 9.19021 31.2243 9.28222 31.0873C9.56398 30.6679 12.2151 27.1322 12.2923 27.0728C12.3322 27.0421 12.5837 26.7161 12.8511 26.3482C13.1186 25.9804 13.3663 25.6544 13.4016 25.6237C13.4369 25.5931 13.6142 25.3673 13.7957 25.1221C13.9771 24.8769 14.1776 24.6215 14.2412 24.5546C14.3047 24.4876 14.4822 24.2658 14.6356 24.0617C15.0107 23.5623 16.5719 21.6161 16.8127 21.3477C16.8753 21.2779 17.1262 20.9714 17.3703 20.6667C17.8451 20.0738 18.0622 19.8104 18.4106 19.4041C18.5315 19.2632 18.7901 18.952 18.9854 18.7125C19.1806 18.4731 19.4487 18.1583 19.581 18.0129C19.7133 17.8676 20.0224 17.5073 20.2677 17.2123C20.5131 16.9173 20.7917 16.595 20.8868 16.4961C20.982 16.3972 21.3835 15.9432 21.7791 15.4872C22.1746 15.0312 22.5736 14.5765 22.6656 14.4767C22.7576 14.3769 23.3347 13.7535 23.9482 13.0914C25.2144 11.7245 25.2189 11.7182 25.2738 11.2467C25.3047 10.9815 25.2397 10.8248 24.9991 10.5844C24.6387 10.2241 24.2406 10.1166 23.7391 10.2441C23.5474 10.2929 22.9137 10.3599 22.331 10.3931C21.7483 10.4263 21.148 10.4801 20.9971 10.5127C20.8462 10.5453 20.52 10.6005 20.2722 10.6353C20.0244 10.6702 19.5055 10.7761 19.1192 10.8708C18.7328 10.9655 18.3564 11.0554 18.2827 11.0706C17.9743 11.1342 17.4609 11.2688 17.2007 11.3542C17.0474 11.4046 16.5455 11.5588 16.0854 11.6969C14.6812 12.1185 11.6906 13.1948 10.6206 13.6637L9.87877 13.9887C9.68548 14.0734 9.47094 14.1427 9.40202 14.1427C9.26806 14.1427 9.0952 13.7639 9.00514 13.2731C8.97479 13.1076 8.92381 12.8469 8.89187 12.6936C8.85994 12.5403 8.80837 12.2645 8.77728 12.0805C8.74617 11.8966 8.69738 11.6207 8.66882 11.4675C8.64027 11.3142 8.58633 11.0133 8.54896 10.7987C8.5116 10.5841 8.4684 10.3584 8.45296 10.2971C8.43753 10.2358 8.39246 10.0602 8.35284 9.90695C7.98708 8.4922 7.94006 7.40779 8.232 7.12045C8.34957 7.00473 9.19255 6.65646 10.1053 6.34651C11.018 6.03656 11.9214 5.68869 12.1128 5.57346C12.3042 5.45823 13.1383 5.15279 13.9664 4.89471C14.7945 4.63663 15.6728 4.35984 15.9181 4.27961C16.1635 4.19939 16.5901 4.07259 16.8661 3.99783C17.1422 3.92308 17.4935 3.81877 17.6468 3.76604C17.8002 3.7133 18.1515 3.61738 18.4275 3.55288C18.7035 3.48838 19.0172 3.41195 19.1246 3.38302C19.2319 3.35411 19.4201 3.30536 19.5428 3.2747C19.6655 3.24405 19.8537 3.19531 19.961 3.16638C20.431 3.03975 21.0775 2.89168 21.4294 2.8301C21.6389 2.79342 21.8439 2.74269 21.8849 2.71737C21.9259 2.69206 22.1058 2.64459 22.2846 2.6119C22.4635 2.57921 22.7102 2.53279 22.8329 2.50873C23.0357 2.46896 23.6058 2.37761 24.3385 2.26749C24.4919 2.24446 24.7679 2.2012 24.9519 2.17139C25.1359 2.1416 25.5123 2.08631 25.7884 2.04857C26.0644 2.01083 26.4157 1.96162 26.5691 1.93922C27.7587 1.76541 29.1492 1.6439 31.6436 1.49575C32.0116 1.47389 33.0405 1.5052 33.9299 1.56534C35.4181 1.66596 35.676 1.71785 37.1642 2.21628C40.4509 3.31703 43.4944 4.85318 45.3594 6.35268C46.393 7.18369 46.598 7.45862 46.425 7.78162C46.3572 7.90834 46.2489 8.01202 46.1844 8.01202C46.1199 8.01202 45.8582 8.15607 45.6028 8.33213C45.0278 8.7285 41.4552 11.1128 40.3657 11.8273C39.9237 12.1172 39.4661 12.4181 39.3487 12.4961C39.0805 12.6743 37.9933 13.5414 37.5687 13.9158C37.3924 14.0713 37.2042 14.1859 37.1504 14.1705C37.0967 14.1552 37.0527 14.2179 37.0527 14.3099C37.0527 14.4018 36.99 14.4782 36.9133 14.4797C36.8366 14.4812 36.5731 14.6608 36.3278 14.879C36.0824 15.0972 35.5841 15.5349 35.2203 15.8517C33.7203 17.1583 33.1312 17.7115 31.6436 19.2112C29.98 20.8881 29.4227 21.4903 28.7999 22.2842C28.5854 22.5576 28.3094 22.8879 28.1865 23.0181C27.923 23.2974 27.794 23.4585 27.1267 24.3414C26.5673 25.0815 26.553 25.1021 25.6359 26.4798C25.276 27.0205 24.8962 27.5883 24.7919 27.7416C24.6876 27.8948 24.5677 28.0955 24.5254 28.1874C24.4831 28.2794 24.324 28.5553 24.1719 28.8005C24.0197 29.0457 23.5809 29.8734 23.1968 30.6397C22.8126 31.406 22.4544 32.0649 22.4007 32.104C22.347 32.143 22.2978 32.3764 22.2913 32.6226C22.2822 32.9715 22.3407 33.1213 22.5562 33.3013C22.8176 33.5195 22.9373 33.5296 24.7288 33.4853C25.7716 33.4594 26.7754 33.4131 26.9594 33.3824C27.3568 33.3159 28.1585 33.2042 28.6498 33.1467C28.8435 33.124 29.2952 33.0538 29.6536 32.9906C30.012 32.9274 30.4558 32.8493 30.6398 32.8171C30.9507 32.7627 31.1898 32.7168 31.7555 32.603C31.8785 32.5782 32.1796 32.5049 32.4247 32.4401C32.6698 32.3753 32.9959 32.2973 33.1492 32.2669C33.3026 32.2365 33.5535 32.1789 33.7068 32.1389C33.8602 32.0989 34.1243 32.0404 34.2937 32.0089C34.4632 31.9774 34.6292 31.9072 34.6628 31.853C34.6963 31.7987 34.8196 31.7544 34.9366 31.7544C35.1559 31.7544 36.7698 31.237 39.116 30.4146L39.1226 30.4123C40.4315 29.9535 40.8407 29.81 41.0221 29.9538C41.1046 30.0191 41.14 30.1439 41.1916 30.3253L41.1922 30.3274C41.3644 30.9339 41.3761 30.9771 41.4515 31.2806C41.4858 31.4186 41.5389 31.6317 41.5696 31.7544L41.6811 32.2002L41.7926 32.6461L41.9042 33.092L42.0157 33.5378L42.1272 33.9837L42.2387 34.4295L42.3503 34.8754L42.4618 35.3213L42.5733 35.7671L42.6849 36.213L42.7964 36.6589C42.9321 37.2015 42.9786 37.4009 43.03 37.6621C43.0603 37.8153 43.1255 38.0914 43.175 38.2754C43.3116 38.7834 43.2502 39.1695 43.0356 39.1514C42.9347 39.1429 42.8521 39.1827 42.8521 39.2399C42.8521 39.2971 42.7894 39.3311 42.7127 39.3156C42.6361 39.3 42.4702 39.3445 42.3442 39.4144C42.2182 39.4843 41.9171 39.5658 41.675 39.5956C41.1986 39.6542 41.1103 39.6733 40.1476 39.9253C39.7949 40.0176 39.5063 40.0667 39.5063 40.0344C39.5063 40.002 39.431 40.038 39.339 40.1143C39.247 40.1906 39.1717 40.2254 39.1717 40.1915C39.1717 40.1576 39.0086 40.1777 38.8092 40.2363C38.6099 40.2948 38.2711 40.3715 38.0564 40.4067C37.8417 40.4419 37.6368 40.4887 37.6009 40.5106C37.5651 40.5326 37.3644 40.5805 37.1548 40.6172C36.9453 40.6539 36.548 40.7355 36.272 40.7985C35.996 40.8615 35.6948 40.9294 35.6028 40.9493C35.2307 41.0297 32.0666 41.6666 31.7551 41.7239C30.9413 41.8734 30.7627 41.9121 30.6957 41.9535C30.6564 41.9777 30.3769 42.0306 30.0744 42.0711C29.772 42.1116 29.4984 42.1602 29.4664 42.1792C29.4345 42.1983 29.1835 42.2458 28.9088 42.2848C28.6341 42.3238 27.6815 42.4753 26.7921 42.6214C25.9027 42.7676 24.9742 42.9165 24.7288 42.9524C24.4835 42.9883 24.2075 43.0405 24.1154 43.0683C24.0234 43.0961 23.7223 43.1418 23.4463 43.1698C22.8089 43.2345 21.8953 43.3578 21.6061 43.4181C21.4834 43.4436 21.1823 43.49 20.9369 43.5211L20.1004 43.627C19.8857 43.6541 19.5846 43.6989 19.4313 43.7266C19.2779 43.7542 18.8513 43.805 18.4833 43.8395C18.1152 43.874 17.7137 43.9219 17.5911 43.946C17.3848 43.9865 16.5281 44.0798 15.3047 44.195C15.0287 44.221 14.577 44.2662 14.301 44.2954C12.3896 44.4974 9.50639 44.7004 7.97359 44.7409C6.22436 44.787 6.15416 44.7803 5.89987 44.5415Z" fill="#F26F35"/>
</svg>
