<svg width="1106" height="810" viewBox="0 0 1106 810" fill="none" xmlns="http://www.w3.org/2000/svg">
<path fill-rule="evenodd" clip-rule="evenodd" d="M927.281 777.126C919.061 769.932 925.315 754.301 937.617 740.137C949.221 726.778 968.331 716.007 986.772 708.634C1003.48 701.955 1017.72 701.273 1029.62 703.351C1043.08 705.701 1061.37 707.582 1055.74 720.676C1050.23 733.491 1025.53 743.04 1007.96 753.743C996.195 760.912 985.108 767.575 972.982 771.089C955.632 776.117 934.729 783.645 927.281 777.126Z" fill="url(#paint0_linear_11_522)"/>
<path fill-rule="evenodd" clip-rule="evenodd" d="M183.581 49.5486C201.27 37.27 216.687 17.7078 234.836 15.7885C254.953 13.6611 266.542 25.7149 270.158 40.3928C273.762 55.0222 268.668 74.1021 253.363 91.0009C239.185 106.655 217.662 115.356 198.358 119.667C182.357 123.241 172.195 117.089 161.689 111.475C149.347 104.88 128.731 101.558 134.409 85.4974C140.064 69.5002 166.022 61.7366 183.581 49.5486Z" fill="url(#paint1_linear_11_522)"/>
<path fill-rule="evenodd" clip-rule="evenodd" d="M1006.51 646.015C1037.72 640.11 1071.44 641.674 1106 646.326V0H341.658C332.448 31.0132 320.823 60.4204 299.117 83.8918C264.783 121.019 214.472 141.983 164.939 162.622C98.8877 190.145 34.2209 217.091 10.6712 281.018C-25.2526 378.534 43.7925 500.377 116.645 579.219C163.384 629.801 229.433 648.7 296.143 667.788C331.895 678.018 367.838 688.302 401.1 703.548C427.201 715.511 451.935 731.263 476.538 746.931C521.116 775.322 565.266 803.439 616.348 808.253C678.496 814.109 735.759 788.24 792.429 762.638C806.31 756.367 820.156 750.112 834.029 744.343C860.459 733.353 883.626 716.157 906.65 699.067C937.657 676.051 968.404 653.227 1006.51 646.015Z" fill="url(#paint2_linear_11_522)"/>
<defs>
<linearGradient id="paint0_linear_11_522" x1="185" y1="809" x2="395.347" y2="-350.068" gradientUnits="userSpaceOnUse">
<stop stop-color="#011461"/>
<stop offset="0.484375" stop-color="#0020A2"/>
<stop offset="1" stop-color="#00D4FF"/>
</linearGradient>
<linearGradient id="paint1_linear_11_522" x1="185" y1="809" x2="395.347" y2="-350.068" gradientUnits="userSpaceOnUse">
<stop stop-color="#011461"/>
<stop offset="0.484375" stop-color="#0020A2"/>
<stop offset="1" stop-color="#00D4FF"/>
</linearGradient>
<linearGradient id="paint2_linear_11_522" x1="185" y1="809" x2="395.347" y2="-350.068" gradientUnits="userSpaceOnUse">
<stop stop-color="#011461"/>
<stop offset="0.484375" stop-color="#0020A2"/>
<stop offset="1" stop-color="#00D4FF"/>
</linearGradient>
</defs>
</svg>
