<svg width="964" height="564" viewBox="0 0 964 564" fill="none" xmlns="http://www.w3.org/2000/svg">
<path d="M2.87832 311.759C4.4677 311.759 5.75615 310.469 5.75615 308.877C5.75615 307.286 4.4677 305.995 2.87832 305.995C1.28894 305.995 0.000488281 307.286 0.000488281 308.877C0.000488281 310.469 1.28894 311.759 2.87832 311.759Z" fill="#FAFAFA"/>
<path d="M22.9801 311.759C24.5695 311.759 25.858 310.469 25.858 308.877C25.858 307.286 24.5695 305.995 22.9801 305.995C21.3907 305.995 20.1023 307.286 20.1023 308.877C20.1023 310.469 21.3907 311.759 22.9801 311.759Z" fill="#FAFAFA"/>
<path d="M43.0673 311.759C44.6567 311.759 45.9451 310.469 45.9451 308.877C45.9451 307.286 44.6567 305.995 43.0673 305.995C41.4779 305.995 40.1895 307.286 40.1895 308.877C40.1895 310.469 41.4779 311.759 43.0673 311.759Z" fill="#FAFAFA"/>
<path d="M63.1701 311.759C64.7594 311.759 66.0479 310.469 66.0479 308.877C66.0479 307.286 64.7594 305.995 63.1701 305.995C61.5807 305.995 60.2922 307.286 60.2922 308.877C60.2922 310.469 61.5807 311.759 63.1701 311.759Z" fill="#FAFAFA"/>
<path d="M83.257 311.759C84.8464 311.759 86.1348 310.469 86.1348 308.877C86.1348 307.286 84.8464 305.995 83.257 305.995C81.6676 305.995 80.3792 307.286 80.3792 308.877C80.3792 310.469 81.6676 311.759 83.257 311.759Z" fill="#FAFAFA"/>
<path d="M103.359 311.759C104.948 311.759 106.237 310.469 106.237 308.877C106.237 307.286 104.948 305.995 103.359 305.995C101.77 305.995 100.481 307.286 100.481 308.877C100.481 310.469 101.77 311.759 103.359 311.759Z" fill="#FAFAFA"/>
<path d="M2.87783 331.874C4.46722 331.874 5.75567 330.583 5.75567 328.992C5.75567 327.4 4.46722 326.11 2.87783 326.11C1.28845 326.11 0 327.4 0 328.992C0 330.583 1.28845 331.874 2.87783 331.874Z" fill="#FAFAFA"/>
<path d="M22.9801 331.874C24.5695 331.874 25.858 330.583 25.858 328.992C25.858 327.4 24.5695 326.11 22.9801 326.11C21.3907 326.11 20.1023 327.4 20.1023 328.992C20.1023 330.583 21.3907 331.874 22.9801 331.874Z" fill="#FAFAFA"/>
<path d="M43.0678 331.874C44.6572 331.874 45.9456 330.583 45.9456 328.992C45.9456 327.4 44.6572 326.11 43.0678 326.11C41.4784 326.11 40.1899 327.4 40.1899 328.992C40.1899 330.583 41.4784 331.874 43.0678 331.874Z" fill="#FAFAFA"/>
<path d="M63.1701 331.874C64.7594 331.874 66.0479 330.583 66.0479 328.992C66.0479 327.4 64.7594 326.11 63.1701 326.11C61.5807 326.11 60.2922 327.4 60.2922 328.992C60.2922 330.583 61.5807 331.874 63.1701 331.874Z" fill="#FAFAFA"/>
<path d="M83.257 331.874C84.8464 331.874 86.1348 330.583 86.1348 328.992C86.1348 327.4 84.8464 326.11 83.257 326.11C81.6676 326.11 80.3792 327.4 80.3792 328.992C80.3792 330.583 81.6676 331.874 83.257 331.874Z" fill="#FAFAFA"/>
<path d="M103.359 331.874C104.948 331.874 106.237 330.583 106.237 328.992C106.237 327.4 104.948 326.11 103.359 326.11C101.77 326.11 100.481 327.4 100.481 328.992C100.481 330.583 101.77 331.874 103.359 331.874Z" fill="#FAFAFA"/>
<path d="M2.87783 352.003C4.46722 352.003 5.75567 350.713 5.75567 349.122C5.75567 347.53 4.46722 346.24 2.87783 346.24C1.28845 346.24 0 347.53 0 349.122C0 350.713 1.28845 352.003 2.87783 352.003Z" fill="#FAFAFA"/>
<path d="M22.9801 352.003C24.5695 352.003 25.858 350.713 25.858 349.122C25.858 347.53 24.5695 346.24 22.9801 346.24C21.3907 346.24 20.1023 347.53 20.1023 349.122C20.1023 350.713 21.3907 352.003 22.9801 352.003Z" fill="#FAFAFA"/>
<path d="M43.0678 352.003C44.6572 352.003 45.9456 350.713 45.9456 349.122C45.9456 347.53 44.6572 346.24 43.0678 346.24C41.4784 346.24 40.1899 347.53 40.1899 349.122C40.1899 350.713 41.4784 352.003 43.0678 352.003Z" fill="#FAFAFA"/>
<path d="M63.1701 352.003C64.7594 352.003 66.0479 350.713 66.0479 349.122C66.0479 347.53 64.7594 346.24 63.1701 346.24C61.5807 346.24 60.2922 347.53 60.2922 349.122C60.2922 350.713 61.5807 352.003 63.1701 352.003Z" fill="#FAFAFA"/>
<path d="M83.257 352.003C84.8464 352.003 86.1348 350.713 86.1348 349.122C86.1348 347.53 84.8464 346.24 83.257 346.24C81.6676 346.24 80.3792 347.53 80.3792 349.122C80.3792 350.713 81.6676 352.003 83.257 352.003Z" fill="#FAFAFA"/>
<path d="M103.359 352.003C104.948 352.003 106.237 350.713 106.237 349.122C106.237 347.53 104.948 346.24 103.359 346.24C101.77 346.24 100.481 347.53 100.481 349.122C100.481 350.713 101.77 352.003 103.359 352.003Z" fill="#FAFAFA"/>
<path d="M2.87783 372.118C4.46722 372.118 5.75567 370.828 5.75567 369.236C5.75567 367.645 4.46722 366.354 2.87783 366.354C1.28845 366.354 0 367.645 0 369.236C0 370.828 1.28845 372.118 2.87783 372.118Z" fill="#FAFAFA"/>
<path d="M22.9801 372.118C24.5695 372.118 25.858 370.828 25.858 369.236C25.858 367.645 24.5695 366.354 22.9801 366.354C21.3907 366.354 20.1023 367.645 20.1023 369.236C20.1023 370.828 21.3907 372.118 22.9801 372.118Z" fill="#FAFAFA"/>
<path d="M43.0678 372.118C44.6572 372.118 45.9456 370.828 45.9456 369.236C45.9456 367.645 44.6572 366.354 43.0678 366.354C41.4784 366.354 40.1899 367.645 40.1899 369.236C40.1899 370.828 41.4784 372.118 43.0678 372.118Z" fill="#FAFAFA"/>
<path d="M63.1701 372.118C64.7594 372.118 66.0479 370.828 66.0479 369.236C66.0479 367.645 64.7594 366.354 63.1701 366.354C61.5807 366.354 60.2922 367.645 60.2922 369.236C60.2922 370.828 61.5807 372.118 63.1701 372.118Z" fill="#FAFAFA"/>
<path d="M83.257 372.118C84.8464 372.118 86.1348 370.828 86.1348 369.236C86.1348 367.645 84.8464 366.354 83.257 366.354C81.6676 366.354 80.3792 367.645 80.3792 369.236C80.3792 370.828 81.6676 372.118 83.257 372.118Z" fill="#FAFAFA"/>
<path d="M103.359 372.118C104.948 372.118 106.237 370.828 106.237 369.236C106.237 367.645 104.948 366.354 103.359 366.354C101.77 366.354 100.481 367.645 100.481 369.236C100.481 370.828 101.77 372.118 103.359 372.118Z" fill="#FAFAFA"/>
<path d="M641.878 543.764C643.468 543.764 644.756 542.473 644.756 540.882C644.756 539.29 643.468 538 641.878 538C640.289 538 639 539.29 639 540.882C639 542.473 640.289 543.764 641.878 543.764Z" fill="#FAFAFA"/>
<path d="M661.965 543.764C663.555 543.764 664.843 542.473 664.843 540.882C664.843 539.29 663.555 538 661.965 538C660.376 538 659.087 539.29 659.087 540.882C659.087 542.473 660.376 543.764 661.965 543.764Z" fill="#FAFAFA"/>
<path d="M682.067 543.764C683.657 543.764 684.945 542.473 684.945 540.882C684.945 539.29 683.657 538 682.067 538C680.478 538 679.189 539.29 679.189 540.882C679.189 542.473 680.478 543.764 682.067 543.764Z" fill="#FAFAFA"/>
<path d="M641.878 563.893C643.467 563.893 644.756 562.603 644.756 561.012C644.756 559.42 643.467 558.13 641.878 558.13C640.288 558.13 639 559.42 639 561.012C639 562.603 640.288 563.893 641.878 563.893Z" fill="#FAFAFA"/>
<path d="M661.965 563.893C663.555 563.893 664.843 562.603 664.843 561.012C664.843 559.42 663.555 558.13 661.965 558.13C660.376 558.13 659.087 559.42 659.087 561.012C659.087 562.603 660.376 563.893 661.965 563.893Z" fill="#FAFAFA"/>
<path d="M682.067 563.893C683.657 563.893 684.945 562.603 684.945 561.012C684.945 559.42 683.657 558.13 682.067 558.13C680.478 558.13 679.189 559.42 679.189 561.012C679.189 562.603 680.478 563.893 682.067 563.893Z" fill="#FAFAFA"/>
<path d="M224.722 5.76355C226.312 5.76355 227.6 4.47334 227.6 2.88178C227.6 1.29022 226.312 1.52588e-05 224.722 1.52588e-05C223.133 1.52588e-05 221.844 1.29022 221.844 2.88178C221.844 4.47334 223.133 5.76355 224.722 5.76355Z" fill="#FAFAFA"/>
<path d="M244.808 5.76353C246.398 5.76353 247.686 4.47332 247.686 2.88177C247.686 1.29021 246.398 0 244.808 0C243.219 0 241.931 1.29021 241.931 2.88177C241.931 4.47332 243.219 5.76353 244.808 5.76353Z" fill="#FAFAFA"/>
<path d="M264.911 5.76353C266.5 5.76353 267.789 4.47332 267.789 2.88177C267.789 1.29021 266.5 0 264.911 0C263.321 0 262.033 1.29021 262.033 2.88177C262.033 4.47332 263.321 5.76353 264.911 5.76353Z" fill="#FAFAFA"/>
<path d="M224.722 25.8934C226.311 25.8934 227.599 24.6032 227.599 23.0116C227.599 21.4201 226.311 20.1299 224.722 20.1299C223.132 20.1299 221.844 21.4201 221.844 23.0116C221.844 24.6032 223.132 25.8934 224.722 25.8934Z" fill="#FAFAFA"/>
<path d="M244.808 25.8934C246.398 25.8934 247.686 24.6032 247.686 23.0117C247.686 21.4201 246.398 20.1299 244.808 20.1299C243.219 20.1299 241.931 21.4201 241.931 23.0117C241.931 24.6032 243.219 25.8934 244.808 25.8934Z" fill="#FAFAFA"/>
<path d="M264.912 25.8934C266.501 25.8934 267.789 24.6032 267.789 23.0117C267.789 21.4201 266.501 20.1299 264.912 20.1299C263.322 20.1299 262.034 21.4201 262.034 23.0117C262.034 24.6032 263.322 25.8934 264.912 25.8934Z" fill="#FAFAFA"/>
<path d="M961.121 311.759C962.71 311.759 963.999 310.469 963.999 308.877C963.999 307.286 962.71 305.995 961.121 305.995C959.532 305.995 958.243 307.286 958.243 308.877C958.243 310.469 959.532 311.759 961.121 311.759Z" fill="#FAFAFA"/>
<path d="M961.122 331.889C962.711 331.889 964 330.599 964 329.007C964 327.415 962.711 326.125 961.122 326.125C959.533 326.125 958.244 327.415 958.244 329.007C958.244 330.599 959.533 331.889 961.122 331.889Z" fill="#FAFAFA"/>
<path d="M961.122 352.003C962.711 352.003 964 350.713 964 349.122C964 347.53 962.711 346.24 961.122 346.24C959.533 346.24 958.244 347.53 958.244 349.122C958.244 350.713 959.533 352.003 961.122 352.003Z" fill="#FAFAFA"/>
<path d="M961.122 372.133C962.711 372.133 964 370.843 964 369.252C964 367.66 962.711 366.37 961.122 366.37C959.533 366.37 958.244 367.66 958.244 369.252C958.244 370.843 959.533 372.133 961.122 372.133Z" fill="#FAFAFA"/>
<path d="M961.122 392.248C962.711 392.248 964 390.958 964 389.366C964 387.775 962.711 386.484 961.122 386.484C959.533 386.484 958.244 387.775 958.244 389.366C958.244 390.958 959.533 392.248 961.122 392.248Z" fill="#FAFAFA"/>
<path d="M961.122 412.378C962.711 412.378 964 411.087 964 409.496C964 407.904 962.711 406.614 961.122 406.614C959.533 406.614 958.244 407.904 958.244 409.496C958.244 411.087 959.533 412.378 961.122 412.378Z" fill="#FAFAFA"/>
<path d="M961.122 432.492C962.711 432.492 964 431.202 964 429.61C964 428.019 962.711 426.729 961.122 426.729C959.533 426.729 958.244 428.019 958.244 429.61C958.244 431.202 959.533 432.492 961.122 432.492Z" fill="#FAFAFA"/>
<path d="M941.02 311.759C942.609 311.759 943.898 310.469 943.898 308.877C943.898 307.286 942.609 305.995 941.02 305.995C939.431 305.995 938.142 307.286 938.142 308.877C938.142 310.469 939.431 311.759 941.02 311.759Z" fill="#FAFAFA"/>
<path d="M941.02 331.889C942.609 331.889 943.898 330.599 943.898 329.007C943.898 327.415 942.609 326.125 941.02 326.125C939.431 326.125 938.142 327.415 938.142 329.007C938.142 330.599 939.431 331.889 941.02 331.889Z" fill="#FAFAFA"/>
<path d="M941.02 352.003C942.609 352.003 943.898 350.713 943.898 349.122C943.898 347.53 942.609 346.24 941.02 346.24C939.431 346.24 938.142 347.53 938.142 349.122C938.142 350.713 939.431 352.003 941.02 352.003Z" fill="#FAFAFA"/>
<path d="M941.02 372.133C942.609 372.133 943.898 370.843 943.898 369.252C943.898 367.66 942.609 366.37 941.02 366.37C939.431 366.37 938.142 367.66 938.142 369.252C938.142 370.843 939.431 372.133 941.02 372.133Z" fill="#FAFAFA"/>
<path d="M941.02 392.248C942.609 392.248 943.898 390.958 943.898 389.366C943.898 387.775 942.609 386.484 941.02 386.484C939.431 386.484 938.142 387.775 938.142 389.366C938.142 390.958 939.431 392.248 941.02 392.248Z" fill="#FAFAFA"/>
<path d="M941.02 412.378C942.609 412.378 943.898 411.087 943.898 409.496C943.898 407.904 942.609 406.614 941.02 406.614C939.431 406.614 938.142 407.904 938.142 409.496C938.142 411.087 939.431 412.378 941.02 412.378Z" fill="#FAFAFA"/>
<path d="M941.02 432.492C942.609 432.492 943.898 431.202 943.898 429.61C943.898 428.019 942.609 426.729 941.02 426.729C939.431 426.729 938.142 428.019 938.142 429.61C938.142 431.202 939.431 432.492 941.02 432.492Z" fill="#FAFAFA"/>
<path d="M920.932 311.759C922.521 311.759 923.809 310.469 923.809 308.877C923.809 307.286 922.521 305.995 920.932 305.995C919.342 305.995 918.054 307.286 918.054 308.877C918.054 310.469 919.342 311.759 920.932 311.759Z" fill="#FAFAFA"/>
<path d="M920.932 331.889C922.521 331.889 923.809 330.599 923.809 329.007C923.809 327.415 922.521 326.125 920.932 326.125C919.342 326.125 918.054 327.415 918.054 329.007C918.054 330.599 919.342 331.889 920.932 331.889Z" fill="#FAFAFA"/>
<path d="M920.932 352.003C922.521 352.003 923.809 350.713 923.809 349.122C923.809 347.53 922.521 346.24 920.932 346.24C919.342 346.24 918.054 347.53 918.054 349.122C918.054 350.713 919.342 352.003 920.932 352.003Z" fill="#FAFAFA"/>
<path d="M920.932 372.133C922.521 372.133 923.809 370.843 923.809 369.252C923.809 367.66 922.521 366.37 920.932 366.37C919.342 366.37 918.054 367.66 918.054 369.252C918.054 370.843 919.342 372.133 920.932 372.133Z" fill="#FAFAFA"/>
<path d="M920.932 392.248C922.521 392.248 923.809 390.958 923.809 389.366C923.809 387.775 922.521 386.484 920.932 386.484C919.342 386.484 918.054 387.775 918.054 389.366C918.054 390.958 919.342 392.248 920.932 392.248Z" fill="#FAFAFA"/>
<path d="M920.932 412.378C922.521 412.378 923.809 411.087 923.809 409.496C923.809 407.904 922.521 406.614 920.932 406.614C919.342 406.614 918.054 407.904 918.054 409.496C918.054 411.087 919.342 412.378 920.932 412.378Z" fill="#FAFAFA"/>
<path d="M920.932 432.492C922.521 432.492 923.809 431.202 923.809 429.61C923.809 428.019 922.521 426.729 920.932 426.729C919.342 426.729 918.054 428.019 918.054 429.61C918.054 431.202 919.342 432.492 920.932 432.492Z" fill="#FAFAFA"/>
<path d="M900.83 311.759C902.42 311.759 903.708 310.469 903.708 308.877C903.708 307.286 902.42 305.995 900.83 305.995C899.241 305.995 897.953 307.286 897.953 308.877C897.953 310.469 899.241 311.759 900.83 311.759Z" fill="#FAFAFA"/>
<path d="M900.829 331.889C902.419 331.889 903.707 330.599 903.707 329.007C903.707 327.416 902.419 326.125 900.829 326.125C899.24 326.125 897.952 327.416 897.952 329.007C897.952 330.599 899.24 331.889 900.829 331.889Z" fill="#FAFAFA"/>
<path d="M900.829 352.003C902.419 352.003 903.707 350.713 903.707 349.122C903.707 347.53 902.419 346.24 900.829 346.24C899.24 346.24 897.952 347.53 897.952 349.122C897.952 350.713 899.24 352.003 900.829 352.003Z" fill="#FAFAFA"/>
<path d="M900.829 372.133C902.419 372.133 903.707 370.843 903.707 369.252C903.707 367.66 902.419 366.37 900.829 366.37C899.24 366.37 897.952 367.66 897.952 369.252C897.952 370.843 899.24 372.133 900.829 372.133Z" fill="#FAFAFA"/>
<path d="M900.829 392.248C902.419 392.248 903.707 390.958 903.707 389.366C903.707 387.775 902.419 386.484 900.829 386.484C899.24 386.484 897.952 387.775 897.952 389.366C897.952 390.958 899.24 392.248 900.829 392.248Z" fill="#FAFAFA"/>
<path d="M900.829 412.378C902.419 412.378 903.707 411.087 903.707 409.496C903.707 407.904 902.419 406.614 900.829 406.614C899.24 406.614 897.952 407.904 897.952 409.496C897.952 411.087 899.24 412.378 900.829 412.378Z" fill="#FAFAFA"/>
<path d="M900.829 432.492C902.419 432.492 903.707 431.202 903.707 429.61C903.707 428.019 902.419 426.729 900.829 426.729C899.24 426.729 897.952 428.019 897.952 429.61C897.952 431.202 899.24 432.492 900.829 432.492Z" fill="#FAFAFA"/>
</svg>
