<svg width="322" height="337" viewBox="0 0 322 337" fill="none" xmlns="http://www.w3.org/2000/svg">
<path d="M104.165 116.909C104.348 117.63 104.503 118.162 104.66 118.56C104.741 118.761 104.816 118.928 104.935 119.099L105.19 119.367C105.308 119.456 105.502 119.554 105.739 119.554C105.991 119.557 106.213 119.437 106.334 119.327C106.57 119.106 106.623 118.931 106.695 118.753C106.812 118.423 106.886 118.036 106.965 117.526C107.234 115.761 107.475 112.584 107.946 108.492C108.416 104.406 109.111 99.4263 110.27 94.1462C111.258 89.6371 112.442 86.9294 113.554 85.419C114.681 83.9054 115.627 83.5845 116.409 83.5735C117.051 83.5703 117.655 83.8346 118.102 84.1225C118.324 84.2657 118.503 84.4089 118.623 84.5143L118.756 84.637L118.784 84.6669L118.789 84.6716L119.005 84.4671L118.787 84.6685L118.789 84.6716L119.005 84.4671L118.787 84.6685C119.082 84.9879 119.579 85.0068 119.897 84.711C120.215 84.4152 120.234 83.918 119.939 83.5986C119.908 83.5671 119.555 83.188 118.949 82.7978C118.345 82.4124 117.473 82.0033 116.409 82.0001C115.089 81.9891 113.586 82.6924 112.287 84.4876C110.974 86.2859 109.756 89.1745 108.736 93.808C107.256 100.545 106.527 106.774 106.06 111.31C105.826 113.577 105.657 115.422 105.497 116.676C105.418 117.301 105.337 117.781 105.266 118.055L105.219 118.212L105.201 118.259L105.519 118.413L105.275 118.166L105.201 118.259L105.519 118.413L105.275 118.166L105.739 118.637V117.981C105.514 117.979 105.335 118.1 105.275 118.166L105.739 118.637V117.981V118.632L106.131 118.106C106.068 118.058 105.926 117.981 105.739 117.981V118.632L106.131 118.106L105.884 118.438L106.217 118.188L106.131 118.106L105.884 118.438L106.217 118.188L106.205 118.198L106.218 118.19L106.217 118.188L106.205 118.198L106.218 118.19C106.198 118.165 106.11 117.979 106.019 117.696C105.924 117.409 105.813 117.018 105.688 116.524C105.582 116.102 105.155 115.847 104.734 115.954C104.313 116.06 104.059 116.487 104.165 116.909Z" fill="#F8F9FA"/>
<path d="M104.084 100.528L115.48 95.8502C115.881 95.685 116.073 95.2256 115.908 94.8228C115.744 94.4216 115.285 94.2297 114.884 94.3949L103.488 99.0724C103.086 99.2376 102.894 99.697 103.058 100.1C103.223 100.501 103.682 100.693 104.084 100.528Z" fill="#F8F9FA"/>
<path d="M123.898 89.1729C123.878 89.228 121.613 93.874 121.604 99.1525C121.604 101.141 121.932 103.232 122.862 105.183C123.789 107.132 125.331 108.929 127.666 110.29C128.042 110.509 128.522 110.383 128.741 110.007C128.96 109.631 128.833 109.149 128.458 108.931C126.38 107.715 125.086 106.187 124.28 104.505C123.477 102.823 123.176 100.971 123.176 99.1525C123.175 96.7406 123.709 94.3995 124.248 92.6736C124.517 91.8098 124.786 91.0986 124.986 90.6078C125.087 90.3623 125.17 90.172 125.227 90.043L125.313 89.8573C125.502 89.4655 125.338 88.9951 124.948 88.8063C124.557 88.6175 124.087 88.7811 123.898 89.1729Z" fill="#F8F9FA"/>
<path d="M133.886 86.2356L133.938 86.2671C134.245 86.448 135.786 87.4203 137.223 89.184C138.663 90.954 139.999 93.484 140.001 96.8823C140 99.1558 139.401 101.838 137.771 104.976C137.57 105.361 137.719 105.836 138.104 106.036C138.489 106.237 138.964 106.088 139.164 105.702C140.893 102.381 141.573 99.4359 141.573 96.8823C141.574 92.798 139.835 89.7709 138.119 87.8074C136.4 85.8375 134.7 84.8904 134.649 84.8605C134.269 84.6497 133.791 84.7866 133.58 85.1658C133.369 85.5465 133.506 86.0248 133.886 86.2356Z" fill="#F8F9FA"/>
<path d="M126.099 94.9266L134.155 100.816C134.505 101.072 134.996 100.995 135.252 100.644C135.508 100.293 135.431 99.8023 135.081 99.5459L127.026 93.6569C126.675 93.4005 126.183 93.476 125.927 93.8284C125.671 94.1793 125.748 94.6701 126.099 94.9266Z" fill="#F8F9FA"/>
<path d="M132.214 91.2796L125.911 101.325C125.679 101.694 125.79 102.178 126.158 102.409C126.525 102.641 127.01 102.531 127.241 102.162L133.545 92.1167C133.776 91.7485 133.665 91.2623 133.298 91.0326C132.931 90.8013 132.446 90.9115 132.214 91.2796Z" fill="#F8F9FA"/>
<path d="M113.086 47.918C110.656 49.6645 107.857 50.5013 105.08 50.5026C100.801 50.5013 96.5886 48.5116 93.902 44.7674C92.1579 42.3347 91.3207 39.5319 91.3202 36.7515C91.3212 32.4679 93.3094 28.2505 97.0498 25.5613C99.4795 23.8148 102.279 22.9766 105.056 22.9766C109.335 22.9779 113.547 24.9677 116.233 28.7119C117.978 31.1445 118.814 33.946 118.815 36.7277C118.814 41.0113 116.826 45.2288 113.086 47.918L113.856 48.9915C117.953 46.0459 120.136 41.4185 120.135 36.7277C120.136 33.6816 119.215 30.6025 117.306 27.9411C114.363 23.8399 109.741 21.6532 105.056 21.6545C102.013 21.6545 98.9378 22.576 96.2796 24.4878C92.1822 27.4334 89.999 32.0607 89.9996 36.7515C89.9996 39.7976 90.9199 42.8768 92.8296 45.5382C95.772 49.6393 100.395 51.8247 105.08 51.8247C108.122 51.8247 111.198 50.9032 113.856 48.9915L113.086 47.918Z" fill="#F8F9FA"/>
<path d="M133.573 54.8378C130.865 56.7839 127.744 57.7187 124.647 57.7187C119.877 57.7187 115.18 55.4989 112.186 51.325C110.242 48.6134 109.308 45.4879 109.308 42.3889C109.309 37.6122 111.525 32.9108 115.695 29.9123C118.403 27.9662 121.524 27.0314 124.621 27.0314C129.391 27.0328 134.087 29.2513 137.082 33.4251C139.027 36.1367 139.96 39.2622 139.961 42.3612C139.96 47.1379 137.743 51.8393 133.573 54.8378L134.344 55.9114C138.87 52.6564 141.282 47.5438 141.281 42.3612C141.281 38.9964 140.265 35.5947 138.155 32.6543C134.904 28.1222 129.797 25.708 124.621 25.7093C121.259 25.708 117.862 26.7274 114.925 28.8388C110.398 32.0938 107.986 37.2063 107.987 42.3889C107.987 45.7537 109.004 49.1554 111.113 52.0958C114.364 56.6279 119.47 59.0421 124.647 59.0408C128.008 59.0421 131.406 58.0241 134.344 55.9114L133.573 54.8378Z" fill="#F8F9FA"/>
<path d="M117.974 30.1741L111.333 32.5473C110.989 32.6702 110.81 33.0483 110.933 33.3921C111.056 33.7358 111.433 33.9156 111.777 33.7927L118.418 31.4195C118.761 31.2966 118.94 30.9184 118.818 30.5747C118.695 30.2309 118.317 30.0511 117.974 30.1741Z" fill="#F8F9FA"/>
<path d="M118.893 32.9161L109.359 36.3668C109.016 36.4911 108.838 36.8705 108.962 37.2142C109.087 37.5567 109.465 37.7352 109.808 37.6109L119.343 34.1589C119.686 34.0359 119.863 33.6565 119.739 33.3127C119.615 32.9703 119.236 32.7918 118.893 32.9161Z" fill="#F8F9FA"/>
<path d="M119.234 36.2214L108.593 40.3173C108.253 40.4482 108.083 40.8316 108.214 41.1714C108.345 41.5125 108.727 41.683 109.067 41.5521L119.708 37.4549C120.049 37.324 120.219 36.9419 120.087 36.6008C119.957 36.2597 119.575 36.0905 119.234 36.2214Z" fill="#F8F9FA"/>
<path d="M118.441 40.7482L108.74 45.1852C108.409 45.3373 108.262 45.7286 108.414 46.0618C108.565 46.3936 108.957 46.5391 109.289 46.3883L118.99 41.95C119.322 41.798 119.468 41.4067 119.316 41.0748C119.165 40.7416 118.773 40.5962 118.441 40.7482Z" fill="#F8F9FA"/>
<path d="M116.753 44.2081L109.373 47.2728C109.036 47.4129 108.876 47.8003 109.016 48.1374C109.155 48.4746 109.542 48.6345 109.879 48.4944L117.259 45.4298C117.596 45.2896 117.756 44.9022 117.616 44.5651C117.476 44.228 117.09 44.068 116.753 44.2081Z" fill="#F8F9FA"/>
<path d="M112.653 14.5641C112.549 14.2573 112.355 14.0286 112.138 13.8435C111.481 13.3027 110.509 13.0106 109.472 13C108.718 13.0013 107.919 13.1745 107.253 13.6663C106.584 14.1555 106.115 14.9871 106.053 16.0488L106.045 16.3066C106.042 16.9213 106.21 17.4779 106.6 17.8627C106.989 18.2461 107.509 18.377 107.994 18.3756C109.004 18.3637 110.087 17.8957 111.109 17.2995C112.125 16.6926 113.043 15.9536 113.606 15.2436L113.086 14.8351L112.557 14.4397C112.548 14.4516 112.087 15.0717 111.616 15.8663C111.38 16.2656 111.142 16.7071 110.955 17.1514C110.77 17.5982 110.625 18.0372 110.621 18.5065C110.621 18.7048 110.65 18.9164 110.743 19.1266C110.834 19.3355 111 19.5364 111.209 19.6647C111.518 19.8577 111.926 19.7639 112.119 19.4545C112.312 19.1451 112.218 18.7366 111.909 18.5435L111.854 18.6321L111.95 18.5885L111.909 18.5435L111.854 18.6321L111.95 18.5885L111.947 18.5753L111.941 18.5065C111.937 18.3518 112.018 18.0213 112.172 17.6644C112.399 17.121 112.764 16.4996 113.07 16.0263C113.223 15.7896 113.361 15.5887 113.46 15.4472C113.559 15.3057 113.616 15.2291 113.616 15.2291C113.831 14.9395 113.774 14.5283 113.487 14.3102C113.201 14.0907 112.79 14.1423 112.567 14.4265C112.176 14.9316 111.334 15.6323 110.436 16.1611C109.543 16.7005 108.555 17.0641 107.994 17.0535C107.718 17.0509 107.593 16.9861 107.528 16.9213C107.463 16.8565 107.368 16.7098 107.365 16.3066L107.371 16.1347C107.429 15.3851 107.687 15.0017 108.041 14.728C108.399 14.4583 108.921 14.3208 109.472 14.3221C109.971 14.3208 110.485 14.4345 110.857 14.5984C111.042 14.6791 111.192 14.7729 111.284 14.8523L111.38 14.9501L111.4 14.9831C111.516 15.3295 111.89 15.5159 112.236 15.4009C112.582 15.2846 112.768 14.9104 112.653 14.5641Z" fill="#F8F9FA"/>
<path d="M137.293 18.7987L133.145 27.4294C132.987 27.7572 133.125 28.1526 133.454 28.3112C133.782 28.4699 134.177 28.331 134.335 28.0018L134.411 27.8511C134.594 27.4968 135.098 26.5846 135.749 25.7953C136.073 25.4013 136.434 25.0403 136.786 24.7958C137.139 24.5485 137.467 24.4295 137.743 24.4309L137.917 24.4467C138.258 24.5102 138.429 24.6305 138.537 24.7587C138.644 24.8883 138.702 25.0549 138.703 25.2717C138.707 25.593 138.55 26.0002 138.259 26.303C137.966 26.6057 137.572 26.8106 137.056 26.812C136.741 26.812 136.371 26.734 135.94 26.5198C135.614 26.3572 135.217 26.4894 135.055 26.8159C134.892 27.1438 135.025 27.5404 135.351 27.7031C135.939 27.9966 136.517 28.1354 137.056 28.1341C137.946 28.1367 138.705 27.7546 139.215 27.2139C139.726 26.6731 140.021 25.9804 140.024 25.2717C140.025 24.8011 139.882 24.3119 139.555 23.9166C139.23 23.5199 138.735 23.2463 138.148 23.1444C138.012 23.1207 137.877 23.1087 137.743 23.1087C137.003 23.1127 136.364 23.4446 135.823 23.865C135.011 24.5036 134.364 25.3828 133.895 26.1099C133.43 26.8371 133.153 27.4122 133.145 27.4294C133.069 27.5854 133.059 27.7692 133.117 27.9344C133.174 28.0984 133.297 28.2359 133.454 28.3112C133.61 28.3866 133.794 28.3972 133.958 28.339C134.122 28.2821 134.259 28.1592 134.335 28.0018L138.483 19.3725C138.641 19.0433 138.503 18.648 138.174 18.4907C137.846 18.332 137.451 18.4695 137.293 18.7987Z" fill="#F8F9FA"/>
<path d="M2.28638 218.181L11.3011 226.72C11.6684 227.067 12.2477 227.051 12.5931 226.683C12.9403 226.317 12.9239 225.737 12.5584 225.392L3.5418 216.853C3.17449 216.506 2.59705 216.522 2.24984 216.888C1.90263 217.256 1.91907 217.834 2.28638 218.181Z" fill="#F8F9FA"/>
<path d="M11.1717 214.777L3.6226 226.067C3.34117 226.486 3.45445 227.055 3.87293 227.336C4.29324 227.616 4.85974 227.505 5.14116 227.084L12.6903 215.794C12.9699 215.375 12.8585 214.806 12.4382 214.526C12.0197 214.244 11.4513 214.356 11.1717 214.777Z" fill="#F8F9FA"/>
<path d="M21.1145 219.383L30.131 216.026C30.6043 215.851 30.8455 215.324 30.6701 214.85C30.4947 214.378 29.9683 214.136 29.495 214.312L20.4767 217.669C20.0052 217.845 19.764 218.372 19.9395 218.845C20.1149 219.319 20.6412 219.559 21.1145 219.383Z" fill="#F8F9FA"/>
<path d="M33.5318 206.443L39.0161 211.3C39.3943 211.635 39.9718 211.599 40.3063 211.222C40.6407 210.843 40.6059 210.265 40.2277 209.93L34.7435 205.073C34.3652 204.738 33.7877 204.773 33.4533 205.151C33.1188 205.53 33.1535 206.108 33.5318 206.443Z" fill="#F8F9FA"/>
<path d="M42.9466 199.659L36.0023 223.522C35.8616 224.007 36.1394 224.515 36.6255 224.656C37.1098 224.797 37.616 224.519 37.7567 224.034L44.701 200.172C44.8417 199.685 44.5639 199.178 44.0797 199.037C43.5954 198.895 43.0873 199.174 42.9466 199.659Z" fill="#F8F9FA"/>
<path d="M225.59 317.709L225.358 318.039L214.6 310.81L200.701 311.761L199.83 329.019L210.101 336.19L222.669 335.295L225.184 317.654L225.59 317.709L225.996 317.764L223.435 335.726C223.408 335.913 223.251 336.057 223.059 336.07L210.012 336.999C209.916 337.006 209.823 336.98 209.744 336.925L199.171 329.542C199.058 329.463 198.994 329.334 199 329.197L199.9 311.367C199.91 311.164 200.073 311.002 200.281 310.988L214.685 310.001C214.778 309.995 214.87 310.02 214.947 310.071L225.823 317.379C225.95 317.465 226.018 317.614 225.996 317.764L225.59 317.709Z" fill="#F8F9FA"/>
<path d="M222.79 335.996L212.382 328.676L199.44 329.616C199.214 329.633 199.017 329.467 199.001 329.247C198.984 329.026 199.154 328.835 199.379 328.818L212.47 327.868C212.565 327.861 212.661 327.887 212.739 327.942L223.268 335.346C223.452 335.476 223.494 335.725 223.361 335.905C223.229 336.084 222.973 336.125 222.79 335.996Z" fill="#F8F9FA"/>
<path d="M212.093 328.218L214.307 310.353C214.334 310.133 214.538 309.976 214.763 310.003C214.988 310.03 215.148 310.229 215.121 310.449L212.907 328.314C212.879 328.534 212.675 328.691 212.451 328.664C212.226 328.637 212.066 328.438 212.093 328.218Z" fill="#F8F9FA"/>
<path d="M225.637 318.106L211.265 319.732C211.161 319.743 211.056 319.716 210.973 319.655L200.064 311.707C199.883 311.575 199.845 311.324 199.981 311.148C200.116 310.97 200.373 310.934 200.554 311.066L211.332 318.918L225.543 317.311C225.768 317.286 225.971 317.443 225.997 317.663C226.023 317.883 225.862 318.081 225.637 318.106Z" fill="#F8F9FA"/>
<path d="M211.626 319.362L210.391 336.627C210.375 336.848 210.179 337.014 209.954 336.999C209.728 336.984 209.558 336.792 209.574 336.571L210.809 319.306C210.825 319.086 211.02 318.919 211.246 318.935C211.472 318.95 211.643 319.141 211.626 319.362Z" fill="#F8F9FA"/>
<path d="M22.5896 140.334L22.1403 140.189L16.5916 157.455C16.5416 157.61 16.5746 157.779 16.6794 157.904C16.7832 158.028 16.9428 158.09 17.1042 158.068L34.3771 155.735C34.5442 155.713 34.6877 155.6 34.7509 155.444C34.8142 155.288 34.7896 155.107 34.6848 154.975L22.9606 140.042C22.853 139.905 22.6784 139.838 22.5066 139.869C22.3348 139.9 22.1941 140.023 22.1403 140.189L22.5896 140.334L22.2186 140.626L33.4322 154.909L17.7196 157.031L23.039 140.479L22.5896 140.334Z" fill="#F8F9FA"/>
<path d="M22.1262 140.424L25.214 156.423C25.2631 156.679 25.5104 156.847 25.7662 156.797C26.023 156.748 26.1901 156.5 26.141 156.243L23.0532 140.244C23.0041 139.988 22.7559 139.821 22.5001 139.87C22.2442 139.92 22.0772 140.168 22.1262 140.424Z" fill="#F8F9FA"/>
<path d="M25.2562 154.236L26.8157 153.987L27.2074 156.245C27.2518 156.502 27.4963 156.674 27.7531 156.63C28.0098 156.585 28.1826 156.34 28.1382 156.083L27.6662 153.367C27.6228 153.112 27.3821 152.94 27.1272 152.981L25.108 153.302C24.8503 153.343 24.6747 153.586 24.7153 153.843C24.7569 154.101 24.9985 154.276 25.2562 154.236Z" fill="#F8F9FA"/>
<path d="M171.518 275.57L188.458 283.901C188.918 284.126 189.472 283.936 189.698 283.476C189.924 283.016 189.733 282.462 189.275 282.236L172.335 273.906C171.876 273.68 171.32 273.869 171.094 274.329C170.87 274.789 171.059 275.345 171.518 275.57Z" fill="#F8F9FA"/>
<path d="M182.503 268.138L177.656 285.85C177.521 286.344 177.812 286.854 178.305 286.989C178.799 287.125 179.309 286.833 179.444 286.34L184.29 268.628C184.426 268.134 184.135 267.624 183.642 267.489C183.147 267.353 182.638 267.643 182.503 268.138Z" fill="#F8F9FA"/>
<path d="M186.367 260.437L186.224 260.28L186.363 260.439L186.367 260.437L186.224 260.28L186.363 260.439C186.389 260.395 187.164 259.825 187.749 259.855C187.947 259.857 188.125 259.894 188.333 260.014C188.538 260.135 188.783 260.352 189.046 260.766C189.264 261.11 189.383 261.593 189.383 262.19C189.389 263.36 188.907 264.876 188.399 266.051C188.147 266.643 187.894 267.153 187.705 267.513C187.61 267.693 187.532 267.834 187.479 267.93L187.399 268.069C187.197 268.409 187.232 268.837 187.486 269.14C187.738 269.442 188.155 269.551 188.523 269.41L195.319 266.823C195.797 266.639 196.036 266.105 195.854 265.627C195.673 265.146 195.137 264.907 194.659 265.089L187.866 267.678L188.194 268.544L188.99 269.019C189.003 268.995 189.55 268.077 190.104 266.78C190.652 265.48 191.228 263.818 191.236 262.19C191.234 261.363 191.078 260.517 190.611 259.773C190.224 259.161 189.77 258.707 189.268 258.414C188.768 258.119 188.233 257.998 187.749 258C186.967 258.004 186.332 258.28 185.883 258.531C185.433 258.785 185.161 259.03 185.126 259.059C184.746 259.402 184.716 259.99 185.059 260.37C185.402 260.751 185.987 260.78 186.367 260.437Z" fill="#F8F9FA"/>
<path d="M209.878 1.46871C207.908 2.57898 206.631 3.89148 205.826 5.3687C205.021 6.84435 204.68 8.50817 204.68 10.3414C204.67 14.5409 206.522 19.5607 208.423 24.4737C210.314 29.3978 212.258 34.1964 212.272 38.269C212.283 41.1999 211.188 43.4329 209.445 45.0011C206.833 47.3565 202.95 48.3539 199.019 49.1317C195.089 49.8954 191.069 50.4207 188.284 51.5435L187.993 51.5984C186.453 51.5922 184.262 51.6219 182.567 52.475C181.717 52.9016 180.99 53.5069 180.446 54.4415C179.906 55.3761 179.544 56.6652 179.544 58.478L179.547 58.7759C179.557 59.2087 179.212 59.5663 178.78 59.5757C178.347 59.5835 177.99 59.2401 177.981 58.8073L177.978 58.478C177.976 56.4597 178.383 54.8759 179.091 53.6543C180.153 51.8148 181.861 50.8912 183.515 50.4615C185.174 50.0256 186.831 50.0334 187.993 50.0303V50.8144L187.702 50.0867C189.765 49.2634 192.249 48.7726 194.829 48.3037C198.695 47.6074 202.777 46.9566 205.786 45.528C207.291 44.8145 208.516 43.9238 209.36 42.7712C210.204 41.6155 210.702 40.19 210.706 38.269C210.72 34.6998 208.868 29.9561 206.962 25.0383C205.067 20.1064 203.123 14.9847 203.113 10.3414C203.112 8.31685 203.494 6.37079 204.451 4.61601C205.405 2.86279 206.929 1.32598 209.111 0.101234C209.487 -0.112037 209.965 0.02285 210.178 0.400779C210.389 0.778709 210.254 1.25544 209.878 1.46871Z" fill="#F8F9FA"/>
<path d="M225.505 10.8654C224.89 14.2573 223.401 16.6205 221.371 18.1746C218.321 20.5049 214.253 21.0553 210.152 21.3736C206.047 21.681 201.865 21.7437 198.626 22.8054C195.388 23.8623 193.319 25.3709 192.034 27.1492C190.754 28.9291 190.228 31.0211 190.227 33.3467C190.223 36.4407 191.184 39.911 192.496 43.2951C193.806 46.6824 195.457 49.9802 196.798 52.7826C198.489 56.3282 200.211 60.7395 200.217 65.0551C200.222 67.9452 199.413 70.8244 197.257 73.2127C196.967 73.5342 196.472 73.5593 196.151 73.2692C195.83 72.9791 195.803 72.4835 196.093 72.162C197.952 70.0952 198.646 67.6708 198.651 65.0551C198.657 61.1629 197.042 56.9116 195.386 53.46C194.055 50.6749 192.382 47.3395 191.035 43.8628C189.691 40.383 188.663 36.7606 188.66 33.3467C188.659 30.789 189.252 28.3301 190.765 26.2318C192.275 24.1336 194.675 22.4416 198.142 21.3141C202.916 19.7757 208.924 20.207 213.954 19.3727C216.467 18.965 218.702 18.253 220.417 16.931C222.129 15.6059 223.39 13.6786 223.963 10.5831C224.042 10.1565 224.45 9.87424 224.875 9.95264C225.301 10.0311 225.583 10.4404 225.505 10.8654Z" fill="#F8F9FA"/>
<path d="M222.232 16.3601L205.928 2.79856C205.594 2.52099 205.549 2.02701 205.826 1.69456C206.102 1.36054 206.595 1.31504 206.929 1.59104L223.233 15.1526C223.567 15.4302 223.612 15.9241 223.335 16.2566C223.059 16.5906 222.566 16.6361 222.232 16.3601Z" fill="#F8F9FA"/>
<path d="M215.837 20.4092L203.558 10.2114C203.225 9.93384 203.179 9.43986 203.455 9.10741C203.73 8.77339 204.225 8.72632 204.558 9.00388L216.836 19.2017C217.17 19.4777 217.215 19.9732 216.94 20.3057C216.663 20.6397 216.169 20.6852 215.837 20.4092Z" fill="#F8F9FA"/>
<path d="M208.636 30.7339L198.264 22.5763C197.924 22.3097 197.866 21.8157 198.132 21.4755C198.4 21.1352 198.892 21.0756 199.232 21.3437L209.604 29.5014C209.944 29.768 210.004 30.2604 209.738 30.6022C209.47 30.9425 208.978 31.0021 208.636 30.7339Z" fill="#F8F9FA"/>
<path d="M210.806 42.9643L190.535 28.3693C190.184 28.1153 190.104 27.6259 190.357 27.2747C190.609 26.9234 191.099 26.8435 191.45 27.0959L211.719 41.6909C212.071 41.9434 212.151 42.4342 211.897 42.7855C211.645 43.1367 211.156 43.2167 210.806 42.9643Z" fill="#F8F9FA"/>
<path d="M203.036 48.6503L188.909 38.2658C188.56 38.0087 188.485 37.5193 188.74 37.1696C188.997 36.8199 189.487 36.7447 189.835 37.0019L203.964 47.3863C204.311 47.6419 204.387 48.1328 204.131 48.4825C203.876 48.8306 203.386 48.9059 203.036 48.6503Z" fill="#F8F9FA"/>
<path d="M196.993 70.6895L179.334 56.2952C178.997 56.0208 178.947 55.5284 179.22 55.1912C179.494 54.8556 179.987 54.8055 180.322 55.0783L197.982 69.4741C198.317 69.747 198.369 70.2409 198.094 70.5765C197.822 70.9121 197.329 70.9623 196.993 70.6895Z" fill="#F8F9FA"/>
<path d="M196.6 59.3971L185.078 51.2912C184.724 51.0419 184.639 50.5542 184.888 50.1998C185.137 49.8454 185.625 49.7591 185.979 50.0085L197.501 58.1143C197.855 58.3637 197.94 58.8514 197.69 59.2074C197.443 59.5602 196.954 59.6465 196.6 59.3971Z" fill="#F8F9FA"/>
<path d="M266.845 299.431C270.789 305.419 277.324 308.664 283.99 308.665C287.866 308.665 291.783 307.568 295.261 305.272C301.243 301.324 304.485 294.782 304.486 288.107C304.486 284.228 303.39 280.307 301.097 276.824C297.154 270.836 290.619 267.59 283.952 267.589C280.076 267.59 276.16 268.687 272.681 270.983C266.7 274.93 263.458 281.473 263.457 288.147C263.457 292.027 264.553 295.947 266.845 299.431L266.008 299.983C263.604 296.333 262.453 292.216 262.453 288.147C262.453 281.149 265.856 274.284 272.129 270.144C275.775 267.737 279.888 266.584 283.952 266.585C290.942 266.584 297.799 269.991 301.935 276.271C304.338 279.922 305.49 284.039 305.49 288.107C305.49 295.105 302.086 301.971 295.814 306.111C292.167 308.517 288.055 309.67 283.99 309.67C277.001 309.671 270.143 306.263 266.008 299.983L266.845 299.431Z" fill="#F8F9FA"/>
<path d="M304.399 291.955C309.33 290.535 313.391 288.998 316.188 287.501C317.586 286.753 318.666 286.014 319.371 285.328C320.084 284.64 320.385 284.029 320.379 283.564L320.367 283.393C320.333 283.166 320.235 282.947 320.045 282.714C319.716 282.309 319.093 281.89 318.196 281.527C315.502 280.422 310.472 279.809 304.067 279.814C297.684 279.814 289.917 280.406 281.607 281.636C271.291 283.164 262.057 285.393 255.429 287.768C252.116 288.953 249.453 290.177 247.651 291.348C246.751 291.931 246.067 292.502 245.628 293.025C245.185 293.551 245.001 294.008 245.003 294.381L245.016 294.552C245.05 294.779 245.148 294.998 245.337 295.23C245.666 295.636 246.29 296.054 247.187 296.417C249.88 297.522 254.91 298.135 261.316 298.13C262.717 298.13 264.185 298.102 265.711 298.045C265.988 298.035 266.221 298.251 266.231 298.528C266.242 298.805 266.026 299.038 265.749 299.048C264.211 299.106 262.731 299.135 261.316 299.135C256.384 299.135 252.255 298.788 249.269 298.1C247.775 297.754 246.566 297.326 245.667 296.786C245.219 296.515 244.846 296.213 244.562 295.868C244.278 295.523 244.086 295.127 244.023 294.699C244.008 294.593 244 294.488 244 294.381C244.002 293.678 244.329 293.009 244.86 292.377C245.798 291.271 247.406 290.197 249.586 289.113C256.118 285.879 267.845 282.662 281.461 280.643C289.813 279.405 297.623 278.81 304.067 278.81C309 278.811 313.128 279.157 316.113 279.845C317.607 280.191 318.817 280.619 319.715 281.159C320.164 281.43 320.537 281.731 320.821 282.077C321.104 282.422 321.297 282.819 321.359 283.246C321.375 283.351 321.383 283.457 321.383 283.564C321.377 284.45 320.874 285.267 320.07 286.05C318.853 287.225 316.878 288.389 314.265 289.548C311.654 290.704 308.408 291.846 304.677 292.921C304.41 292.997 304.132 292.843 304.056 292.577C303.979 292.31 304.133 292.032 304.399 291.955Z" fill="#F8F9FA"/>
<path d="M259.777 264.98C260.827 266.574 262.97 267.015 264.563 265.963C266.156 264.913 266.596 262.767 265.545 261.173C264.495 259.578 262.353 259.137 260.76 260.188C259.167 261.24 258.727 263.386 259.777 264.98Z" fill="#F8F9FA"/>
<path d="M271.207 317.904C272.257 319.499 274.4 319.939 275.993 318.889C277.586 317.838 278.026 315.692 276.976 314.097C275.925 312.502 273.783 312.062 272.19 313.114C270.597 314.165 270.157 316.31 271.207 317.904Z" fill="#F8F9FA"/>
<path d="M289.641 282.014C290.691 283.608 292.834 284.049 294.427 282.997C296.02 281.946 296.46 279.801 295.41 278.207C294.36 276.612 292.217 276.171 290.624 277.223C289.031 278.274 288.591 280.419 289.641 282.014Z" fill="#F8F9FA"/>
<path d="M301.42 276.961C304.452 271.485 306.883 266.485 308.552 262.346C310.224 258.215 311.122 254.919 311.116 252.969C311.116 252.45 311.052 252.033 310.945 251.734C310.835 251.432 310.695 251.259 310.53 251.15C310.387 251.058 310.211 251.005 309.964 251.004C309.544 251 308.931 251.181 308.191 251.574C305.58 252.944 301.516 256.792 296.85 262.313C292.175 267.837 286.86 275.042 281.6 283.173C276.185 291.545 271.69 299.567 268.553 306.211C266.985 309.533 265.757 312.51 264.924 315.007C264.09 317.502 263.657 319.526 263.66 320.883C263.659 321.402 263.723 321.82 263.831 322.118C263.94 322.42 264.08 322.593 264.246 322.703C264.389 322.794 264.563 322.847 264.812 322.848C265.346 322.854 266.192 322.553 267.22 321.912C270.323 319.999 275.042 315.215 280.352 308.592C280.525 308.376 280.841 308.341 281.057 308.514C281.273 308.688 281.307 309.005 281.134 309.221C277.567 313.665 274.273 317.292 271.5 319.823C270.112 321.089 268.856 322.08 267.748 322.767C266.636 323.449 265.678 323.846 264.812 323.853C264.413 323.854 264.027 323.759 263.7 323.546C263.315 323.296 263.047 322.909 262.886 322.458C262.725 322.005 262.657 321.48 262.656 320.883C262.659 319.326 263.123 317.242 263.972 314.689C266.523 307.046 272.603 295.237 280.758 282.628C286.793 273.297 292.9 265.181 298.063 259.383C300.646 256.483 302.99 254.164 304.988 252.553C305.987 251.749 306.899 251.121 307.722 250.686C308.547 250.253 309.282 250.003 309.964 250C310.362 249.999 310.749 250.094 311.075 250.306C311.461 250.555 311.729 250.943 311.889 251.394C312.05 251.847 312.119 252.372 312.119 252.969C312.113 255.194 311.171 258.526 309.483 262.723C307.792 266.914 305.345 271.943 302.298 277.449C302.164 277.691 301.859 277.779 301.616 277.644C301.374 277.51 301.286 277.205 301.42 276.961Z" fill="#F8F9FA"/>
<path d="M278.304 268.095C275.117 264.351 272.142 261.321 269.621 259.24C268.362 258.201 267.217 257.399 266.228 256.867C265.24 256.331 264.409 256.075 263.818 256.079C263.475 256.08 263.219 256.156 263.009 256.293C262.774 256.449 262.585 256.693 262.444 257.08C262.304 257.463 262.225 257.983 262.226 258.618C262.217 261.386 263.719 266.222 266.428 272.111C269.134 278.006 273.034 284.99 277.787 292.209C283.15 300.354 288.67 307.383 293.408 312.36C295.777 314.848 297.952 316.824 299.8 318.163C301.641 319.509 303.179 320.189 304.125 320.176C304.468 320.174 304.724 320.098 304.934 319.961C305.169 319.805 305.358 319.561 305.499 319.174C305.639 318.79 305.718 318.271 305.717 317.636C305.72 316.036 305.222 313.725 304.268 310.93C303.315 308.133 301.912 304.843 300.126 301.235C300.003 300.986 300.105 300.684 300.353 300.562C300.601 300.438 300.902 300.54 301.025 300.789C302.826 304.427 304.245 307.752 305.217 310.606C306.188 313.462 306.718 315.839 306.72 317.636C306.72 318.351 306.636 318.979 306.442 319.517C306.25 320.052 305.934 320.505 305.486 320.799C305.091 321.061 304.62 321.181 304.125 321.18C302.757 321.166 301.139 320.364 299.211 318.976C293.458 314.798 285.044 305.047 276.95 292.762C272.171 285.506 268.249 278.484 265.516 272.53C262.786 266.567 261.231 261.706 261.222 258.618C261.223 257.902 261.307 257.274 261.5 256.737C261.693 256.202 262.009 255.749 262.457 255.454C262.852 255.192 263.323 255.073 263.818 255.075C264.678 255.078 265.631 255.406 266.704 255.982C269.907 257.716 274.241 261.78 279.068 267.444C279.247 267.655 279.222 267.971 279.011 268.151C278.8 268.332 278.484 268.306 278.304 268.095Z" fill="#F8F9FA"/>
<path d="M94.8604 290.786V291.452H79.1937C78.957 291.452 78.7376 291.324 78.6179 291.119L70.7859 277.535C70.6663 277.329 70.6663 277.075 70.7859 276.87L78.6179 263.286C78.7376 263.079 78.957 262.953 79.1937 262.953H94.8604C95.0984 262.953 95.3178 263.079 95.4362 263.286L103.271 276.87C103.389 277.075 103.389 277.329 103.271 277.535L95.4362 291.119C95.3178 291.324 95.0984 291.452 94.8604 291.452V290.786L94.2846 290.454L101.928 277.202L94.4774 264.284H79.578L72.129 277.202L79.578 290.121H94.8604V290.786Z" fill="#F8F9FA"/>
<path d="M118.534 277.203V277.868H102.867C102.629 277.868 102.409 277.74 102.291 277.535L94.4565 263.951C94.3381 263.745 94.3381 263.492 94.4565 263.286L102.291 249.702C102.409 249.495 102.629 249.369 102.867 249.369H118.534C118.772 249.369 118.991 249.495 119.109 249.702L126.943 263.286C127.061 263.492 127.061 263.745 126.943 263.951L119.109 277.535C118.991 277.74 118.772 277.868 118.534 277.868V277.203L117.958 276.87L125.6 263.619L118.151 250.7H103.251L95.8008 263.619L103.251 276.537H118.534V277.203Z" fill="#F8F9FA"/>
<path d="M94.8604 263.619V264.284H79.1937C78.957 264.284 78.7376 264.158 78.6179 263.951L70.7859 250.367C70.6663 250.161 70.6663 249.908 70.7859 249.702L78.6179 236.118C78.7376 235.913 78.957 235.785 79.1937 235.785H94.8604C95.0984 235.785 95.3178 235.913 95.4362 236.118L103.271 249.702C103.389 249.908 103.389 250.161 103.271 250.367L95.4362 263.951C95.3178 264.158 95.0984 264.284 94.8604 264.284V263.619L94.2846 263.286L101.928 250.035L94.4774 237.116H79.578L72.129 250.035L79.578 262.953L94.8604 262.953V263.619Z" fill="#F8F9FA"/>
<path d="M97.1369 263.618C97.1369 262.455 96.1942 261.511 95.032 261.511C93.8698 261.511 92.9284 262.455 92.9284 263.618C92.9284 264.782 93.8698 265.726 95.032 265.726C96.1942 265.726 97.1369 264.782 97.1369 263.618Z" fill="#F8F9FA"/>
<path d="M129.852 235.106C129.852 233.943 128.909 233 127.748 233C126.586 233 125.643 233.943 125.643 235.106C125.643 236.27 126.586 237.213 127.748 237.213C128.909 237.213 129.852 236.27 129.852 235.106Z" fill="#F8F9FA"/>
<path d="M99.2408 320.585C99.2408 319.421 98.298 318.478 97.1372 318.478C95.975 318.478 95.0322 319.421 95.0322 320.585C95.0322 321.748 95.975 322.691 97.1372 322.691C98.298 322.691 99.2408 321.748 99.2408 320.585Z" fill="#F8F9FA"/>
<path d="M122.742 307.001C122.742 305.837 121.799 304.894 120.637 304.894C119.475 304.894 118.533 305.837 118.533 307.001C118.533 308.164 119.475 309.107 120.637 309.107C121.799 309.107 122.742 308.164 122.742 307.001Z" fill="#F8F9FA"/>
<path d="M56.2085 250.391C56.2085 249.229 55.267 248.285 54.1049 248.285C52.9427 248.285 51.9999 249.229 51.9999 250.391C51.9999 251.555 52.9427 252.499 54.1049 252.499C55.267 252.499 56.2085 251.555 56.2085 250.391Z" fill="#F8F9FA"/>
<path d="M107.235 307.001C107.235 305.837 106.292 304.894 105.13 304.894C103.969 304.894 103.026 305.837 103.026 307.001C103.026 308.164 103.969 309.107 105.13 309.107C106.292 309.107 107.235 308.164 107.235 307.001Z" fill="#F8F9FA"/>
<path d="M73.4654 250.391C73.4654 249.229 72.524 248.285 71.3618 248.285C70.1996 248.285 69.2569 249.229 69.2569 250.391C69.2569 251.555 70.1996 252.499 71.3618 252.499C72.524 252.499 73.4654 251.555 73.4654 250.391Z" fill="#F8F9FA"/>
<path d="M97.1369 290.786C97.1369 289.623 96.1942 288.679 95.032 288.679C93.8698 288.679 92.9284 289.623 92.9284 290.786C92.9284 291.95 93.8698 292.892 95.032 292.892C96.1942 292.892 97.1369 291.95 97.1369 290.786Z" fill="#F8F9FA"/>
<path d="M71.362 251.057H54.105C53.738 251.057 53.4401 250.76 53.4401 250.391C53.4401 250.024 53.738 249.726 54.105 249.726H71.362C71.729 249.726 72.0269 250.024 72.0269 250.391C72.0269 250.76 71.729 251.057 71.362 251.057Z" fill="#F8F9FA"/>
<path d="M95.5972 290.434L105.694 306.648C105.889 306.961 105.793 307.371 105.482 307.565C105.17 307.76 104.76 307.665 104.566 307.352L94.4683 291.138C94.2742 290.826 94.3699 290.415 94.6811 290.221C94.9922 290.026 95.4031 290.122 95.5972 290.434Z" fill="#F8F9FA"/>
<path d="M117.968 249.684L127.183 234.756C127.376 234.443 127.786 234.347 128.098 234.54C128.411 234.733 128.506 235.143 128.314 235.456L119.1 250.385C118.906 250.698 118.496 250.793 118.184 250.6C117.871 250.407 117.776 249.997 117.968 249.684Z" fill="#F8F9FA"/>
<path d="M96.5613 320.252L104.395 306.668C104.513 306.462 104.732 306.335 104.97 306.335H120.637C121.004 306.335 121.302 306.634 121.302 307.001C121.302 307.368 121.004 307.667 120.637 307.667H105.355L97.7128 320.918C97.5293 321.236 97.1238 321.345 96.8046 321.161C96.4868 320.978 96.3778 320.57 96.5613 320.252Z" fill="#F8F9FA"/>
<path d="M53.1068 70.6576C50.6525 62.3109 42.9412 56.2162 33.8092 56.2172C24.3675 56.2162 16.4447 62.7315 14.2802 71.5139C14.2179 71.7672 13.9621 71.9221 13.7091 71.8598C13.4561 71.7974 13.3013 71.5403 13.3636 71.2871C15.6301 62.0898 23.9239 55.273 33.8092 55.2721C43.3698 55.273 51.4426 61.6503 54.0121 70.3902C54.0858 70.6406 53.9432 70.9034 53.6931 70.9771C53.4429 71.0508 53.1805 70.9081 53.1068 70.6576Z" fill="#F8F9FA"/>
<path d="M36.0898 96.3613C46.1233 95.2282 53.9224 86.7019 53.9215 76.3526C53.9215 76.0917 54.133 75.881 54.3935 75.881C54.654 75.881 54.8655 76.0917 54.8655 76.3526C54.8645 87.1877 46.7039 96.1128 36.1955 97.2998C35.9369 97.3291 35.7028 97.1429 35.6735 96.883C35.6452 96.6241 35.8312 96.3906 36.0898 96.3613Z" fill="#F8F9FA"/>
<path d="M13.6957 76.3526C13.6957 81.9152 15.9462 86.9457 19.5871 90.5908C23.228 94.2359 28.2537 96.489 33.809 96.489C34.0696 96.489 34.281 96.7006 34.281 96.9615C34.281 97.2223 34.0696 97.434 33.809 97.434C22.1792 97.434 12.7518 87.9957 12.7518 76.3526C12.7518 76.0918 12.9632 75.881 13.2237 75.881C13.4843 75.881 13.6957 76.0918 13.6957 76.3526Z" fill="#F8F9FA"/>
<path d="M11.9975 63.7559C9.9755 63.496 8.16778 63.3637 6.63098 63.3637C4.97147 63.3628 3.62443 63.5206 2.67951 63.8183C2.20658 63.9667 1.83749 64.1491 1.57696 64.3485C1.31547 64.5488 1.16347 64.7558 1.08324 64.9836C1.0417 65.1036 1.02094 65.2302 1.02094 65.371C1.01905 65.7425 1.18143 66.2273 1.55147 66.7924C2.19431 67.7819 3.4432 68.9812 5.18766 70.2702C10.4267 74.1478 20.1034 78.8844 31.5538 82.8612C43.5744 87.0393 54.5831 89.3462 60.988 89.3424C62.6475 89.3434 63.9936 89.1856 64.9385 88.8879C65.4114 88.7395 65.7815 88.5571 66.042 88.3577C66.3035 88.1573 66.4545 87.9504 66.5348 87.7226C66.5763 87.6016 66.5971 87.4759 66.598 87.3351C66.5999 86.9552 66.4281 86.4543 66.0382 85.8703C64.8762 84.1087 61.8508 81.7593 57.5462 79.2974C57.3197 79.1679 57.2413 78.8788 57.3706 78.6519C57.5009 78.4261 57.7888 78.3476 58.0154 78.4771C60.9238 80.1461 63.2686 81.7527 64.9074 83.227C65.7277 83.965 66.3724 84.6691 66.8236 85.3467C67.273 86.0234 67.5392 86.6811 67.542 87.3351C67.542 87.5733 67.5042 87.8086 67.4268 88.0326C67.2786 88.4607 66.9898 88.8236 66.6131 89.1099C65.4756 89.9577 63.566 90.278 60.988 90.2875C54.3801 90.2837 43.3413 87.9532 31.2442 83.7534C22.469 80.7046 14.735 77.2211 9.17407 73.9805C6.39218 72.3588 4.15401 70.8004 2.58984 69.3696C1.80728 68.6532 1.19274 67.9681 0.761348 67.3094C0.332783 66.6497 0.0788533 66.008 0.0769653 65.371C0.0769653 65.1329 0.113778 64.8976 0.192128 64.6736C0.339388 64.2455 0.628255 63.8826 1.0049 63.5962C2.14334 62.7485 4.05204 62.4281 6.63098 62.4187C8.22158 62.4187 10.0642 62.5548 12.1174 62.8184C12.376 62.8515 12.5592 63.0878 12.5261 63.3477C12.4922 63.6057 12.2561 63.789 11.9975 63.7559Z" fill="#F8F9FA"/>
<path d="M298.855 117.473L299.279 117.681L297.307 121.683C297.238 121.822 297.104 121.919 296.951 121.942L293.486 122.445L295.993 124.892C296.105 125 296.156 125.158 296.129 125.31L295.537 128.765L298.636 127.134C298.772 127.061 298.939 127.061 299.075 127.134L302.174 128.765L301.583 125.31C301.556 125.158 301.608 125 301.719 124.892L304.225 122.445L300.76 121.942C300.607 121.919 300.473 121.822 300.405 121.683L298.433 117.681L298.855 117.473L299.279 117.263L301.142 121.042L305.308 121.648C305.485 121.674 305.633 121.799 305.688 121.97C305.744 122.14 305.697 122.329 305.569 122.454L302.555 125.396L303.267 129.549C303.297 129.726 303.223 129.906 303.079 130.012C302.933 130.116 302.74 130.131 302.581 130.047L298.855 128.086L295.131 130.047C294.972 130.131 294.778 130.116 294.634 130.012C294.489 129.906 294.416 129.726 294.446 129.549L295.157 125.396L292.142 122.454C292.014 122.329 291.967 122.14 292.023 121.97C292.079 121.799 292.227 121.673 292.404 121.648L296.57 121.042L298.433 117.263C298.512 117.102 298.676 117 298.855 117C299.035 117 299.2 117.102 299.279 117.263L298.855 117.473Z" fill="#F8F9FA"/>
<path d="M246.91 55.0668C246.911 62.594 250.079 69.3774 255.144 74.117L255.148 74.1208C259.83 78.5488 266.124 81.2388 273.036 81.2388C273.886 81.2388 274.717 81.2025 275.528 81.1299H275.524C280.959 80.6136 285.893 78.4379 289.838 75.1169L289.84 75.115C293.212 72.293 295.864 68.6222 297.447 64.4409L297.448 64.4351C298.571 61.5214 299.179 58.3706 299.179 55.0668C299.179 47.8417 296.256 41.3088 291.524 36.573C286.791 31.8372 280.261 28.912 273.036 28.912C268.978 28.912 265.133 29.8335 261.689 31.5103L261.686 31.5121C257.744 33.4126 254.353 36.2709 251.831 39.7926L251.83 39.7945C248.734 44.0944 246.911 49.3636 246.91 55.0668H245C245 48.9525 246.959 43.2876 250.28 38.6761L250.279 38.678C252.988 34.8962 256.626 31.8296 260.857 29.7896L260.854 29.7914C264.553 27.9885 268.689 27.0001 273.036 27.0001C288.534 27.0001 301.088 39.567 301.089 55.0668C301.089 58.6057 300.436 61.9936 299.23 65.1234L299.232 65.1177C297.53 69.6145 294.683 73.553 291.065 76.5814L291.067 76.5795C286.837 80.1414 281.535 82.4777 275.704 83.0341H275.699C274.83 83.1125 273.941 83.1507 273.036 83.1507C265.624 83.1526 258.856 80.2599 253.836 75.5108L253.84 75.5146C248.402 70.427 245 63.1369 245 55.0668H246.91Z" fill="#F8F9FA"/>
<path d="M251.258 59.9728C251.261 61.7604 252.707 63.2077 254.492 63.2115C256.278 63.2077 257.724 61.7604 257.727 59.9728C257.724 58.1851 256.278 56.7378 254.492 56.7359C252.706 56.7378 251.261 58.1851 251.258 59.9728H249.348C249.349 57.1278 251.651 54.824 254.492 54.824C257.334 54.824 259.636 57.1278 259.636 59.9728C259.636 62.8177 257.334 65.1215 254.492 65.1234C251.651 65.1215 249.349 62.8158 249.348 59.9728H251.258Z" fill="#F8F9FA"/>
<path d="M288.962 70.6297C288.963 72.4383 289.781 74.0424 291.063 75.1131L290.452 75.8473L289.84 75.115C293.212 72.293 295.864 68.6222 297.447 64.4409L298.339 64.7793L297.834 65.5899C296.98 65.0565 295.953 64.7601 294.845 64.7601C291.589 64.7659 288.968 67.3909 288.962 70.6297H287.052C287.053 66.3317 290.537 62.8482 294.845 62.8482C296.294 62.8482 297.676 63.2383 298.844 63.9667C299.231 64.2076 299.393 64.6894 299.232 65.1177C297.53 69.6145 294.683 73.553 291.065 76.5814C290.711 76.8778 290.196 76.8778 289.841 76.5834C288.143 75.1686 287.052 73.0253 287.052 70.6297H288.962Z" fill="#F8F9FA"/>
<path d="M254.492 74.8168L255.148 74.1208C259.83 78.5488 266.124 81.2388 273.036 81.2388C273.886 81.2388 274.717 81.2025 275.528 81.1299L275.614 82.082L274.679 81.885C274.819 81.2235 274.888 80.5448 274.888 79.845C274.888 76.9886 273.736 74.4076 271.867 72.532C269.999 70.6583 267.427 69.5017 264.575 69.5017C260.52 69.5017 257.028 71.8457 255.348 75.2393L254.492 74.8168L253.636 74.3923C255.623 70.3678 259.77 67.5898 264.575 67.5898C271.331 67.5898 276.797 73.0845 276.798 79.845C276.798 80.6729 276.715 81.4855 276.548 82.2789C276.461 82.6919 276.118 82.9959 275.699 83.0341C274.83 83.1125 273.941 83.1507 273.036 83.1507C265.624 83.1526 258.856 80.2599 253.836 75.5108C253.533 75.2221 253.451 74.7671 253.636 74.3923L254.492 74.8168Z" fill="#F8F9FA"/>
<path d="M274.325 38.0776C274.332 40.9951 276.689 43.3564 279.603 43.3602C282.518 43.3564 284.875 40.9951 284.88 38.0776C284.875 35.16 282.518 32.7988 279.603 32.795C276.689 32.7988 274.332 35.16 274.325 38.0776H272.417C272.417 34.1027 275.633 30.8831 279.603 30.8831C283.573 30.8831 286.789 34.1027 286.79 38.0776C286.789 42.0505 283.573 45.2721 279.603 45.2721C275.633 45.2721 272.417 42.0505 272.417 38.0776H274.325Z" fill="#F8F9FA"/>
<path d="M274.792 55.78C274.794 56.8449 275.655 57.7072 276.721 57.7091C277.785 57.7072 278.647 56.843 278.648 55.78C278.647 54.7132 277.785 53.8509 276.721 53.849C275.655 53.8509 274.794 54.7132 274.792 55.78H272.883C272.883 53.6559 274.6 51.9371 276.721 51.9371C278.84 51.9371 280.557 53.6559 280.558 55.78C280.557 57.9022 278.839 59.621 276.721 59.621C274.601 59.621 272.883 57.9003 272.883 55.78H274.792Z" fill="#F8F9FA"/>
<path d="M251.055 39.2362L251.364 38.33C251.971 38.5384 252.671 38.6435 253.404 38.6435C257.268 38.6416 260.373 35.5195 260.374 31.646C260.374 31.3382 260.357 31.0514 260.323 30.7627L261.271 30.6518L261.686 31.5121C257.744 33.4126 254.353 36.2709 251.831 39.7926L251.055 39.2362L250.279 38.678C252.988 34.8962 256.626 31.8296 260.857 29.7896C261.136 29.6538 261.46 29.6634 261.731 29.8125C262.003 29.9617 262.183 30.2312 262.22 30.539C262.262 30.9004 262.284 31.2655 262.284 31.646C262.285 34.1028 261.294 36.3359 259.69 37.9457C258.088 39.5574 255.859 40.5554 253.404 40.5554C252.494 40.5554 251.59 40.4293 250.747 40.1406C250.459 40.0412 250.238 39.8156 250.145 39.5269C250.054 39.2382 250.103 38.9246 250.279 38.678L251.055 39.2362Z" fill="#F8F9FA"/>
<path d="M70.704 184.575C72.0671 183.968 72.8761 182.63 72.8761 181.227C72.8761 180.731 72.7751 180.226 72.5599 179.741C71.9539 178.377 70.6162 177.567 69.2154 177.567C68.7198 177.567 68.2167 177.669 67.7315 177.884C66.3693 178.491 65.5603 179.829 65.5603 181.231C65.5603 181.729 65.6613 182.232 65.8765 182.717C66.4825 184.082 67.8193 184.892 69.2201 184.892C69.7166 184.892 70.2198 184.791 70.704 184.575L71.0873 185.438C70.4812 185.708 69.845 185.837 69.2201 185.837C67.4577 185.838 65.7765 184.817 65.0147 183.102C64.7447 182.494 64.6163 181.857 64.6163 181.231C64.6154 179.468 65.6349 177.784 67.3482 177.021C67.9542 176.751 68.5905 176.622 69.2154 176.622C70.9778 176.621 72.659 177.642 73.4217 179.357C73.6917 179.964 73.8201 180.601 73.8201 181.227C73.8211 182.991 72.8015 184.673 71.0873 185.438L70.704 184.575ZM61.0245 186.824L60.5931 187.017L59.1488 183.766C59.0487 183.542 59.1375 183.279 59.3518 183.16L61.6919 181.868L61.9194 182.281L61.4521 182.349C61.3974 181.971 61.37 181.592 61.37 181.215C61.37 180.98 61.3804 180.745 61.4021 180.511L61.8722 180.555L61.6664 180.98L59.2659 179.811C59.045 179.703 58.944 179.445 59.0318 179.217L60.3061 175.896C60.3939 175.667 60.6422 175.543 60.8782 175.611L63.442 176.352L63.3117 176.806L62.9332 176.523C63.2985 176.034 63.7233 175.588 64.2 175.192L64.5012 175.554L64.0556 175.709L63.1824 173.181C63.1022 172.95 63.2126 172.695 63.4364 172.596L66.6836 171.15C66.9074 171.049 67.1698 171.138 67.2887 171.353L68.5801 173.694L68.1666 173.922L68.0996 173.455C68.4772 173.4 68.8567 173.372 69.2333 173.372C69.4683 173.372 69.7024 173.383 69.9356 173.405L69.8913 173.875L69.4674 173.669L70.6351 171.266C70.7427 171.046 71.0004 170.944 71.2289 171.031L74.546 172.308C74.7744 172.396 74.8981 172.645 74.8301 172.88L74.0901 175.447L73.636 175.316L73.9183 174.937C74.4073 175.303 74.8528 175.728 75.2493 176.206L74.8858 176.507L74.732 176.061L77.2571 175.188C77.4884 175.107 77.7433 175.218 77.8424 175.442L79.2867 178.692C79.3867 178.916 79.298 179.18 79.0837 179.298L76.7455 180.591L76.517 180.178L76.9843 180.111C77.0381 180.489 77.0664 180.869 77.0664 181.247C77.0664 181.481 77.056 181.714 77.0343 181.948L76.5642 181.904L76.771 181.479L79.1705 182.649C79.3905 182.756 79.4925 183.014 79.4037 183.243L78.1294 186.563C78.0416 186.793 77.7933 186.916 77.5573 186.848L74.9944 186.107L75.1247 185.653L75.5032 185.936C75.1379 186.425 74.7121 186.872 74.2364 187.268L73.9353 186.904L74.3808 186.75L75.253 189.279C75.3333 189.51 75.2228 189.764 74.9991 189.865L71.7518 191.31C71.5281 191.41 71.2657 191.321 71.1467 191.106L69.8554 188.765L70.2689 188.537L70.3359 189.005C69.9592 189.059 69.5798 189.087 69.2031 189.087C68.9681 189.087 68.734 189.075 68.5008 189.055L68.5442 188.584L68.968 188.791L67.8004 191.193C67.6928 191.413 67.435 191.516 67.2066 191.428L63.8895 190.151C63.661 190.063 63.5374 189.814 63.6053 189.579L64.3454 187.011L64.7995 187.143L64.5172 187.522C64.0282 187.156 63.5826 186.731 63.1862 186.254L63.5496 185.952L63.7035 186.398L61.1783 187.271C60.9471 187.352 60.6932 187.241 60.5931 187.017L61.0245 186.824L60.8706 186.378L63.3948 185.505C63.5808 185.441 63.7866 185.498 63.9121 185.65C64.2624 186.071 64.6541 186.445 65.0817 186.764C65.2393 186.882 65.3073 187.084 65.2526 187.274L64.6324 189.425L67.1415 190.39L68.1194 188.377C68.2053 188.2 68.3913 188.095 68.5876 188.113C68.7915 188.132 68.9964 188.142 69.2031 188.142C69.5344 188.142 69.8677 188.117 70.2009 188.069C70.3953 188.041 70.587 188.136 70.6823 188.308L71.7641 190.27L74.2194 189.177L73.4888 187.059C73.4246 186.872 73.4822 186.666 73.6332 186.541C74.0533 186.19 74.428 185.798 74.7471 185.371C74.8641 185.213 75.0671 185.145 75.2559 185.199L77.4034 185.82L78.3672 183.309L76.3575 182.33C76.181 182.243 76.0762 182.056 76.0941 181.861C76.113 181.657 76.1225 181.453 76.1225 181.247C76.1225 180.914 76.0979 180.58 76.0498 180.245C76.0215 180.05 76.1168 179.859 76.2886 179.764L78.2483 178.681L77.1561 176.223L75.0406 176.954C74.8547 177.018 74.6489 176.961 74.5233 176.81C74.1731 176.388 73.7814 176.014 73.3537 175.694C73.1961 175.577 73.1282 175.374 73.1829 175.185L73.8031 173.035L71.295 172.069L70.3161 174.082C70.2302 174.259 70.0433 174.365 69.8479 174.346C69.6449 174.327 69.4391 174.317 69.2333 174.317C68.9029 174.317 68.5687 174.342 68.2346 174.39C68.0401 174.419 67.8485 174.323 67.7541 174.151L66.6714 172.189L64.2161 173.283L64.9477 175.4C65.0118 175.587 64.9543 175.792 64.8032 175.918C64.3822 176.269 64.0084 176.66 63.6893 177.088C63.5723 177.246 63.3693 177.314 63.1806 177.259L61.032 176.639L60.0682 179.15L62.0789 180.13C62.2554 180.216 62.3611 180.403 62.3423 180.599C62.3234 180.803 62.314 181.008 62.314 181.215C62.314 181.546 62.3385 181.88 62.3867 182.213C62.415 182.409 62.3196 182.6 62.1478 182.695L60.1872 183.778L61.4559 186.632L61.0245 186.824Z" fill="#F8F9FA"/>
<path d="M91.6811 201.036L91.4895 200.604C93.4039 199.753 94.5395 197.874 94.5404 195.903C94.5404 195.206 94.3979 194.497 94.0949 193.818C93.2443 191.901 91.3668 190.764 89.3995 190.763C88.7019 190.763 87.9949 190.906 87.3162 191.208C85.4018 192.061 84.2662 193.94 84.2653 195.909C84.2653 196.608 84.4078 197.316 84.7099 197.997C85.5604 199.912 87.438 201.049 89.4052 201.05C90.1028 201.049 90.8098 200.908 91.4895 200.604L91.6811 201.036L91.8737 201.468C91.0723 201.825 90.2312 201.995 89.4052 201.995C87.0774 201.995 84.8552 200.648 83.848 198.38C83.4912 197.578 83.3213 196.736 83.3213 195.909C83.3213 193.579 84.6674 191.354 86.932 190.346C87.7334 189.988 88.5736 189.818 89.3995 189.818C91.7274 189.818 93.9505 191.166 94.9577 193.433C95.3145 194.235 95.4844 195.077 95.4844 195.903C95.4844 198.235 94.1383 200.46 91.8737 201.468L91.6811 201.036ZM78.2748 203.506L77.8434 203.698L75.8818 199.284C75.7827 199.06 75.8705 198.796 76.0848 198.678L79.2622 196.921L79.4897 197.335L79.0234 197.403C78.9498 196.898 78.9129 196.392 78.9129 195.887C78.9129 195.573 78.928 195.259 78.9564 194.946L79.4265 194.991L79.2197 195.415L75.9602 193.828C75.7402 193.72 75.6383 193.462 75.7261 193.234L77.4573 188.723C77.5451 188.494 77.7934 188.37 78.0294 188.438L81.5117 189.445L81.3805 189.899L81.0029 189.616C81.49 188.963 82.0583 188.367 82.6954 187.836L82.9966 188.2L82.551 188.354L81.3663 184.92C81.2861 184.688 81.3965 184.434 81.6203 184.334L86.0296 182.371C86.2533 182.271 86.5157 182.36 86.6346 182.574L88.3885 185.755L87.976 185.982L87.9081 185.514C88.4131 185.442 88.9191 185.405 89.4231 185.405C89.7365 185.405 90.0499 185.42 90.3614 185.448L90.318 185.919L89.8932 185.712L91.4791 182.45C91.5867 182.228 91.8444 182.127 92.0729 182.215L96.5785 183.948C96.8069 184.036 96.9306 184.285 96.8626 184.52L95.8573 188.007L95.4042 187.875L95.6864 187.497C96.3396 187.985 96.9343 188.554 97.4639 189.192L97.1014 189.494L96.9466 189.047L100.376 187.861C100.607 187.781 100.862 187.891 100.961 188.116L102.923 192.53C103.023 192.755 102.934 193.017 102.72 193.135L99.5435 194.891L99.315 194.478L99.7823 194.41C99.8559 194.916 99.8927 195.421 99.8927 195.926C99.8927 196.241 99.8776 196.555 99.8493 196.866L99.3792 196.823L99.585 196.398L102.846 197.986C103.065 198.093 103.167 198.351 103.08 198.581L101.348 203.091C101.261 203.319 101.012 203.443 100.776 203.375L97.294 202.369L97.4243 201.915L97.8028 202.198C97.3157 202.852 96.7474 203.447 96.1103 203.977L95.8082 203.614L96.2547 203.459L97.4394 206.893C97.5196 207.124 97.4092 207.379 97.1854 207.479L92.7761 209.442C92.5524 209.543 92.2891 209.454 92.1711 209.239L90.4162 206.059L90.8297 205.83L90.8976 206.298C90.3926 206.371 89.8876 206.409 89.3835 206.409C89.0692 206.409 88.7558 206.394 88.4433 206.365L88.4877 205.895L88.9115 206.101L87.3266 209.365C87.219 209.585 86.9613 209.687 86.7328 209.599L82.2272 207.866C81.9988 207.777 81.8751 207.53 81.9431 207.293L82.9484 203.807L83.4015 203.937L83.1193 204.316C82.466 203.829 81.8713 203.26 81.3418 202.622L81.7043 202.319L81.8581 202.766L78.4296 203.953C78.1974 204.033 77.9435 203.922 77.8434 203.698L78.2748 203.506L78.1209 203.059L81.5504 201.873C81.7364 201.809 81.9412 201.867 82.0668 202.018C82.551 202.6 83.0919 203.117 83.6838 203.559C83.8414 203.677 83.9094 203.88 83.8546 204.069L82.9701 207.139L86.6667 208.562L88.0629 205.688C88.1488 205.511 88.3347 205.406 88.5311 205.424C88.8133 205.45 89.0984 205.464 89.3835 205.464C89.8413 205.464 90.301 205.43 90.7626 205.363C90.9571 205.335 91.1478 205.43 91.2431 205.603L92.7875 208.403L96.4057 206.791L95.3626 203.768C95.2984 203.582 95.356 203.377 95.507 203.25C96.0885 202.766 96.6049 202.224 97.0467 201.632C97.1637 201.475 97.3667 201.407 97.5555 201.46L100.622 202.347L102.043 198.646L99.1725 197.248C98.996 197.162 98.8912 196.975 98.9091 196.78C98.9356 196.496 98.9488 196.212 98.9488 195.926C98.9488 195.468 98.9148 195.008 98.8478 194.545C98.8204 194.351 98.9148 194.16 99.0876 194.064L101.885 192.518L100.275 188.896L97.2553 189.94C97.0693 190.004 96.8635 189.948 96.738 189.796C96.2537 189.212 95.7128 188.696 95.1219 188.254C94.9643 188.136 94.8963 187.934 94.9501 187.745L95.8355 184.675L92.139 183.253L90.7428 186.126C90.6569 186.303 90.47 186.408 90.2746 186.39C89.9924 186.363 89.7082 186.35 89.4231 186.35C88.9653 186.35 88.5047 186.384 88.0431 186.45C87.8486 186.478 87.6579 186.383 87.5626 186.211L86.0173 183.411L82.4 185.022L83.4431 188.045C83.5072 188.232 83.4497 188.438 83.2986 188.563C82.7172 189.047 82.2008 189.59 81.759 190.182C81.641 190.339 81.439 190.408 81.2502 190.353L78.1832 189.467L76.7626 193.168L79.6332 194.565C79.8097 194.651 79.9145 194.837 79.8966 195.034C79.8701 195.317 79.8569 195.602 79.8569 195.887C79.8569 196.346 79.8909 196.807 79.957 197.268C79.9853 197.463 79.8899 197.654 79.7181 197.749L76.9202 199.295L78.7062 203.314L78.2748 203.506Z" fill="#F8F9FA"/>
</svg>
